<svg width="433" height="221" viewBox="0 0 433 221" fill="none" xmlns="http://www.w3.org/2000/svg">
<path d="M368.205 207.007L367.055 206.589L364.965 205.858L347.306 189.453L347.515 192.587C346.366 187.049 342.709 181.825 339.261 182.034V181.929C339.261 175.869 334.872 170.749 329.125 169.599L329.334 169.181C329.439 169.077 329.439 168.868 329.543 168.764L331.842 161.972C332.155 160.195 332.364 158.314 332.364 156.329C332.364 149.537 329.961 143.268 325.99 138.357L322.229 134.595C317.318 130.415 310.839 127.908 303.943 127.908C296.21 127.908 289.21 131.042 284.09 135.953C282.836 135.535 281.477 135.222 280.223 134.804C278.447 133.446 276.253 132.505 273.85 132.505C272.805 122.788 264.55 115.264 254.519 115.264C243.756 115.264 235.083 123.937 235.083 134.7C235.083 136.267 235.292 137.73 235.606 139.193C235.292 139.297 234.979 139.402 234.77 139.506C232.889 138.67 230.695 138.148 228.501 138.148C223.276 138.148 217.115 142.662 214.398 146.737C213.667 146.946 211.025 145.528 210.398 145.737C204.129 115.539 180.748 92.4854 148.67 92.4854C125.473 92.4854 104.993 104.397 93.0806 122.474L87.3337 133.132C83.8855 141.178 82.1091 149.955 82.1091 159.15C82.1091 165.838 83.154 172.316 84.9303 178.481C84.4079 178.795 83.9899 179.108 83.4675 179.526C77.616 180.466 72.287 182.974 67.8984 186.631L81.4821 180.884C80.2283 181.616 78.9744 182.452 77.7205 183.079C76.3621 183.81 70.4062 185.587 69.8837 186.736C68.5253 189.766 70.4062 193.528 73.2274 195.409C73.6454 195.722 73.6454 196.036 73.3319 196.454L62.1514 204.516V207.112H368.205V207.007ZM329.021 170.226C329.125 170.331 329.125 170.226 329.021 170.226V170.226Z" fill="white"/>
<path d="M157.049 115.34V94.6682C157.049 93.3989 157.085 92.0389 157.158 90.5883C157.266 89.1014 157.411 87.5601 157.592 85.9644L136.666 115.34H157.049ZM179.878 115.34V124.805C179.878 125.639 179.588 126.365 179.009 126.981C178.465 127.598 177.668 127.906 176.617 127.906H171.725V146.13H157.049V127.906H125.197C124.146 127.906 123.185 127.58 122.316 126.927C121.482 126.274 120.957 125.458 120.739 124.479L119 116.156L155.636 66.8704H171.725V115.34H179.878Z" fill="#304762"/>
<path d="M243.211 106.473C243.211 113.4 242.468 119.402 240.982 124.479C239.497 129.556 237.431 133.763 234.786 137.099C232.177 140.436 229.06 142.92 225.437 144.552C221.849 146.184 217.954 147 213.75 147C209.547 147 205.651 146.184 202.064 144.552C198.513 142.92 195.432 140.436 192.823 137.099C190.214 133.763 188.167 129.556 186.681 124.479C185.232 119.402 184.507 113.4 184.507 106.473C184.507 99.546 185.232 93.544 186.681 88.4668C188.167 83.3895 190.214 79.1827 192.823 75.8462C195.432 72.5097 198.513 70.0437 202.064 68.4479C205.651 66.816 209.547 66 213.75 66C217.954 66 221.849 66.816 225.437 68.4479C229.06 70.0437 232.177 72.5097 234.786 75.8462C237.431 79.1827 239.497 83.3895 240.982 88.4668C242.468 93.544 243.211 99.546 243.211 106.473ZM225.817 106.473C225.817 100.997 225.473 96.5178 224.784 93.0363C224.096 89.5185 223.172 86.7623 222.012 84.7676C220.889 82.773 219.602 81.413 218.153 80.6877C216.703 79.9261 215.236 79.5453 213.75 79.5453C212.264 79.5453 210.797 79.9261 209.347 80.6877C207.934 81.413 206.666 82.773 205.542 84.7676C204.455 86.7623 203.568 89.5185 202.879 93.0363C202.227 96.5178 201.901 100.997 201.901 106.473C201.901 111.985 202.227 116.482 202.879 119.964C203.568 123.445 204.455 126.201 205.542 128.232C206.666 130.227 207.934 131.605 209.347 132.367C210.797 133.092 212.264 133.455 213.75 133.455C215.236 133.455 216.703 133.092 218.153 132.367C219.602 131.605 220.889 130.227 222.012 128.232C223.172 126.201 224.096 123.445 224.784 119.964C225.473 116.482 225.817 111.985 225.817 106.473Z" fill="#304762"/>
<path d="M283.171 115.34V94.6682C283.171 93.3989 283.207 92.0389 283.279 90.5883C283.388 89.1014 283.533 87.5601 283.714 85.9644L262.787 115.34H283.171ZM306 115.34V124.805C306 125.639 305.71 126.365 305.13 126.981C304.587 127.598 303.79 127.906 302.739 127.906H297.847V146.13H283.171V127.906H251.318C250.267 127.906 249.307 127.58 248.438 126.927C247.604 126.274 247.079 125.458 246.861 124.479L245.122 116.156L281.757 66.8704H297.847V115.34H306Z" fill="#304762"/>
<path fill-rule="evenodd" clip-rule="evenodd" d="M206.808 81.5038L212.02 86.7163L206.808 81.5038Z" fill="#DBE6FC"/>
<path fill-rule="evenodd" clip-rule="evenodd" d="M212.02 81.5038L206.808 86.7163L212.02 81.5038Z" fill="#DBE6FC"/>
<path fill-rule="evenodd" clip-rule="evenodd" d="M235.298 33.5948C234.146 33.5948 233.213 32.6148 233.213 31.4056V21.1892C233.213 19.98 234.146 19 235.298 19C236.449 19 237.383 19.98 237.383 21.1892V31.4056C237.383 32.6148 236.449 33.5948 235.298 33.5948Z" fill="#DBE6FC"/>
<path fill-rule="evenodd" clip-rule="evenodd" d="M240.406 28.3824H230.189C228.98 28.3824 228 27.449 228 26.2974C228 25.1458 228.98 24.2125 230.189 24.2125H240.406C241.615 24.2125 242.595 25.1458 242.595 26.2974C242.595 27.449 241.615 28.3824 240.406 28.3824Z" fill="#DBE6FC"/>
<path fill-rule="evenodd" clip-rule="evenodd" d="M401.298 171.595C400.146 171.595 399.213 170.615 399.213 169.406V159.189C399.213 157.98 400.146 157 401.298 157C402.449 157 403.383 157.98 403.383 159.189V169.406C403.383 170.615 402.449 171.595 401.298 171.595Z" fill="#DBE6FC"/>
<path fill-rule="evenodd" clip-rule="evenodd" d="M406.406 166.382H396.189C394.98 166.382 394 165.449 394 164.297C394 163.146 394.98 162.212 396.189 162.212H406.406C407.615 162.212 408.595 163.146 408.595 164.297C408.595 165.449 407.615 166.382 406.406 166.382Z" fill="#DBE6FC"/>
<path fill-rule="evenodd" clip-rule="evenodd" d="M357.085 25.085L364.382 32.3824L357.085 25.085Z" fill="#DBE6FC"/>
<path fill-rule="evenodd" clip-rule="evenodd" d="M364.304 34.4674C363.75 34.4674 363.197 34.2561 362.774 33.8334L355.634 26.6936C354.789 25.849 354.789 24.4786 355.634 23.634C356.479 22.7887 357.848 22.7887 358.693 23.634L365.833 30.7738C366.679 31.6184 366.679 32.9888 365.833 33.8334C365.411 34.2561 364.857 34.4674 364.304 34.4674Z" fill="#DBE6FC"/>
<path fill-rule="evenodd" clip-rule="evenodd" d="M364.382 25.085L357.085 32.3824L364.382 25.085Z" fill="#DBE6FC"/>
<path fill-rule="evenodd" clip-rule="evenodd" d="M357.164 34.4674C356.61 34.4674 356.057 34.2561 355.634 33.8334C354.789 32.9888 354.789 31.6184 355.634 30.7738L362.774 23.634C363.619 22.7887 364.988 22.7887 365.833 23.634C366.679 24.4786 366.679 25.849 365.833 26.6936L358.693 33.8334C358.271 34.2561 357.718 34.4674 357.164 34.4674Z" fill="#DBE6FC"/>
<path fill-rule="evenodd" clip-rule="evenodd" d="M2.08496 194.085L9.38238 201.382L2.08496 194.085Z" fill="#DBE6FC"/>
<path fill-rule="evenodd" clip-rule="evenodd" d="M9.30372 203.467C8.74983 203.467 8.19665 203.256 7.77402 202.833L0.633951 195.694C-0.211317 194.849 -0.211317 193.479 0.633951 192.634C1.47922 191.789 2.84809 191.789 3.69336 192.634L10.8334 199.774C11.6787 200.618 11.6787 201.989 10.8334 202.833C10.4108 203.256 9.8569 203.467 9.30372 203.467Z" fill="#DBE6FC"/>
<path fill-rule="evenodd" clip-rule="evenodd" d="M9.38238 194.085L2.08496 201.382L9.38238 194.085Z" fill="#DBE6FC"/>
<path fill-rule="evenodd" clip-rule="evenodd" d="M2.16366 203.467C1.61048 203.467 1.05659 203.256 0.633951 202.833C-0.211317 201.989 -0.211317 200.618 0.633951 199.774L7.77402 192.634C8.61857 191.789 9.98816 191.789 10.8334 192.634C11.6787 193.479 11.6787 194.849 10.8334 195.694L3.69336 202.833C3.27073 203.256 2.71755 203.467 2.16366 203.467Z" fill="#DBE6FC"/>
<path fill-rule="evenodd" clip-rule="evenodd" d="M381.091 59.0909L384.909 62.9091L381.091 59.0909Z" fill="#DBE6FC"/>
<path fill-rule="evenodd" clip-rule="evenodd" d="M384.868 64C384.578 64 384.289 63.8894 384.068 63.6683L380.332 59.9326C379.889 59.4907 379.889 58.7736 380.332 58.3317C380.774 57.8894 381.49 57.8894 381.932 58.3317L385.668 62.0674C386.111 62.5093 386.111 63.2264 385.668 63.6683C385.447 63.8894 385.157 64 384.868 64Z" fill="#DBE6FC"/>
<path fill-rule="evenodd" clip-rule="evenodd" d="M384.909 59.0909L381.091 62.9091L384.909 59.0909Z" fill="#DBE6FC"/>
<path fill-rule="evenodd" clip-rule="evenodd" d="M381.132 64C380.843 64 380.553 63.8894 380.332 63.6683C379.889 63.2264 379.889 62.5093 380.332 62.0674L384.068 58.3317C384.509 57.8894 385.226 57.8894 385.668 58.3317C386.111 58.7736 386.111 59.4907 385.668 59.9326L381.932 63.6683C381.711 63.8894 381.422 64 381.132 64Z" fill="#DBE6FC"/>
<path fill-rule="evenodd" clip-rule="evenodd" d="M192.043 11.0425L197.255 16.2549L192.043 11.0425Z" fill="#DBE6FC"/>
<path fill-rule="evenodd" clip-rule="evenodd" d="M196.921 17.2974C196.568 17.2974 196.216 17.1629 195.947 16.894L191.403 12.3505C190.866 11.813 190.866 10.9409 191.403 10.4034C191.941 9.86552 192.812 9.86552 193.35 10.4034L197.894 14.947C198.432 15.4844 198.432 16.3565 197.894 16.894C197.625 17.1629 197.273 17.2974 196.921 17.2974Z" fill="#DBE6FC"/>
<path fill-rule="evenodd" clip-rule="evenodd" d="M197.255 11.0425L192.043 16.2549L197.255 11.0425Z" fill="#DBE6FC"/>
<path fill-rule="evenodd" clip-rule="evenodd" d="M192.377 17.2974C192.025 17.2974 191.672 17.1629 191.403 16.894C190.866 16.3565 190.866 15.4844 191.403 14.947L195.947 10.4034C196.485 9.86552 197.356 9.86552 197.894 10.4034C198.432 10.9409 198.432 11.813 197.894 12.3505L193.35 16.894C193.081 17.1629 192.729 17.2974 192.377 17.2974Z" fill="#DBE6FC"/>
<path fill-rule="evenodd" clip-rule="evenodd" d="M222.444 130.501L227.657 135.713L222.444 130.501Z" fill="#DBE6FC"/>
<path fill-rule="evenodd" clip-rule="evenodd" d="M227.657 130.501L222.444 135.713L227.657 130.501Z" fill="#DBE6FC"/>
<path fill-rule="evenodd" clip-rule="evenodd" d="M369.042 134.042L374.254 139.255L369.042 134.042Z" fill="#DBE6FC"/>
<path fill-rule="evenodd" clip-rule="evenodd" d="M373.921 140.297C373.568 140.297 373.216 140.163 372.947 139.894L368.403 135.35C367.866 134.813 367.866 133.941 368.403 133.403C368.941 132.866 369.812 132.866 370.35 133.403L374.894 137.947C375.432 138.484 375.432 139.357 374.894 139.894C374.625 140.163 374.273 140.297 373.921 140.297Z" fill="#DBE6FC"/>
<path fill-rule="evenodd" clip-rule="evenodd" d="M374.254 134.042L369.042 139.255L374.254 134.042Z" fill="#DBE6FC"/>
<path fill-rule="evenodd" clip-rule="evenodd" d="M369.377 140.297C369.025 140.297 368.672 140.163 368.403 139.894C367.866 139.357 367.866 138.484 368.403 137.947L372.947 133.403C373.485 132.866 374.356 132.866 374.894 133.403C375.432 133.941 375.432 134.813 374.894 135.35L370.35 139.894C370.081 140.163 369.729 140.297 369.377 140.297Z" fill="#DBE6FC"/>
<path fill-rule="evenodd" clip-rule="evenodd" d="M314.043 29.0425L319.255 34.2549L314.043 29.0425Z" fill="#DBE6FC"/>
<path fill-rule="evenodd" clip-rule="evenodd" d="M318.921 35.2974C318.568 35.2974 318.216 35.1629 317.947 34.894L313.403 30.3505C312.866 29.813 312.866 28.9409 313.403 28.4034C313.941 27.8655 314.812 27.8655 315.35 28.4034L319.894 32.947C320.432 33.4844 320.432 34.3565 319.894 34.894C319.625 35.1629 319.273 35.2974 318.921 35.2974Z" fill="#DBE6FC"/>
<path fill-rule="evenodd" clip-rule="evenodd" d="M319.255 29.0425L314.043 34.2549L319.255 29.0425Z" fill="#DBE6FC"/>
<path fill-rule="evenodd" clip-rule="evenodd" d="M314.377 35.2974C314.025 35.2974 313.672 35.1629 313.403 34.894C312.866 34.3565 312.866 33.4844 313.403 32.947L317.947 28.4034C318.485 27.8655 319.356 27.8655 319.894 28.4034C320.432 28.9409 320.432 29.813 319.894 30.3505L315.35 34.894C315.081 35.1629 314.729 35.2974 314.377 35.2974Z" fill="#DBE6FC"/>
<mask id="mask0" mask-type="alpha" maskUnits="userSpaceOnUse" x="349" y="75" width="15" height="15">
<path fill-rule="evenodd" clip-rule="evenodd" d="M349 75H363.553V89.5443H349V75Z" fill="white"/>
</mask>
<g mask="url(#mask0)">
<path d="M355.893 85.7169C355.258 85.7169 354.744 85.2029 354.744 84.5687V83.0377C354.744 82.4035 355.258 81.8895 355.893 81.8895C356.124 81.8872 358.191 81.5067 358.191 79.9757C358.191 79.2103 357.425 78.4448 356.276 78.4448C355.341 78.4448 354.744 79.2103 354.744 79.593C354.744 80.2272 354.23 80.7412 353.595 80.7412C352.961 80.7412 352.446 80.2272 352.446 79.593C352.446 77.726 354.2 76.1483 356.276 76.1483C359.34 76.1483 360.489 78.4379 360.489 80.3585C360.489 81.945 359.617 83.1575 358.033 83.773C357.688 83.9069 357.347 83.9976 357.042 84.0589V84.5687C357.042 85.2029 356.528 85.7169 355.893 85.7169Z" fill="#304762"/>
<path d="M357.039 87.6306C357.039 88.2648 356.525 88.7788 355.89 88.7788C355.256 88.7788 354.741 88.2648 354.741 87.6306C354.741 86.9964 355.256 86.4823 355.89 86.4823C356.525 86.4823 357.039 86.9964 357.039 87.6306Z" fill="#304762"/>
</g>
<mask id="mask1" mask-type="alpha" maskUnits="userSpaceOnUse" x="418" y="192" width="15" height="15">
<path fill-rule="evenodd" clip-rule="evenodd" d="M418 192H432.553V206.544H418V192Z" fill="white"/>
</mask>
<g mask="url(#mask1)">
<path d="M424.893 202.717C424.258 202.717 423.744 202.203 423.744 201.569V200.038C423.744 199.403 424.258 198.889 424.893 198.889C425.124 198.887 427.191 198.507 427.191 196.976C427.191 196.21 426.425 195.445 425.276 195.445C424.341 195.445 423.744 196.21 423.744 196.593C423.744 197.227 423.23 197.741 422.595 197.741C421.961 197.741 421.446 197.227 421.446 196.593C421.446 194.726 423.2 193.148 425.276 193.148C428.34 193.148 429.489 195.438 429.489 197.358C429.489 198.945 428.617 200.157 427.033 200.773C426.688 200.907 426.347 200.998 426.042 201.059V201.569C426.042 202.203 425.528 202.717 424.893 202.717Z" fill="#DBE6FC"/>
<path d="M426.039 204.631C426.039 205.265 425.525 205.779 424.89 205.779C424.256 205.779 423.741 205.265 423.741 204.631C423.741 203.996 424.256 203.482 424.89 203.482C425.525 203.482 426.039 203.996 426.039 204.631Z" fill="#DBE6FC"/>
</g>
<mask id="mask2" mask-type="alpha" maskUnits="userSpaceOnUse" x="275" y="2" width="15" height="15">
<path fill-rule="evenodd" clip-rule="evenodd" d="M275 1.99998L289.553 1.99998V16.5443L275 16.5443V1.99998Z" fill="white"/>
</mask>
<g mask="url(#mask2)">
<path d="M281.893 12.7168C281.258 12.7168 280.744 12.2028 280.744 11.5686V10.0376C280.744 9.40338 281.258 8.88935 281.893 8.88935C282.124 8.88705 284.191 8.5066 284.191 6.97563C284.191 6.21014 283.425 5.44465 282.276 5.44465C281.341 5.44465 280.744 6.21014 280.744 6.59288C280.744 7.22709 280.23 7.74112 279.595 7.74112C278.961 7.74112 278.446 7.22709 278.446 6.59288C278.446 4.72585 280.2 3.14818 282.276 3.14818C285.34 3.14818 286.489 5.43776 286.489 7.35837C286.489 8.94485 285.617 10.1574 284.033 10.7728C283.688 10.9068 283.347 10.9975 283.042 11.0587V11.5686C283.042 12.2028 282.528 12.7168 281.893 12.7168Z" fill="#DBE6FC"/>
<path d="M283.04 14.6307C283.04 15.2649 282.526 15.779 281.891 15.779C281.257 15.779 280.742 15.2649 280.742 14.6307C280.742 13.9965 281.257 13.4825 281.891 13.4825C282.526 13.4825 283.04 13.9965 283.04 14.6307Z" fill="#DBE6FC"/>
</g>
<path fill-rule="evenodd" clip-rule="evenodd" d="M66.6121 124.382C66.1589 124.382 65.7064 124.209 65.3606 123.864L59.5187 118.022C58.8271 117.331 58.8271 116.21 59.5187 115.519C60.2103 114.827 61.3303 114.827 62.0218 115.519L67.8637 121.36C68.5553 122.051 68.5553 123.173 67.8637 123.864C67.5179 124.209 67.0647 124.382 66.6121 124.382Z" fill="#DBE6FC"/>
<path fill-rule="evenodd" clip-rule="evenodd" d="M60.7703 124.382C60.3177 124.382 59.8645 124.209 59.5187 123.864C58.8271 123.173 58.8271 122.051 59.5187 121.36L65.3606 115.519C66.0516 114.827 67.1721 114.827 67.8637 115.519C68.5553 116.21 68.5553 117.331 67.8637 118.022L62.0218 123.864C61.676 124.209 61.2235 124.382 60.7703 124.382Z" fill="#DBE6FC"/>
<path fill-rule="evenodd" clip-rule="evenodd" d="M89.2979 29.5948C88.1463 29.5948 87.2129 28.6148 87.2129 27.4056V17.1892C87.2129 15.98 88.1463 15 89.2979 15C90.4495 15 91.3828 15.98 91.3828 17.1892V27.4056C91.3828 28.6148 90.4495 29.5948 89.2979 29.5948Z" fill="#DBE6FC"/>
<path fill-rule="evenodd" clip-rule="evenodd" d="M94.4056 24.3824H84.1892C82.98 24.3824 82 23.449 82 22.2974C82 21.1458 82.98 20.2124 84.1892 20.2124H94.4056C95.6148 20.2124 96.5948 21.1458 96.5948 22.2974C96.5948 23.449 95.6148 24.3824 94.4056 24.3824Z" fill="#DBE6FC"/>
<path fill-rule="evenodd" clip-rule="evenodd" d="M23.8181 101.637C22.3786 101.637 21.2119 100.587 21.2119 99.2917V88.3456C21.2119 87.05 22.3786 86 23.8181 86C25.2576 86 26.4244 87.05 26.4244 88.3456V99.2917C26.4244 100.587 25.2576 101.637 23.8181 101.637Z" fill="#DBE6FC"/>
<path fill-rule="evenodd" clip-rule="evenodd" d="M29.2917 96.4249H18.3456C17.05 96.4249 16 95.2582 16 93.8187C16 92.3792 17.05 91.2124 18.3456 91.2124H29.2917C30.5873 91.2124 31.6373 92.3792 31.6373 93.8187C31.6373 95.2582 30.5873 96.4249 29.2917 96.4249Z" fill="#DBE6FC"/>
<path fill-rule="evenodd" clip-rule="evenodd" d="M49.9206 180.297C49.5681 180.297 49.2161 180.163 48.9471 179.894L44.4034 175.35C43.8655 174.813 43.8655 173.941 44.4034 173.403C44.9413 172.866 45.8124 172.866 46.3503 173.403L50.894 177.947C51.4319 178.484 51.4319 179.357 50.894 179.894C50.6251 180.163 50.2726 180.297 49.9206 180.297Z" fill="#DBE6FC"/>
<path fill-rule="evenodd" clip-rule="evenodd" d="M45.3769 180.297C45.0249 180.297 44.6724 180.163 44.4034 179.894C43.8655 179.357 43.8655 178.484 44.4034 177.947L48.9471 173.403C49.4845 172.866 50.3561 172.866 50.894 173.403C51.4319 173.941 51.4319 174.813 50.894 175.35L46.3503 179.894C46.0814 180.163 45.7294 180.297 45.3769 180.297Z" fill="#DBE6FC"/>
<mask id="mask3" mask-type="alpha" maskUnits="userSpaceOnUse" x="86" y="61" width="23" height="23">
<path fill-rule="evenodd" clip-rule="evenodd" d="M86 61H108.998V83.9853H86V61Z" fill="white"/>
</mask>
<g mask="url(#mask3)">
<path d="M96.8943 77.9365C95.8914 77.9365 95.0786 77.1241 95.0786 76.1219V73.7024C95.0786 72.7001 95.8914 71.8877 96.8943 71.8877C97.2592 71.8841 100.526 71.2829 100.526 68.8633C100.526 67.6536 99.3152 66.4438 97.4995 66.4438C96.0221 66.4438 95.0786 67.6536 95.0786 68.2585C95.0786 69.2607 94.2658 70.0731 93.2629 70.0731C92.2601 70.0731 91.4473 69.2607 91.4473 68.2585C91.4473 65.3079 94.2192 62.8146 97.4995 62.8146C102.341 62.8146 104.157 66.433 104.157 69.4682C104.157 71.9754 102.779 73.8917 100.276 74.8643C99.731 75.076 99.1923 75.2194 98.7099 75.3162V76.1219C98.7099 77.1241 97.8971 77.9365 96.8943 77.9365Z" fill="#DBE6FC"/>
<path d="M98.7085 80.9609C98.7085 81.9632 97.8957 82.7756 96.8928 82.7756C95.89 82.7756 95.0771 81.9632 95.0771 80.9609C95.0771 79.9587 95.89 79.1463 96.8928 79.1463C97.8957 79.1463 98.7085 79.9587 98.7085 80.9609Z" fill="#DBE6FC"/>
</g>
<mask id="mask4" mask-type="alpha" maskUnits="userSpaceOnUse" x="133" y="0" width="29" height="29">
<path fill-rule="evenodd" clip-rule="evenodd" d="M133 1.33514e-05L161.974 1.33514e-05V28.9569L133 28.9569V1.33514e-05Z" fill="white"/>
</mask>
<g mask="url(#mask4)">
<path d="M146.723 21.3367C145.46 21.3367 144.436 20.3133 144.436 19.0506V16.0025C144.436 14.7398 145.46 13.7164 146.723 13.7164C147.183 13.7119 151.298 12.9544 151.298 9.90631C151.298 8.38226 149.773 6.85821 147.486 6.85821C145.625 6.85821 144.436 8.38226 144.436 9.14428C144.436 10.407 143.412 11.4304 142.149 11.4304C140.885 11.4304 139.861 10.407 139.861 9.14428C139.861 5.42713 143.353 2.28606 147.486 2.28606C153.586 2.28606 155.873 6.84449 155.873 10.6683C155.873 13.8269 154.137 16.241 150.983 17.4663C150.297 17.7331 149.619 17.9137 149.011 18.0356V19.0506C149.011 20.3133 147.987 21.3367 146.723 21.3367Z" fill="#304762"/>
<path d="M149.011 25.1467C149.011 26.4094 147.987 27.4328 146.724 27.4328C145.461 27.4328 144.437 26.4094 144.437 25.1467C144.437 23.884 145.461 22.8606 146.724 22.8606C147.987 22.8606 149.011 23.884 149.011 25.1467Z" fill="#304762"/>
</g>
<mask id="mask5" mask-type="alpha" maskUnits="userSpaceOnUse" x="43" y="48" width="17" height="17">
<path fill-rule="evenodd" clip-rule="evenodd" d="M43 48H59.3274V64.318H43V48Z" fill="white"/>
</mask>
<g mask="url(#mask5)">
<path d="M50.7332 60.024C50.0213 60.024 49.4442 59.4473 49.4442 58.7358V57.0181C49.4442 56.3065 50.0213 55.7298 50.7332 55.7298C50.9923 55.7272 53.3112 55.3004 53.3112 53.5827C53.3112 52.7238 52.4519 51.865 51.1629 51.865C50.1141 51.865 49.4442 52.7238 49.4442 53.1533C49.4442 53.8648 48.8672 54.4415 48.1552 54.4415C47.4433 54.4415 46.8662 53.8648 46.8662 53.1533C46.8662 51.0585 48.8341 49.2885 51.1629 49.2885C54.6002 49.2885 55.8892 51.8573 55.8892 54.0121C55.8892 55.7921 54.9109 57.1525 53.1338 57.843C52.7471 57.9933 52.3647 58.0951 52.0222 58.1638V58.7358C52.0222 59.4473 51.4452 60.024 50.7332 60.024Z" fill="#304762"/>
<path d="M52.0223 62.1712C52.0223 62.8827 51.4453 63.4594 50.7333 63.4594C50.0214 63.4594 49.4443 62.8827 49.4443 62.1712C49.4443 61.4596 50.0214 60.8829 50.7333 60.8829C51.4453 60.8829 52.0223 61.4596 52.0223 62.1712Z" fill="#304762"/>
</g>
<mask id="mask6" mask-type="alpha" maskUnits="userSpaceOnUse" x="11" y="144" width="15" height="15">
<path fill-rule="evenodd" clip-rule="evenodd" d="M11 144H25.9652V158.957H11L11 144Z" fill="white"/>
</mask>
<g mask="url(#mask6)">
<path d="M18.0874 155.021C17.4348 155.021 16.9059 154.492 16.9059 153.84V152.265C16.9059 151.613 17.4348 151.085 18.0874 151.085C18.3248 151.082 20.4503 150.691 20.4503 149.117C20.4503 148.329 19.6626 147.542 18.4812 147.542C17.5199 147.542 16.9059 148.329 16.9059 148.723C16.9059 149.375 16.377 149.904 15.7244 149.904C15.0719 149.904 14.543 149.375 14.543 148.723C14.543 146.803 16.3467 145.181 18.4812 145.181C21.6317 145.181 22.8132 147.535 22.8132 149.51C22.8132 151.142 21.9165 152.389 20.2876 153.021C19.9332 153.159 19.5827 153.253 19.2688 153.315V153.84C19.2688 154.492 18.7399 155.021 18.0874 155.021Z" fill="#DBE6FC"/>
<path d="M19.2672 156.989C19.2672 157.641 18.7383 158.169 18.0858 158.169C17.4332 158.169 16.9043 157.641 16.9043 156.989C16.9043 156.336 17.4332 155.808 18.0858 155.808C18.7383 155.808 19.2672 156.336 19.2672 156.989Z" fill="#DBE6FC"/>
</g>
<mask id="mask7" mask-type="alpha" maskUnits="userSpaceOnUse" x="388" y="95" width="23" height="23">
<path fill-rule="evenodd" clip-rule="evenodd" d="M388 95H410.998V117.985H388V95Z" fill="white"/>
</mask>
<g mask="url(#mask7)">
<path d="M398.893 111.936C397.89 111.936 397.078 111.124 397.078 110.122V107.702C397.078 106.7 397.89 105.888 398.893 105.888C399.258 105.884 402.525 105.283 402.525 102.863C402.525 101.654 401.314 100.444 399.499 100.444C398.021 100.444 397.078 101.654 397.078 102.258C397.078 103.261 396.265 104.073 395.262 104.073C394.259 104.073 393.446 103.261 393.446 102.258C393.446 99.3079 396.218 96.8146 399.499 96.8146C404.34 96.8146 406.156 100.433 406.156 103.468C406.156 105.975 404.778 107.892 402.275 108.864C401.73 109.076 401.191 109.219 400.709 109.316V110.122C400.709 111.124 399.896 111.936 398.893 111.936Z" fill="#304762"/>
<path d="M400.708 114.961C400.708 115.963 399.895 116.776 398.892 116.776C397.889 116.776 397.076 115.963 397.076 114.961C397.076 113.959 397.889 113.146 398.892 113.146C399.895 113.146 400.708 113.959 400.708 114.961Z" fill="#304762"/>
</g>
<path d="M182.525 218.397C185.974 218.083 189.422 218.083 192.765 217.979L203.006 217.874L223.59 217.77H244.175H254.415C257.863 217.77 261.311 217.77 264.655 218.083C265.177 218.083 265.491 218.606 265.491 219.128C265.491 219.546 265.073 219.964 264.655 219.964C261.207 220.278 257.759 220.278 254.415 220.278H244.175H223.59L203.006 220.173L192.765 220.069C189.317 220.069 185.869 220.069 182.525 219.651C182.107 219.651 181.898 219.233 181.898 218.919C181.898 218.71 182.212 218.397 182.525 218.397Z" fill="#304762"/>
<path d="M148.774 218.292C152.327 218.083 155.775 218.083 159.328 217.979C162.881 217.979 166.329 217.979 169.882 218.188C170.3 218.188 170.717 218.606 170.717 219.128C170.717 219.546 170.3 219.86 169.882 219.964C166.329 220.173 162.881 220.173 159.328 220.173C155.775 220.173 152.327 220.069 148.774 219.86C148.356 219.86 148.043 219.442 148.043 219.024C148.043 218.606 148.356 218.397 148.774 218.292Z" fill="#304762"/>
<path d="M329.021 170.226C329.125 170.331 329.125 170.226 329.021 170.226V170.226Z" fill="white"/>
<path d="M368.205 207.007L367.055 206.589L364.965 205.858L347.306 189.453L347.515 192.587C346.366 187.049 342.709 181.825 339.261 182.034V181.929C339.261 175.869 334.872 170.749 329.125 169.599L329.334 169.181C329.439 169.077 329.439 168.868 329.543 168.764L331.842 161.972C332.155 160.195 332.364 158.314 332.364 156.329C332.364 149.537 329.961 143.268 325.99 138.357L322.229 134.595C317.318 130.415 310.839 127.908 303.943 127.908C296.21 127.908 289.21 131.042 284.09 135.953C282.836 135.535 281.477 135.222 280.223 134.804C278.447 133.446 276.253 132.505 273.85 132.505C272.805 122.788 264.55 115.264 254.519 115.264C243.756 115.264 235.083 123.937 235.083 134.7C235.083 136.267 235.292 137.73 235.606 139.193C235.292 139.297 234.979 139.402 234.77 139.506C232.889 138.67 230.695 138.148 228.501 138.148C223.276 138.148 217.115 142.662 214.398 146.737C213.667 146.946 211.025 145.528 210.398 145.737L147.664 162.109L84.9303 178.481C84.4079 178.795 83.9899 179.108 83.4675 179.526C77.616 180.466 72.287 182.974 67.8984 186.631L81.4821 180.884C80.2283 181.616 78.9744 182.452 77.7205 183.079C76.3621 183.81 70.4062 185.587 69.8837 186.736C68.5253 189.766 70.4062 193.528 73.2274 195.409C73.6454 195.722 73.6454 196.036 73.3319 196.454L62.1514 204.516V207.112H367.055H368.205V207.007Z" fill="white"/>
<path d="M333.305 171.898C331.842 171.271 330.275 170.853 328.603 170.749C325.573 170.644 322.647 171.48 319.617 171.167C316.9 170.853 314.497 169.495 311.884 168.868C305.824 167.51 299.137 170.749 296.42 176.287C295.375 178.377 294.748 180.885 292.658 182.034C290.986 182.974 289.106 182.661 287.225 182.974C282.627 183.81 279.806 188.408 277.925 192.692C277.716 193.214 278.865 192.17 278.552 192.796C278.97 184.646 283.567 179.631 291.509 178.481C292.972 170.644 299.868 164.688 308.123 164.688C311.989 164.688 315.542 165.942 318.363 168.137C319.93 167.405 321.602 166.987 323.483 166.987C327.663 166.987 331.111 168.868 333.305 171.898Z" fill="#DBE6FC"/>
<path d="M313.347 177.854C313.66 176.287 314.392 174.824 315.436 173.57C316.481 172.316 317.735 171.271 319.094 170.54C321.915 168.868 325.259 168.346 328.393 168.868C331.633 169.391 334.558 171.167 336.648 173.675C338.738 176.183 339.887 179.422 339.887 182.661L338.633 181.198C340.514 181.512 342.291 182.347 343.858 183.497C345.321 184.646 346.575 186.318 347.306 188.094C348.038 189.871 348.351 191.856 348.142 193.737C347.933 195.618 347.202 197.499 346.157 199.066L345.007 196.767C348.978 197.081 352.844 197.081 356.815 197.185C360.785 197.29 364.652 197.394 368.622 197.394C369.145 197.394 369.458 197.812 369.458 198.335C369.458 198.857 369.04 199.17 368.622 199.17C364.652 199.17 360.785 199.275 356.815 199.379C352.844 199.484 348.978 199.484 345.007 199.797C344.276 199.902 343.544 199.275 343.544 198.544C343.544 198.23 343.649 197.917 343.753 197.708L343.858 197.603C344.694 196.454 345.216 195.095 345.321 193.632C345.425 192.17 345.321 190.707 344.694 189.453C344.171 188.094 343.231 186.945 342.186 186.109C341.037 185.169 339.678 184.646 338.32 184.333C337.588 184.228 337.066 183.601 337.066 182.87C337.066 180.258 336.126 177.75 334.454 175.765C332.782 173.779 330.483 172.421 327.975 171.898C325.468 171.376 322.751 171.794 320.452 173.048C319.303 173.675 318.258 174.511 317.422 175.451C316.586 176.391 315.75 177.541 315.019 178.69C314.81 179.108 314.287 179.108 313.869 178.899C313.451 178.481 313.347 178.063 313.347 177.854Z" fill="#304762"/>
<path fill-rule="evenodd" clip-rule="evenodd" d="M309.377 169.704C301.771 169.704 295.397 175.507 294.636 183.017C294.555 183.821 293.837 184.407 293.033 184.325C292.23 184.244 291.644 183.526 291.725 182.723C292.637 173.723 300.264 166.778 309.377 166.778C313.342 166.778 316.999 168.026 319.875 170.211C320.518 170.7 320.643 171.618 320.155 172.261C319.666 172.904 318.748 173.029 318.105 172.541C315.756 170.756 312.726 169.704 309.377 169.704Z" fill="#304762"/>
<path d="M295.166 193.946C294.33 193.006 293.703 191.961 293.181 190.811C292.763 189.662 292.345 188.513 292.345 187.259C292.345 186.736 292.763 186.318 293.285 186.318C293.703 186.318 294.121 186.632 294.226 186.945C294.539 187.99 294.748 189.035 295.166 190.08C295.479 191.125 295.897 192.065 296.315 193.11C296.42 193.424 296.315 193.842 295.897 194.051C295.584 194.26 295.375 194.155 295.166 193.946Z" fill="#304762"/>
<path d="M285.448 182.243C286.075 181.825 286.702 181.616 287.329 181.407C287.955 181.198 288.687 181.093 289.418 180.989C290.15 180.884 290.881 180.989 291.508 180.989C292.24 181.093 292.867 181.302 293.598 181.616C294.329 181.929 294.643 182.87 294.329 183.601C294.016 184.228 293.389 184.541 292.658 184.437C292.135 184.333 291.613 184.228 291.09 184.124C290.568 184.019 290.045 183.915 289.523 183.915C289 183.81 288.478 183.915 287.851 183.915C287.329 183.915 286.702 184.019 286.179 184.019C285.657 184.124 285.239 183.706 285.134 183.183C285.03 182.765 285.239 182.347 285.448 182.243Z" fill="#304762"/>
<path d="M278.76 195.826C278.029 194.99 277.715 194.05 277.611 193.005C277.506 191.96 277.715 190.915 277.924 189.975C278.238 189.034 278.656 188.094 279.178 187.258C279.805 186.422 280.432 185.691 281.268 185.168C281.686 184.959 282.208 185.064 282.417 185.377C282.626 185.586 282.626 185.9 282.417 186.213C281.999 186.945 281.686 187.676 281.372 188.407C281.059 189.139 280.85 189.87 280.746 190.602C280.537 191.333 280.537 192.065 280.432 192.901C280.328 193.632 280.223 194.468 280.014 195.408C279.91 195.826 279.492 196.035 279.074 195.931C278.969 196.035 278.865 195.931 278.76 195.826Z" fill="#304762"/>
<path d="M250.862 176.496C250.862 176.496 241.771 176.809 232.262 177.018C232.053 176.496 229.65 176.914 229.337 176.391C227.874 173.779 229.964 168.659 228.501 165.942C227.038 163.225 223.903 162.18 222.44 159.464C220.664 156.433 218.783 153.403 215.962 151.418C212.514 148.91 206.767 149.433 202.483 148.91C196.736 148.179 191.824 146.298 186.391 148.492C182.42 150.059 179.181 153.09 177.3 156.956C176.36 158.837 175.419 161.24 173.33 161.658C171.449 162.076 169.568 160.508 168.732 158.732C167.896 156.956 167.478 155.911 166.747 154.03C164.448 147.761 157.029 143.999 150.342 144.417C146.998 144.626 143.759 145.357 140.52 146.089C143.654 143.163 147.938 141.387 152.64 141.387C162.149 141.387 169.881 148.806 170.404 158.105C171.344 158.001 172.285 157.896 173.225 157.896C173.852 157.896 174.479 157.896 175.106 158.001C176.36 149.433 183.779 142.85 192.765 142.85C196.945 142.85 200.706 144.312 203.736 146.611C205.408 145.88 207.185 145.462 209.17 145.462C216.275 145.462 222.127 150.895 222.754 157.896C227.874 159.882 231.531 164.793 231.531 170.644C231.531 171.794 231.426 172.838 231.113 173.988L250.862 176.496Z" fill="#DBE6FC"/>
<path fill-rule="evenodd" clip-rule="evenodd" d="M224.112 203.35C224.112 202.542 224.767 201.887 225.575 201.887H233.83C234.638 201.887 235.293 202.542 235.293 203.35C235.293 204.158 234.638 204.812 233.83 204.812H225.575C224.767 204.812 224.112 204.158 224.112 203.35Z" fill="#304762"/>
<path d="M282.105 198.648C283.15 199.692 284.299 200.424 285.657 201.051C286.911 201.573 288.27 201.887 289.733 201.887C290.568 201.887 291.195 202.618 291.195 203.35C291.195 204.186 290.568 204.813 289.733 204.813H234.039C233.203 204.813 232.576 204.186 232.576 203.35C232.576 202.514 233.203 201.887 234.039 201.887H289.628V204.813C285.971 204.813 282.314 202.932 280.537 199.901C280.224 199.379 280.433 198.857 280.851 198.543C281.269 198.334 281.687 198.334 282.105 198.648Z" fill="#304762"/>
<path d="M175.105 167.928C175.105 167.719 175.105 167.51 175.21 167.301C175.314 167.092 175.314 166.883 175.523 166.674C175.941 166.151 176.568 166.047 177.091 166.36H177.195C177.404 166.465 177.613 166.674 177.718 166.778C177.822 166.883 177.927 167.092 178.031 167.196C178.345 167.928 177.927 168.868 177.195 169.077C176.464 169.39 175.523 168.973 175.314 168.241C175.21 168.241 175.105 168.032 175.105 167.928Z" fill="#717791"/>
<path fill-rule="evenodd" clip-rule="evenodd" d="M172.702 163.226C171.668 163.226 170.484 163.49 169.441 163.869C168.681 164.145 167.842 163.753 167.566 162.994C167.29 162.235 167.682 161.395 168.441 161.119C169.697 160.663 171.229 160.3 172.702 160.3C174.13 160.3 175.448 160.54 176.755 161.015C177.514 161.291 177.906 162.13 177.63 162.89C177.354 163.649 176.515 164.04 175.755 163.764C174.763 163.404 173.783 163.226 172.702 163.226Z" fill="#304762"/>
<path d="M67.4805 186.004C68.4209 184.751 69.6748 183.81 70.9287 182.974C72.2871 182.138 73.6454 181.407 75.1083 180.78C76.5712 180.153 78.0341 179.631 79.4969 179.213C80.9598 178.795 82.5271 178.586 84.0945 178.377C84.9304 178.272 85.6618 178.899 85.6618 179.735C85.7663 180.466 85.1394 181.198 84.4079 181.302C82.9451 181.511 81.5867 181.825 80.2283 182.138C78.8699 182.452 77.5116 182.974 76.1532 183.392C74.7948 183.915 73.541 184.437 72.1826 185.169C70.9287 185.795 69.6748 186.527 68.2119 187.049C67.8984 187.154 67.4805 187.049 67.376 186.631C67.376 186.422 67.376 186.213 67.4805 186.004Z" fill="#304762"/>
<path d="M200.898 149.737C197.298 146.937 191.065 147.571 188.398 148.237L184.398 158.237L196.398 183.237L218.898 179.737C218.565 170.904 217.498 152.837 215.898 151.237C214.298 149.637 208.565 149.571 205.898 149.737C205.732 150.904 204.498 152.537 200.898 149.737Z" fill="white"/>
<path d="M196.422 157.269C196.944 154.135 199.243 151.313 202.064 149.746C204.885 148.074 208.334 147.552 211.573 148.074C214.812 148.701 217.842 150.477 219.932 152.985C222.022 155.493 223.171 158.837 223.067 162.076L221.813 160.613C223.694 160.927 225.47 161.762 227.037 162.912C228.5 164.061 229.754 165.733 230.486 167.509C231.217 169.286 231.531 171.271 231.322 173.152C231.113 175.033 230.381 176.914 229.336 178.481L228.187 176.182C232.158 176.287 236.024 176.391 239.994 176.496L251.802 176.914C252.22 176.914 252.533 177.227 252.533 177.645C252.533 178.063 252.22 178.376 251.802 178.376L239.994 178.794C236.024 178.899 232.158 179.003 228.187 179.108C227.351 179.108 226.724 178.481 226.724 177.75C226.724 177.436 226.829 177.123 226.933 176.914V176.809C227.769 175.66 228.291 174.301 228.396 172.838C228.5 171.376 228.396 169.913 227.769 168.659C227.246 167.3 226.306 166.151 225.261 165.315C224.112 164.375 222.753 163.852 221.395 163.539C220.664 163.434 220.246 162.807 220.141 162.076C220.037 159.464 219.096 156.956 217.529 155.075C215.857 153.09 213.558 151.731 211.05 151.313C208.543 150.791 205.826 151.209 203.632 152.463C202.482 153.09 201.542 153.926 200.601 154.866C199.661 155.807 198.93 156.851 198.094 158.001C197.78 158.419 197.258 158.523 196.84 158.21C196.526 157.896 196.317 157.583 196.422 157.269Z" fill="#304762"/>
<path fill-rule="evenodd" clip-rule="evenodd" d="M192.451 149.119C184.845 149.119 178.471 154.922 177.71 162.432C177.629 163.236 176.911 163.822 176.108 163.74C175.304 163.659 174.718 162.941 174.8 162.138C175.711 153.138 183.339 146.193 192.451 146.193C196.442 146.193 200.202 147.561 203.165 149.84C203.805 150.333 203.925 151.251 203.433 151.892C202.94 152.532 202.022 152.652 201.381 152.159C198.911 150.259 195.774 149.119 192.451 149.119Z" fill="#304762"/>
<path d="M62.3606 190.184C62.3606 189.975 62.4651 189.87 62.5696 189.766C62.6741 189.662 62.7786 189.557 62.8831 189.453C63.0921 189.244 63.4056 189.139 63.8235 189.035C64.4505 188.93 64.9729 189.348 65.1819 189.975C65.1819 190.079 65.1819 190.184 65.1819 190.288V190.393C65.1819 190.811 64.9729 191.02 64.8684 191.333C64.7639 191.438 64.7639 191.542 64.6594 191.647C64.555 191.751 64.4504 191.856 64.2415 191.856H64.137C63.4056 192.065 62.6741 191.542 62.4651 190.811C62.2561 190.497 62.2561 190.393 62.3606 190.184Z" fill="#304762"/>
<path fill-rule="evenodd" clip-rule="evenodd" d="M238.333 143.487C238.904 142.916 239.83 142.916 240.402 143.487C240.582 143.667 240.692 143.854 240.746 143.956C241.178 144.529 241.133 145.347 240.611 145.869C240.039 146.441 239.113 146.441 238.542 145.869C238.361 145.689 238.252 145.503 238.198 145.401C237.766 144.827 237.811 144.009 238.333 143.487Z" fill="#304762"/>
<path fill-rule="evenodd" clip-rule="evenodd" d="M227.664 140.446C221.817 140.446 216.822 144.121 214.936 149.402C214.664 150.163 213.827 150.559 213.066 150.288C212.305 150.016 211.909 149.179 212.18 148.418C214.474 141.996 220.555 137.521 227.664 137.521C231.218 137.521 234.553 138.667 237.206 140.628C237.856 141.108 237.994 142.024 237.513 142.674C237.033 143.324 236.117 143.461 235.467 142.981C233.315 141.39 230.589 140.446 227.664 140.446Z" fill="#304762"/>
<path fill-rule="evenodd" clip-rule="evenodd" d="M253.787 117.459C243.832 117.459 235.814 125.477 235.814 135.431C235.814 137.214 236.014 138.939 236.479 140.429C236.72 141.2 236.29 142.02 235.519 142.261C234.748 142.502 233.928 142.072 233.687 141.301C233.107 139.447 232.889 137.41 232.889 135.431C232.889 123.861 242.216 114.533 253.787 114.533C264.468 114.533 273.335 122.624 274.57 133.065C274.665 133.868 274.092 134.595 273.289 134.69C272.487 134.785 271.76 134.211 271.665 133.409C270.601 124.414 262.959 117.459 253.787 117.459Z" fill="#304762"/>
<path fill-rule="evenodd" clip-rule="evenodd" d="M271.551 133.236C271.551 132.428 272.206 131.773 273.014 131.773C276.963 131.773 280.555 133.805 282.597 136.929C283.039 137.605 282.85 138.512 282.173 138.954C281.497 139.396 280.591 139.206 280.149 138.53C278.638 136.22 275.96 134.699 273.014 134.699C272.206 134.699 271.551 134.044 271.551 133.236Z" fill="#304762"/>
<path d="M278.133 141.491C278.969 139.506 280.223 137.729 281.686 136.266C283.149 134.699 284.821 133.341 286.597 132.191C290.15 129.893 294.225 128.325 298.404 127.698C302.584 127.071 306.868 127.385 310.943 128.639C315.018 129.893 318.78 131.878 321.706 134.908C321.915 135.117 321.915 135.535 321.706 135.744C321.497 135.953 321.183 135.953 320.974 135.849C319.302 134.699 317.631 133.759 315.854 132.818C314.078 131.982 312.302 131.251 310.316 130.728C306.555 129.788 302.584 129.579 298.718 130.311C294.852 130.937 291.194 132.505 287.955 134.595C286.388 135.64 284.821 136.893 283.462 138.252C282.104 139.61 280.85 141.073 279.491 142.536C279.178 142.849 278.551 142.954 278.238 142.536C278.133 142.222 278.029 141.804 278.133 141.491Z" fill="#304762"/>
<path d="M330.379 166.987C330.379 167.614 330.379 168.137 330.274 168.764C330.17 169.077 330.065 169.391 329.961 169.704L329.856 169.913L329.752 170.018V170.122C329.856 170.018 329.856 170.122 329.856 170.436C329.543 171.167 328.602 171.481 327.871 171.063C327.139 170.749 326.826 169.809 327.244 169.077C327.348 169.182 327.453 168.973 327.662 168.659L327.766 168.555L327.871 168.45C327.975 168.346 328.08 168.137 328.184 167.928C328.393 167.51 328.707 167.092 328.916 166.674C329.125 166.36 329.543 166.256 329.856 166.36C330.17 166.569 330.379 166.778 330.379 166.987Z" fill="#304762"/>
<path d="M137.907 148.075C139.056 146.716 140.624 145.671 142.295 144.94C143.967 144.208 145.744 143.79 147.52 143.581C151.177 143.268 154.834 143.686 158.282 145.253C159.954 145.985 161.522 147.03 162.985 148.179C164.447 149.328 165.701 150.687 166.746 152.15C168.836 155.18 170.09 158.733 170.403 162.39C170.508 163.226 169.881 163.853 169.045 163.957C168.314 164.062 167.582 163.435 167.478 162.703V162.599C167.269 161.031 166.955 159.568 166.328 158.106C165.701 156.643 165.074 155.284 164.134 154.03C163.194 152.777 162.149 151.627 160.999 150.687C160.372 150.164 159.745 149.746 159.118 149.328C158.387 148.91 157.76 148.492 157.029 148.283C154.207 146.925 151.073 146.403 147.938 146.612C144.803 146.821 141.877 148.074 138.847 149.224C138.429 149.328 138.116 149.224 137.907 148.806C137.698 148.492 137.698 148.179 137.907 148.075Z" fill="#304762"/>
<path d="M132.892 152.567C133.101 152.463 133.414 152.358 133.623 152.149C134.041 151.94 134.563 152.045 134.772 152.463C134.877 152.672 134.877 152.776 134.877 152.985C134.877 153.194 134.772 153.508 134.772 153.717C134.668 154.448 134.041 154.866 133.414 154.866C132.683 154.762 132.265 154.135 132.265 153.508C132.265 153.09 132.474 152.776 132.892 152.567Z" fill="#717791"/>
<path d="M59.2626 204.291C66.9949 204.082 74.7273 203.977 82.4596 203.977C90.1919 203.977 97.9242 203.873 105.657 203.977C121.121 203.977 136.69 204.082 152.155 204.291C152.677 204.291 152.991 204.709 152.991 205.126C152.991 205.544 152.573 205.962 152.155 205.962C136.69 206.171 121.121 206.276 105.657 206.276C97.9242 206.276 90.1919 206.276 82.4596 206.276C74.7273 206.276 66.9949 206.067 59.2626 205.962C58.8447 205.962 58.5312 205.649 58.5312 205.231C58.5312 204.708 58.8447 204.395 59.2626 204.291Z" fill="#304762"/>
</svg>
