<svg width="43" height="43" viewBox="0 0 43 43" fill="none" xmlns="http://www.w3.org/2000/svg">
<rect x="0.500064" y="0.538933" width="41" height="41" rx="1.5" transform="rotate(-0.00738714 0.500064 0.538933)" fill="white" stroke="#E1E8EE"/>
<g clip-path="url(#clip0)">
<path d="M16.8651 21.6072L18.7834 21.607L18.7844 29.5042C18.7844 29.6602 18.9108 29.7865 19.0667 29.7864L22.3192 29.786C22.4751 29.786 22.6014 29.6597 22.6014 29.5037L22.6004 21.6437L24.8056 21.6434C24.949 21.6434 25.0697 21.5358 25.086 21.3934L25.4206 18.486C25.4298 18.406 25.4044 18.3259 25.3509 18.2659C25.2973 18.2058 25.2207 18.1714 25.1402 18.1714L22.6001 18.1718L22.5999 16.3493C22.5998 15.7999 22.8955 15.5213 23.4791 15.5212C23.5622 15.5212 25.1399 15.521 25.1399 15.521C25.2958 15.521 25.4221 15.3945 25.4221 15.2387L25.4217 12.57C25.4217 12.414 25.2954 12.2877 25.1394 12.2878L22.8506 12.288C22.8345 12.2873 22.7986 12.286 22.7458 12.286C22.3486 12.286 20.9682 12.3642 19.8779 13.3674C18.6699 14.4793 18.838 15.8102 18.8782 16.041L18.8784 18.1722L16.8646 18.1724C16.7087 18.1725 16.5824 18.2988 16.5824 18.4547L16.5828 21.325C16.5829 21.4809 16.7092 21.6072 16.8651 21.6072Z" fill="#BFC7D1"/>
</g>
<defs>
<clipPath id="clip0">
<rect width="17.5" height="17.5" fill="white" transform="translate(12.2515 12.2874) rotate(-0.00738714)"/>
</clipPath>
</defs>
</svg>

