<svg width="33" height="32" viewBox="0 0 33 32" fill="none" xmlns="http://www.w3.org/2000/svg">
<rect x="0.5" y="0.5" width="31.0436" height="31" rx="1.5" stroke="#BFC7D1"/>
<g clip-path="url(#clip0)">
<path d="M12.8677 16.4353H14.3312V22.4523C14.3312 22.5711 14.4276 22.6673 14.5466 22.6673H17.0281C17.147 22.6673 17.2434 22.5711 17.2434 22.4523V16.4637H18.9259C19.0353 16.4637 19.1273 16.3817 19.1398 16.2732L19.3953 14.058C19.4024 13.9971 19.383 13.9361 19.3422 13.8903C19.3013 13.8446 19.2428 13.8184 19.1815 13.8184H17.2435V12.4298C17.2435 12.0112 17.4692 11.799 17.9144 11.799C17.9778 11.799 19.1815 11.799 19.1815 11.799C19.3004 11.799 19.3968 11.7027 19.3968 11.5839V9.55062C19.3968 9.43182 19.3004 9.33557 19.1815 9.33557H17.4352C17.4229 9.33497 17.3955 9.33398 17.3552 9.33398C17.0522 9.33398 15.9991 9.39339 15.1671 10.1577C14.2453 11.0047 14.3735 12.0187 14.4041 12.1946V13.8183H12.8677C12.7487 13.8183 12.6523 13.9146 12.6523 14.0334V16.2202C12.6524 16.339 12.7488 16.4353 12.8677 16.4353Z" fill="#BFC7D1"/>
</g>
<defs>
<clipPath id="clip0">
<rect width="13.3515" height="13.3333" fill="white" transform="translate(9.34766 9.33398)"/>
</clipPath>
</defs>
</svg>
