<svg width="43" height="43" viewBox="0 0 43 43" fill="none" xmlns="http://www.w3.org/2000/svg">
<rect x="0.500065" y="0.499936" width="41" height="41" rx="1.5" transform="matrix(1 -0.00012769 0.000130181 1 0.0292318 0.00933357)" fill="white" stroke="#E1E8EE"/>
<path d="M21.9581 16.8574C22.665 16.8573 23.3444 17.0478 23.924 17.4084L24.5861 17.8613C24.8169 18.0192 25.1274 17.9912 25.3261 17.7943L27.2569 15.881C27.3805 15.7586 27.4429 15.5875 27.4272 15.4143C27.4117 15.2411 27.3195 15.0839 27.1761 14.9855L26.0537 14.216C26.0308 14.2003 26.0068 14.1863 25.982 14.1741L24.8947 13.6374C24.8803 13.6302 24.8656 13.6237 24.8506 13.6178C23.914 13.2482 22.9272 13.0608 21.9178 13.0609C19.8366 13.0612 17.8737 13.8602 16.3905 15.3105C14.8845 16.7834 14.047 18.786 14.0329 20.9496C14.0186 23.1137 14.8297 25.1277 16.3168 26.6205C17.7923 28.1019 19.8854 28.9514 22.0597 28.9511C24.2109 28.9509 26.2291 28.1153 27.5968 26.6589C28.6801 25.5052 29.3449 23.9644 29.5194 22.2029C29.521 22.1862 29.522 22.1694 29.5222 22.1527L29.5423 20.5703C29.5427 20.5376 29.5404 20.5049 29.5353 20.4726L29.4504 19.9318C29.406 19.648 29.1613 19.4388 28.8741 19.4389L22.1329 19.4397C21.8107 19.4398 21.5496 19.701 21.5497 20.0231L21.55 22.3551C21.55 22.6772 21.8111 22.9383 22.1334 22.9383L25.57 22.9379C25.4126 23.2831 25.1644 23.6473 24.8506 23.9866C24.1662 24.727 23.1455 25.1517 22.05 25.1518C20.9313 25.152 19.86 24.7137 19.1106 23.9496C17.5508 22.3594 17.5683 19.5883 19.1479 18.0195C19.8915 17.2812 20.9159 16.8576 21.9581 16.8574Z" fill="#BFC7D1"/>
</svg>

