<svg width="33" height="32" viewBox="0 0 33 32" fill="none" xmlns="http://www.w3.org/2000/svg">
<rect x="0.675781" y="0.5" width="31.0436" height="31" rx="1.5" stroke="#BFC7D1"/>
<g clip-path="url(#clip0)">
<path d="M19.2113 9H12.7906C10.701 9 9.00098 10.7 9.00098 12.7897V19.2104C9.00098 21.3 10.701 23 12.7906 23H19.2114C21.3009 23 23.0009 21.3 23.0009 19.2104V12.7897C23.0009 10.7 21.3009 9 19.2113 9ZM16.001 19.5C13.8902 19.5 12.501 18.1108 12.501 16C12.501 13.8892 13.8902 12.5 16.001 12.5C18.1118 12.5 19.501 13.8892 19.501 16C19.501 18.1108 18.1118 19.5 16.001 19.5ZM19.9205 13.0747C19.2967 13.0747 18.7894 12.5674 18.7894 11.9436C18.7894 11.3198 19.2967 10.8124 19.9205 10.8124C20.5443 10.8124 21.0518 11.3198 21.0518 11.9436C21.0518 12.5674 20.5443 13.0747 19.9205 13.0747Z" fill="#BFC7D1"/>
<path d="M16.001 14C14.8982 14 14.001 14.8972 14.001 16C14.001 17.1028 14.8982 18 16.001 18C17.1038 18 18.001 17.1028 18.001 16C18.001 14.8972 17.1038 14 16.001 14Z" fill="#BFC7D1"/>
</g>
<defs>
<clipPath id="clip0">
<rect width="14" height="14" fill="white" transform="translate(9.00098 9)"/>
</clipPath>
</defs>
</svg>
