<svg width="43" height="43" viewBox="0 0 43 43" fill="none" xmlns="http://www.w3.org/2000/svg">
<rect x="0.500065" y="0.499936" width="41.4813" height="41" rx="1.5" transform="matrix(1 -0.00012769 0.000130181 1 0.0233724 0.0151929)" fill="white" stroke="#E1E8EE"/>
<path d="M17.3699 18.2053L14.1038 18.2057C13.9588 18.2058 13.8414 18.3195 13.8414 18.4598L13.8427 28.6174C13.8427 28.7578 13.9602 28.8715 14.1052 28.8714L17.3712 28.871C17.5162 28.871 17.6336 28.7573 17.6336 28.617L17.6323 18.4593C17.6323 18.319 17.5148 18.2053 17.3699 18.2053Z" fill="#BFC7D1"/>
<path d="M15.7383 13.155C14.5499 13.1552 13.5832 14.0903 13.5833 15.2395C13.5835 16.3891 14.5504 17.3243 15.7388 17.3242C16.9262 17.324 17.8922 16.3886 17.892 15.2389C17.8919 14.0897 16.9257 13.1549 15.7383 13.155Z" fill="#BFC7D1"/>
<path d="M25.6788 17.9514C24.367 17.9516 23.3974 18.4976 22.8093 19.118L22.8092 18.4583C22.8092 18.318 22.6917 18.2042 22.5467 18.2043L19.4189 18.2047C19.2739 18.2047 19.1565 18.3185 19.1565 18.4587L19.1578 28.6164C19.1578 28.7567 19.2753 28.8704 19.4202 28.8704L22.6792 28.8699C22.8242 28.8699 22.9416 28.7562 22.9416 28.6159L22.9409 23.5902C22.9407 21.8967 23.4158 21.2368 24.6353 21.2367C25.9634 21.2365 26.0691 22.2942 26.0693 23.677L26.0699 28.6155C26.0699 28.7559 26.1874 28.8695 26.3323 28.8695L29.5925 28.8691C29.7375 28.8691 29.8549 28.7554 29.8549 28.615L29.8542 23.0434C29.8538 20.5252 29.3575 17.9509 25.6788 17.9514Z" fill="#BFC7D1"/>
</svg>

