<svg width="538" height="269" viewBox="0 0 538 269" fill="none" xmlns="http://www.w3.org/2000/svg">
<g opacity="0.7">
<path opacity="0.7" fill-rule="evenodd" clip-rule="evenodd" d="M234.722 180.158C235.373 180.323 236.035 179.929 236.2 179.278L240.069 164.007C240.233 163.356 239.839 162.694 239.188 162.529C238.537 162.364 237.876 162.758 237.711 163.409L233.842 178.68C233.677 179.332 234.071 179.993 234.722 180.158Z" fill="#C9D7ED"/>
<path opacity="0.7" fill-rule="evenodd" clip-rule="evenodd" d="M245.769 173.576C245.934 172.925 245.54 172.264 244.889 172.099L229.618 168.23C228.967 168.065 228.306 168.459 228.141 169.111C227.976 169.762 228.37 170.423 229.021 170.588L244.292 174.457C244.943 174.622 245.605 174.228 245.769 173.576Z" fill="#C9D7ED"/>
</g>
<path fill-rule="evenodd" clip-rule="evenodd" d="M328.072 191.392C325.828 191.392 324.008 189.572 324.008 187.328C324.008 185.083 325.828 183.263 328.072 183.263C330.317 183.263 332.137 185.083 332.137 187.328C332.137 189.572 330.317 191.392 328.072 191.392ZM321.956 187.328C321.956 190.705 324.695 193.444 328.072 193.444C331.45 193.444 334.189 190.705 334.189 187.328C334.189 183.95 331.45 181.211 328.072 181.211C324.695 181.211 321.956 183.95 321.956 187.328Z" fill="#9FC3FD"/>
<path fill-rule="evenodd" clip-rule="evenodd" d="M363.908 33.9983C361.663 33.9983 359.844 32.1786 359.844 29.9338C359.844 27.689 361.663 25.8692 363.908 25.8692C366.153 25.8692 367.973 27.689 367.973 29.9338C367.973 32.1786 366.153 33.9983 363.908 33.9983ZM357.792 29.9338C357.792 33.3116 360.53 36.0499 363.908 36.0499C367.286 36.0499 370.024 33.3116 370.024 29.9338C370.024 26.5559 367.286 23.8176 363.908 23.8176C360.53 23.8176 357.792 26.5559 357.792 29.9338Z" fill="#DBE6FC"/>
<g opacity="0.7">
<path opacity="0.7" fill-rule="evenodd" clip-rule="evenodd" d="M532.79 194.772C533.221 194.61 533.438 194.13 533.276 193.7L527.981 179.625C527.819 179.195 527.339 178.977 526.909 179.139C526.478 179.301 526.261 179.781 526.423 180.211L531.718 194.286C531.88 194.716 532.36 194.934 532.79 194.772Z" fill="#DBE6FC"/>
<path opacity="0.7" fill-rule="evenodd" clip-rule="evenodd" d="M522.1 189.82C522.258 190.252 522.736 190.473 523.168 190.315L537.243 185.159C537.675 185.001 537.897 184.523 537.738 184.091C537.58 183.659 537.102 183.438 536.671 183.596L522.595 188.752C522.164 188.91 521.942 189.388 522.1 189.82Z" fill="#DBE6FC"/>
</g>
<path fill-rule="evenodd" clip-rule="evenodd" d="M462.04 53.311C460.691 53.311 459.597 52.2175 459.597 50.8686C459.597 49.5196 460.691 48.4261 462.04 48.4261C463.389 48.4261 464.482 49.5196 464.482 50.8686C464.482 52.2175 463.389 53.311 462.04 53.311ZM457.777 50.8686C457.777 53.2229 459.685 55.1315 462.04 55.1315C464.394 55.1315 466.303 53.2229 466.303 50.8686C466.303 48.5142 464.394 46.6056 462.04 46.6056C459.685 46.6056 457.777 48.5142 457.777 50.8686Z" fill="#DBE6FC"/>
<path fill-rule="evenodd" clip-rule="evenodd" d="M488.619 227.165C488.208 227.053 487.784 227.295 487.671 227.706L485.525 235.563C485.413 235.974 485.655 236.399 486.066 236.511L493.923 238.657C494.335 238.769 494.759 238.527 494.871 238.116L497.017 230.259C497.13 229.848 496.887 229.423 496.476 229.311L488.619 227.165ZM488.957 228.857L495.325 230.597L493.586 236.965L487.217 235.225L488.957 228.857Z" fill="#DBE6FC"/>
<g opacity="0.7">
<path opacity="0.7" fill-rule="evenodd" clip-rule="evenodd" d="M12.2108 235.644C12.8825 235.644 13.427 235.1 13.427 234.428V212.438C13.427 211.766 12.8825 211.222 12.2108 211.222C11.5391 211.222 10.9946 211.766 10.9946 212.438V234.428C10.9946 235.1 11.5391 235.644 12.2108 235.644Z" fill="#DBE6FC"/>
<path opacity="0.7" fill-rule="evenodd" clip-rule="evenodd" d="M0 223.433C0 224.104 0.544497 224.649 1.21617 224.649H23.2063C23.878 224.649 24.4225 224.104 24.4225 223.433C24.4225 222.761 23.878 222.216 23.2063 222.216H1.21617C0.544497 222.216 0 222.761 0 223.433Z" fill="#DBE6FC"/>
</g>
<path fill-rule="evenodd" clip-rule="evenodd" d="M86.0874 229.684C84.2851 229.684 82.8239 228.223 82.8239 226.421C82.8239 224.619 84.2851 223.158 86.0874 223.158C87.8897 223.158 89.3507 224.619 89.3507 226.421C89.3507 228.223 87.8897 229.684 86.0874 229.684ZM80.3916 226.421C80.3916 229.567 82.9418 232.117 86.0874 232.117C89.2331 232.117 91.783 229.566 91.783 226.421C91.783 223.275 89.2331 220.725 86.0874 220.725C82.9418 220.725 80.3916 223.275 80.3916 226.421Z" fill="#DBE6FC"/>
<path fill-rule="evenodd" clip-rule="evenodd" d="M456.553 133.973C454.646 133.973 453.099 132.426 453.099 130.519C453.099 128.611 454.646 127.065 456.553 127.065C458.461 127.065 460.007 128.612 460.007 130.519C460.007 132.426 458.461 133.973 456.553 133.973ZM451.048 130.519C451.048 133.559 453.513 136.024 456.553 136.024C459.593 136.024 462.058 133.559 462.058 130.519C462.058 127.478 459.593 125.014 456.553 125.014C453.513 125.014 451.048 127.478 451.048 130.519Z" fill="#DBE6FC"/>
<path fill-rule="evenodd" clip-rule="evenodd" d="M210.885 242.342C210.474 242.23 210.05 242.472 209.937 242.883L207.791 250.74C207.679 251.151 207.921 251.576 208.332 251.688L216.189 253.834C216.6 253.946 217.025 253.704 217.137 253.293L219.283 245.436C219.395 245.025 219.153 244.601 218.742 244.488L210.885 242.342ZM211.223 244.034L217.591 245.774L215.852 252.142L209.483 250.403L211.223 244.034Z" fill="#9FC3FD"/>
<g opacity="0.7">
<path opacity="0.7" fill-rule="evenodd" clip-rule="evenodd" d="M281.241 103.026C281.912 103.026 282.457 102.481 282.457 101.81V85.9278C282.457 85.2561 281.912 84.7116 281.241 84.7116C280.569 84.7116 280.025 85.2561 280.025 85.9278V101.81C280.025 102.481 280.569 103.026 281.241 103.026Z" fill="#C9D7ED"/>
<path opacity="0.7" fill-rule="evenodd" clip-rule="evenodd" d="M272.084 93.8684C272.084 94.54 272.628 95.0845 273.3 95.0845H289.182C289.854 95.0845 290.398 94.54 290.398 93.8684C290.398 93.1967 289.854 92.6522 289.182 92.6522H273.3C272.628 92.6522 272.084 93.1967 272.084 93.8684Z" fill="#C9D7ED"/>
</g>
<path fill-rule="evenodd" clip-rule="evenodd" d="M71.7001 120.403C69.4553 120.403 67.6356 118.583 67.6356 116.338C67.6356 114.093 69.4553 112.274 71.7001 112.274C73.9449 112.274 75.7647 114.093 75.7647 116.338C75.7647 118.583 73.9449 120.403 71.7001 120.403ZM65.584 116.338C65.584 119.716 68.3223 122.454 71.7001 122.454C75.078 122.454 77.8162 119.716 77.8162 116.338C77.8162 112.96 75.078 110.222 71.7001 110.222C68.3223 110.222 65.584 112.96 65.584 116.338Z" fill="#DBE6FC"/>
<path fill-rule="evenodd" clip-rule="evenodd" d="M199.999 94.4851C198.197 94.4851 196.736 93.0241 196.736 91.2217C196.736 89.4194 198.197 87.9584 199.999 87.9584C201.802 87.9584 203.263 89.4195 203.263 91.2217C203.263 93.024 201.802 94.4851 199.999 94.4851ZM194.304 91.2217C194.304 94.3673 196.854 96.9174 199.999 96.9174C203.145 96.9174 205.695 94.3674 205.695 91.2217C205.695 88.076 203.145 85.526 199.999 85.526C196.854 85.526 194.304 88.0761 194.304 91.2217Z" fill="#C9D7ED"/>
<path fill-rule="evenodd" clip-rule="evenodd" d="M116.502 11.6952C116.914 11.8075 117.338 11.5652 117.45 11.1541L119.596 3.29708C119.709 2.88597 119.466 2.46167 119.055 2.34938L111.198 0.203293C110.787 0.0910033 110.363 0.333242 110.25 0.744347L108.104 8.6014C107.992 9.0125 108.234 9.4368 108.645 9.54909L116.502 11.6952ZM116.165 10.0031L109.796 8.26366L111.536 1.89536L117.904 3.63481L116.165 10.0031Z" fill="#DBE6FC"/>
<path d="M412.656 214.728C410.984 232.178 401.057 249.523 398.55 251.613C395.937 253.703 391.444 252.554 388.205 252.554C380.891 252.554 136.487 252.554 136.487 252.554C136.382 252.345 136.382 252.24 136.382 252.24C130.113 241.269 123.008 230.715 119.455 218.49C109.633 184.426 141.084 161.333 161.356 139.495C172.954 126.956 173.895 108.983 183.926 95.7131C197.718 77.4272 221.02 67.9186 243.381 66.4557C268.981 64.7838 290.715 73.979 306.284 94.6682C319.032 111.7 326.346 138.136 346.513 148.376C353.723 152.034 362.082 152.556 369.919 154.646C395.31 161.542 415.268 187.978 412.656 214.728Z" fill="#EEF4FF"/>
<path d="M242.127 266.66C245.575 266.346 249.023 266.346 252.367 266.242L262.607 266.137L283.192 266.033H303.776H314.016C317.465 266.033 320.913 266.033 324.257 266.346C324.779 266.346 325.093 266.869 325.093 267.391C325.093 267.809 324.675 268.227 324.257 268.227C320.808 268.541 317.36 268.541 314.016 268.541H303.776H283.192L262.607 268.436L252.367 268.332C248.919 268.332 245.471 268.332 242.127 267.914C241.709 267.914 241.5 267.496 241.5 267.182C241.5 266.973 241.813 266.66 242.127 266.66Z" fill="#717791"/>
<path d="M208.376 266.555C211.929 266.346 215.377 266.346 218.93 266.242C222.483 266.242 225.931 266.242 229.484 266.451C229.902 266.451 230.32 266.869 230.32 267.391C230.32 267.809 229.902 268.123 229.484 268.227C225.931 268.436 222.483 268.436 218.93 268.436C215.377 268.436 211.929 268.332 208.376 268.123C207.959 268.123 207.645 267.705 207.645 267.287C207.645 266.869 207.959 266.66 208.376 266.555Z" fill="#717791"/>
<path d="M222.587 252.554C223.527 252.136 224.572 252.136 225.513 252.136C226.453 252.136 227.498 252.24 228.439 252.449C228.961 252.554 229.17 252.972 229.066 253.494C228.961 253.807 228.752 254.121 228.439 254.121C227.498 254.33 226.453 254.434 225.513 254.434C224.572 254.434 223.527 254.434 222.587 254.016C222.169 253.807 221.96 253.389 222.169 252.972C222.274 252.867 222.378 252.658 222.587 252.554Z" fill="#717791"/>
<path d="M427.806 255.27L426.657 254.852L424.567 254.121L406.908 237.716L407.117 240.85C405.968 235.312 402.31 230.088 398.862 230.297V230.192C398.862 224.132 394.474 219.012 388.727 217.863L388.936 217.445C389.04 217.34 389.04 217.131 389.145 217.027L391.443 210.235C391.757 208.458 391.966 206.578 391.966 204.592C391.966 197.8 389.563 191.531 385.592 186.62L381.83 182.858C376.919 178.679 370.441 176.171 363.544 176.171C355.812 176.171 348.811 179.305 343.691 184.217C342.437 183.799 341.079 183.485 339.825 183.067C338.049 181.709 335.854 180.768 333.451 180.768C332.406 171.051 324.151 163.527 314.12 163.527C303.358 163.527 294.685 172.2 294.685 182.963C294.685 184.53 294.894 185.993 295.207 187.456C294.894 187.56 294.581 187.665 294.372 187.769C292.491 186.933 290.296 186.411 288.102 186.411C282.878 186.411 276.717 190.925 274 195C273.269 195.209 270.627 193.791 270 194C263.731 163.803 240.35 140.748 208.271 140.748C185.074 140.748 164.594 152.66 152.682 170.737L146.935 181.395C143.487 189.441 141.711 198.218 141.711 207.413C141.711 214.101 142.756 220.579 144.532 226.744C144.009 227.058 143.592 227.371 143.069 227.789C137.218 228.73 131.889 231.237 127.5 234.894L141.084 229.148C139.83 229.879 138.576 230.715 137.322 231.342C135.964 232.073 130.008 233.85 129.485 234.999C128.127 238.029 130.008 241.791 132.829 243.672C133.247 243.985 133.247 244.299 132.933 244.717L121.753 252.779V255.375H427.806V255.27ZM388.622 218.489C388.727 218.594 388.727 218.489 388.622 218.489V218.489Z" fill="white"/>
<path d="M392.907 220.161C391.444 219.534 389.876 219.116 388.205 219.012C385.174 218.907 382.249 219.743 379.218 219.43C376.502 219.117 374.098 217.758 371.486 217.131C365.426 215.773 358.738 219.012 356.021 224.55C354.977 226.64 354.35 229.148 352.26 230.297C350.588 231.237 348.707 230.924 346.826 231.237C342.229 232.073 339.407 236.671 337.527 240.955C337.318 241.477 338.467 240.433 338.154 241.06C338.572 232.909 343.169 227.894 351.11 226.744C352.573 218.908 359.47 212.952 367.724 212.952C371.591 212.952 375.143 214.205 377.964 216.4C379.532 215.668 381.204 215.25 383.085 215.25C387.264 215.25 390.712 217.131 392.907 220.161Z" fill="#DBE6FC"/>
<path d="M372.948 226.117C373.262 224.55 373.993 223.087 375.038 221.833C376.083 220.579 377.337 219.535 378.695 218.803C381.516 217.131 384.86 216.609 387.995 217.131C391.234 217.654 394.16 219.43 396.25 221.938C398.339 224.446 399.489 227.685 399.489 230.924L398.235 229.461C400.116 229.775 401.892 230.61 403.46 231.76C404.922 232.909 406.176 234.581 406.908 236.358C407.639 238.134 407.953 240.119 407.744 242C407.535 243.881 406.803 245.762 405.758 247.329L404.609 245.03C408.58 245.344 412.446 245.344 416.416 245.448C420.387 245.553 424.253 245.657 428.224 245.657C428.746 245.657 429.06 246.075 429.06 246.598C429.06 247.12 428.642 247.434 428.224 247.434C424.253 247.434 420.387 247.538 416.416 247.642C412.446 247.747 408.58 247.747 404.609 248.06C403.877 248.165 403.146 247.538 403.146 246.807C403.146 246.493 403.251 246.18 403.355 245.971L403.46 245.866C404.295 244.717 404.818 243.358 404.922 241.896C405.027 240.433 404.922 238.97 404.295 237.716C403.773 236.358 402.833 235.208 401.788 234.372C400.638 233.432 399.28 232.909 397.921 232.596C397.19 232.491 396.668 231.864 396.668 231.133C396.668 228.521 395.727 226.013 394.055 224.028C392.384 222.042 390.085 220.684 387.577 220.161C385.069 219.639 382.352 220.057 380.054 221.311C378.904 221.938 377.859 222.774 377.023 223.714C376.187 224.655 375.352 225.804 374.62 226.953C374.411 227.371 373.889 227.371 373.471 227.162C373.053 226.744 372.948 226.326 372.948 226.117Z" fill="#717791"/>
<path fill-rule="evenodd" clip-rule="evenodd" d="M368.978 217.967C361.372 217.967 354.998 223.77 354.238 231.28C354.156 232.084 353.439 232.67 352.635 232.588C351.831 232.507 351.245 231.789 351.327 230.986C352.238 221.986 359.866 215.041 368.978 215.041C372.944 215.041 376.601 216.289 379.477 218.474C380.12 218.963 380.245 219.881 379.756 220.524C379.267 221.167 378.35 221.293 377.706 220.804C375.358 219.019 372.327 217.967 368.978 217.967Z" fill="#717791"/>
<path d="M354.768 242.209C353.932 241.269 353.305 240.224 352.782 239.075C352.364 237.925 351.946 236.776 351.946 235.522C351.946 234.999 352.364 234.581 352.887 234.581C353.305 234.581 353.723 234.895 353.827 235.208C354.141 236.253 354.35 237.298 354.768 238.343C355.081 239.388 355.499 240.328 355.917 241.373C356.021 241.687 355.917 242.105 355.499 242.314C355.186 242.523 354.977 242.418 354.768 242.209Z" fill="#717791"/>
<path d="M345.049 230.506C345.676 230.088 346.303 229.879 346.93 229.67C347.557 229.461 348.288 229.356 349.02 229.252C349.751 229.147 350.483 229.252 351.11 229.252C351.841 229.356 352.468 229.565 353.2 229.879C353.931 230.192 354.244 231.133 353.931 231.864C353.617 232.491 352.991 232.805 352.259 232.7C351.737 232.596 351.214 232.491 350.692 232.387C350.169 232.282 349.647 232.178 349.124 232.178C348.602 232.073 348.079 232.178 347.453 232.178C346.93 232.178 346.303 232.282 345.781 232.282C345.258 232.387 344.84 231.969 344.736 231.446C344.631 231.028 344.84 230.61 345.049 230.506Z" fill="#717791"/>
<path d="M338.362 244.089C337.63 243.253 337.317 242.313 337.212 241.268C337.108 240.223 337.317 239.178 337.526 238.238C337.839 237.298 338.257 236.357 338.78 235.521C339.407 234.685 340.034 233.954 340.87 233.431C341.288 233.222 341.81 233.327 342.019 233.64C342.228 233.849 342.228 234.163 342.019 234.476C341.601 235.208 341.287 235.939 340.974 236.671C340.661 237.402 340.452 238.133 340.347 238.865C340.138 239.596 340.138 240.328 340.034 241.164C339.929 241.895 339.825 242.731 339.616 243.671C339.511 244.089 339.093 244.298 338.675 244.194C338.571 244.298 338.466 244.194 338.362 244.089Z" fill="#717791"/>
<path d="M310.463 224.759C310.463 224.759 301.373 225.072 291.864 225.281C291.655 224.759 289.252 225.177 288.938 224.654C287.475 222.042 289.565 216.922 288.102 214.205C286.639 211.488 283.505 210.443 282.042 207.727C280.265 204.696 278.385 201.666 275.563 199.681C272.115 197.173 266.368 197.696 262.084 197.173C256.337 196.442 251.426 194.561 245.993 196.755C242.022 198.322 238.783 201.353 236.902 205.219C235.961 207.1 235.021 209.503 232.931 209.921C231.05 210.339 229.17 208.772 228.334 206.995C227.498 205.219 227.08 204.174 226.348 202.293C224.05 196.024 216.631 192.262 209.943 192.68C206.6 192.889 203.36 193.62 200.121 194.352C203.256 191.426 207.54 189.65 212.242 189.65C221.751 189.65 229.483 197.069 230.005 206.368C230.946 206.264 231.886 206.159 232.827 206.159C233.454 206.159 234.081 206.159 234.708 206.264C235.961 197.696 243.38 191.113 252.366 191.113C256.546 191.113 260.308 192.576 263.338 194.874C265.01 194.143 266.786 193.725 268.771 193.725C275.877 193.725 281.728 199.158 282.355 206.159C287.475 208.145 291.133 213.056 291.133 218.907C291.133 220.057 291.028 221.101 290.715 222.251L310.463 224.759Z" fill="#DBE6FC"/>
<path fill-rule="evenodd" clip-rule="evenodd" d="M283.714 251.613C283.714 250.805 284.369 250.15 285.177 250.15H293.431C294.239 250.15 294.894 250.805 294.894 251.613C294.894 252.421 294.239 253.076 293.431 253.076H285.177C284.369 253.076 283.714 252.421 283.714 251.613Z" fill="#717791"/>
<path d="M341.706 246.911C342.751 247.956 343.901 248.687 345.259 249.314C346.513 249.836 347.871 250.15 349.334 250.15C350.17 250.15 350.797 250.881 350.797 251.613C350.797 252.449 350.17 253.076 349.334 253.076H293.641C292.805 253.076 292.178 252.449 292.178 251.613C292.178 250.777 292.805 250.15 293.641 250.15H349.23V253.076C345.572 253.076 341.915 251.195 340.139 248.165C339.825 247.642 340.034 247.12 340.452 246.806C340.87 246.597 341.288 246.597 341.706 246.911Z" fill="#717791"/>
<path d="M234.707 216.191C234.707 215.982 234.707 215.773 234.812 215.564C234.916 215.355 234.916 215.146 235.125 214.937C235.543 214.414 236.17 214.31 236.693 214.623H236.797C237.006 214.728 237.215 214.937 237.32 215.041C237.424 215.146 237.529 215.355 237.633 215.459C237.946 216.191 237.529 217.131 236.797 217.34C236.066 217.654 235.125 217.236 234.916 216.504C234.812 216.504 234.707 216.295 234.707 216.191Z" fill="#717791"/>
<path fill-rule="evenodd" clip-rule="evenodd" d="M232.304 211.489C231.27 211.489 230.085 211.753 229.042 212.132C228.283 212.408 227.444 212.016 227.168 211.257C226.891 210.498 227.283 209.658 228.042 209.382C229.298 208.926 230.83 208.563 232.304 208.563C233.731 208.563 235.05 208.803 236.357 209.278C237.116 209.554 237.508 210.393 237.232 211.153C236.955 211.912 236.116 212.304 235.357 212.027C234.365 211.667 233.384 211.489 232.304 211.489Z" fill="#717791"/>
<path d="M144.532 231.969C142.965 230.297 142.547 228.103 141.92 226.013C141.293 223.923 140.77 221.833 140.352 219.744C139.517 215.459 139.203 211.175 139.203 206.787C139.308 202.398 139.726 198.114 140.77 193.83C141.711 189.65 142.965 185.366 145.368 181.709C145.682 181.291 146.204 181.187 146.517 181.5C146.831 181.709 146.935 182.022 146.831 182.336C145.995 186.516 144.637 190.382 143.801 194.457C142.965 198.532 142.547 202.607 142.442 206.787C142.338 210.966 142.651 215.042 143.278 219.117C143.592 221.206 144.01 223.192 144.532 225.177C144.95 227.162 145.786 229.043 145.786 231.342C145.786 231.76 145.368 232.178 144.95 232.073C144.846 232.178 144.637 232.073 144.532 231.969Z" fill="#717791"/>
<path d="M146 161.155C147.254 157.916 149.135 155.095 151.434 152.587C153.628 149.975 156.136 147.676 158.748 145.482C163.972 141.197 169.824 137.645 176.093 135.032C182.363 132.42 189.05 130.853 195.842 130.121C199.186 129.808 202.634 129.808 206.082 129.912C206.918 129.912 207.754 129.912 208.59 130.017L211.098 130.33C212.77 130.539 214.441 130.748 216.113 131.166L218.621 131.793C219.457 132.002 220.293 132.107 221.129 132.42L225.935 133.988L230.637 135.973C231.473 136.286 232.205 136.704 232.936 137.122L235.235 138.376C241.191 141.72 246.625 145.9 251.327 150.811C260.731 160.633 266.896 173.485 269.194 186.86C269.299 187.696 268.777 188.427 268.045 188.532C267.209 188.636 266.478 188.114 266.373 187.382C264.074 174.634 258.014 162.514 249.028 153.214C244.535 148.512 239.31 144.541 233.668 141.406L231.578 140.257C230.846 139.839 230.115 139.526 229.384 139.212L224.89 137.331L220.293 135.868C219.561 135.555 218.725 135.45 217.994 135.241L215.591 134.719C214.023 134.301 212.456 134.092 210.784 133.883L208.381 133.57C207.545 133.465 206.814 133.465 205.978 133.465C202.738 133.256 199.499 133.256 196.26 133.57C189.782 134.092 183.408 135.555 177.452 138.063C171.496 140.571 165.853 143.81 160.838 147.989C158.33 150.079 155.927 152.273 153.837 154.677C152.687 155.826 151.642 157.08 150.598 158.229C149.448 159.379 148.403 160.633 147.045 161.782C146.836 161.991 146.522 161.991 146.313 161.678C146 161.469 146 161.26 146 161.155Z" fill="#717791"/>
<path d="M260 215.528C260 198.278 258 189.627 258 171.473C258 167.924 260.71 165 264 165C267.29 165 270 167.924 270 171.473L270 215.528C270 219.077 267.29 222 264 222C260.71 222 260 219.077 260 215.528Z" fill="#EEF4FF"/>
<path d="M268 217.65L270 170.351C270 165.766 266.359 162 264 162C259.567 162 257.5 170.351 257.5 170.351L258.5 184.5C258.5 184.5 258.5 187 259.5 187C261.5 187 261 184.5 261 184.5C261 178.5 261.5 180 260.71 170.351C260.71 167.314 261.063 164.802 264 164.802C264.862 164.802 267.29 167.314 267.29 170.351L265.29 217.65L268 217.65Z" fill="#717791"/>
<path d="M127.082 234.267C128.022 233.014 129.276 232.073 130.53 231.237C131.889 230.401 133.247 229.67 134.71 229.043C136.173 228.416 137.636 227.894 139.098 227.476C140.561 227.058 142.129 226.849 143.696 226.64C144.532 226.535 145.263 227.162 145.263 227.998C145.368 228.729 144.741 229.461 144.01 229.565C142.547 229.774 141.188 230.088 139.83 230.401C138.472 230.715 137.113 231.237 135.755 231.655C134.396 232.178 133.143 232.7 131.784 233.432C130.53 234.059 129.276 234.79 127.813 235.312C127.5 235.417 127.082 235.312 126.978 234.894C126.978 234.685 126.978 234.476 127.082 234.267Z" fill="#717791"/>
<path d="M260.5 198C256.9 195.2 250.667 195.834 248 196.5L244 206.5L256 231.5L278.5 228C278.167 219.167 277.1 201.1 275.5 199.5C273.9 197.9 268.167 197.834 265.5 198C265.333 199.167 264.1 200.8 260.5 198Z" fill="white"/>
<path d="M256.023 205.532C256.546 202.398 258.845 199.576 261.666 198.009C264.487 196.337 267.935 195.815 271.174 196.337C274.414 196.964 277.444 198.74 279.534 201.248C281.623 203.756 282.773 207.1 282.668 210.339L281.414 208.876C283.295 209.19 285.072 210.025 286.639 211.175C288.102 212.324 289.356 213.996 290.087 215.773C290.819 217.549 291.132 219.534 290.923 221.415C290.714 223.296 289.983 225.177 288.938 226.744L287.788 224.445C291.759 224.55 295.625 224.654 299.596 224.759L311.403 225.177C311.821 225.177 312.135 225.49 312.135 225.908C312.135 226.326 311.821 226.64 311.403 226.64L299.596 227.057C295.625 227.162 291.759 227.266 287.788 227.371C286.953 227.371 286.326 226.744 286.326 226.013C286.326 225.699 286.43 225.386 286.535 225.177V225.072C287.37 223.923 287.893 222.564 287.997 221.102C288.102 219.639 287.997 218.176 287.37 216.922C286.848 215.563 285.908 214.414 284.863 213.578C283.713 212.638 282.355 212.115 280.997 211.802C280.265 211.697 279.847 211.07 279.743 210.339C279.638 207.727 278.698 205.219 277.13 203.338C275.459 201.353 273.16 199.994 270.652 199.576C268.144 199.054 265.427 199.472 263.233 200.726C262.084 201.353 261.143 202.189 260.203 203.129C259.262 204.07 258.531 205.114 257.695 206.264C257.382 206.682 256.859 206.786 256.441 206.473C256.128 206.159 255.919 205.846 256.023 205.532Z" fill="#717791"/>
<path fill-rule="evenodd" clip-rule="evenodd" d="M252.053 197.382C244.446 197.382 238.072 203.185 237.312 210.695C237.231 211.499 236.513 212.085 235.709 212.003C234.905 211.922 234.32 211.204 234.401 210.401C235.312 201.401 242.94 194.456 252.053 194.456C256.044 194.456 259.804 195.824 262.767 198.103C263.407 198.596 263.527 199.515 263.034 200.155C262.542 200.795 261.623 200.915 260.983 200.423C258.512 198.522 255.376 197.382 252.053 197.382Z" fill="#717791"/>
<path d="M121.962 238.447C121.962 238.238 122.067 238.134 122.171 238.029C122.276 237.925 122.38 237.82 122.485 237.716C122.694 237.507 123.007 237.402 123.425 237.298C124.052 237.193 124.574 237.611 124.783 238.238C124.783 238.343 124.783 238.447 124.783 238.552V238.656C124.783 239.074 124.574 239.283 124.47 239.596C124.366 239.701 124.365 239.805 124.261 239.91C124.157 240.014 124.052 240.119 123.843 240.119H123.739C123.007 240.328 122.276 239.805 122.067 239.074C121.858 238.76 121.858 238.656 121.962 238.447Z" fill="#717791"/>
<path fill-rule="evenodd" clip-rule="evenodd" d="M297.934 191.75C298.506 191.179 299.432 191.179 300.003 191.75C300.183 191.93 300.293 192.117 300.347 192.219C300.779 192.792 300.734 193.61 300.212 194.132C299.641 194.704 298.715 194.704 298.143 194.132C297.963 193.952 297.853 193.766 297.799 193.664C297.367 193.091 297.412 192.272 297.934 191.75Z" fill="#717791"/>
<path fill-rule="evenodd" clip-rule="evenodd" d="M287.266 188.709C281.418 188.709 276.423 192.384 274.537 197.665C274.265 198.426 273.428 198.822 272.668 198.551C271.907 198.279 271.51 197.442 271.782 196.681C274.075 190.259 280.156 185.784 287.266 185.784C290.82 185.784 294.154 186.93 296.808 188.891C297.458 189.372 297.595 190.288 297.115 190.937C296.635 191.587 295.719 191.724 295.069 191.244C292.916 189.653 290.19 188.709 287.266 188.709Z" fill="#717791"/>
<path fill-rule="evenodd" clip-rule="evenodd" d="M313.388 165.722C303.434 165.722 295.416 173.74 295.416 183.694C295.416 185.477 295.615 187.202 296.081 188.692C296.322 189.463 295.892 190.283 295.121 190.524C294.35 190.765 293.529 190.335 293.288 189.564C292.709 187.71 292.49 185.673 292.49 183.694C292.49 172.124 301.818 162.796 313.388 162.796C324.07 162.796 332.937 170.887 334.172 181.328C334.267 182.131 333.693 182.858 332.891 182.953C332.089 183.048 331.361 182.474 331.266 181.672C330.203 172.678 322.56 165.722 313.388 165.722Z" fill="#717791"/>
<path fill-rule="evenodd" clip-rule="evenodd" d="M331.152 181.499C331.152 180.691 331.807 180.036 332.615 180.036C336.565 180.036 340.157 182.068 342.199 185.192C342.641 185.868 342.451 186.775 341.775 187.217C341.099 187.659 340.192 187.469 339.75 186.793C338.24 184.483 335.562 182.962 332.615 182.962C331.807 182.962 331.152 182.307 331.152 181.499Z" fill="#717791"/>
<path d="M337.735 189.754C338.571 187.769 339.825 185.992 341.287 184.529C342.75 182.962 344.422 181.604 346.198 180.454C349.751 178.156 353.826 176.588 358.006 175.961C362.186 175.334 366.47 175.648 370.545 176.902C374.62 178.156 378.382 180.141 381.307 183.171C381.516 183.38 381.516 183.798 381.307 184.007C381.098 184.216 380.785 184.216 380.576 184.112C378.904 182.962 377.232 182.022 375.456 181.081C373.679 180.245 371.903 179.514 369.918 178.992C366.156 178.051 362.186 177.842 358.319 178.574C354.453 179.201 350.796 180.768 347.557 182.858C345.989 183.903 344.422 185.156 343.064 186.515C341.705 187.873 340.451 189.336 339.093 190.799C338.78 191.112 338.153 191.217 337.839 190.799C337.735 190.485 337.63 190.068 337.735 189.754Z" fill="#717791"/>
<path d="M389.98 215.25C389.98 215.877 389.98 216.4 389.876 217.027C389.771 217.34 389.667 217.654 389.562 217.967L389.458 218.176L389.353 218.281V218.385C389.458 218.281 389.458 218.385 389.458 218.699C389.144 219.43 388.204 219.744 387.472 219.326C386.741 219.012 386.427 218.072 386.845 217.34C386.95 217.445 387.054 217.236 387.263 216.922L387.368 216.818L387.472 216.713C387.577 216.609 387.681 216.4 387.786 216.191C387.995 215.773 388.308 215.355 388.517 214.937C388.726 214.624 389.144 214.519 389.458 214.624C389.771 214.833 389.98 215.041 389.98 215.25Z" fill="#717791"/>
<path d="M385.174 186.933C386.741 188.396 388.204 190.068 389.249 192.053C390.294 193.934 391.13 196.024 391.652 198.114C392.175 200.203 392.488 202.398 392.384 204.592C392.384 206.786 392.07 208.981 391.13 210.966C391.025 211.28 390.607 211.384 390.294 211.28C390.085 211.175 389.98 210.966 389.98 210.757C389.771 208.667 389.98 206.682 389.771 204.697C389.771 203.652 389.562 202.711 389.458 201.666C389.249 200.726 389.144 199.681 388.935 198.741C388.518 196.755 387.891 194.874 387.055 193.098C386.219 191.217 385.278 189.441 384.338 187.665C384.233 187.351 384.338 187.038 384.547 186.933C384.756 186.829 384.965 186.829 385.174 186.933Z" fill="#717791"/>
<path d="M197.508 196.338C198.658 194.979 200.225 193.934 201.897 193.203C203.569 192.471 205.345 192.053 207.121 191.844C210.779 191.531 214.436 191.949 217.884 193.516C219.556 194.248 221.123 195.293 222.586 196.442C224.049 197.591 225.303 198.95 226.348 200.413C228.438 203.443 229.691 206.996 230.005 210.653C230.109 211.489 229.482 212.116 228.647 212.22C227.915 212.325 227.184 211.698 227.079 210.966V210.862C226.87 209.294 226.557 207.832 225.93 206.369C225.303 204.906 224.676 203.547 223.735 202.293C222.795 201.04 221.75 199.89 220.601 198.95C219.974 198.427 219.347 198.009 218.72 197.591C217.988 197.173 217.362 196.755 216.63 196.546C213.809 195.188 210.674 194.666 207.539 194.875C204.405 195.084 201.479 196.338 198.449 197.487C198.031 197.591 197.717 197.487 197.508 197.069C197.299 196.755 197.299 196.442 197.508 196.338Z" fill="#717791"/>
<path d="M192.493 200.83C192.702 200.726 193.016 200.621 193.225 200.412C193.643 200.203 194.165 200.308 194.374 200.726C194.478 200.935 194.478 201.039 194.478 201.248C194.478 201.457 194.374 201.771 194.374 201.98C194.269 202.711 193.643 203.129 193.016 203.129C192.284 203.025 191.866 202.398 191.866 201.771C191.866 201.353 192.075 201.039 192.493 200.83Z" fill="#717791"/>
<path d="M413.884 141.208L418.982 142.574C420.49 142.978 421.455 144.544 421.032 146.124L403.187 213.296C402.783 214.804 401.216 215.769 399.637 215.346L347.131 201.354C345.624 200.95 344.658 199.383 345.081 197.804L362.926 130.632C363.33 129.124 364.897 128.158 366.477 128.582L400.53 137.629" fill="white"/>
<path d="M400.791 215.347C400.393 215.395 400.015 215.37 399.656 215.274L347.15 201.282C345.643 200.878 344.677 199.311 345.1 197.732L362.945 130.56C363.349 129.052 364.916 128.086 366.496 128.51L400.549 137.557" fill="white"/>
<path d="M400.91 215.764C400.474 215.955 399.861 215.945 399.339 215.882C398.889 215.838 398.458 215.723 398.008 215.679C397.127 215.52 396.285 215.217 395.423 214.987L390.326 213.621L380.111 210.96L359.628 205.549L349.413 202.889L346.828 202.196C345.68 201.889 344.756 201.026 344.36 199.919C344.117 199.392 344.055 198.76 344.118 198.238C344.123 197.932 344.2 197.644 344.258 197.429L344.431 196.783L345.124 194.198L350.535 173.716L361.41 132.842L362.103 130.257C362.411 129.108 363.274 128.185 364.38 127.789C364.907 127.545 365.539 127.484 366.133 127.566C366.798 127.667 367.157 127.763 367.588 127.879L370.173 128.572L380.369 131.303L390.564 134.035C393.92 135.011 397.443 135.648 400.664 137.126C400.932 137.275 401.018 137.529 400.941 137.816C400.811 138.012 400.629 138.117 400.395 138.132C396.866 137.802 393.477 136.663 390.083 135.83L379.888 133.098L369.692 130.367L367.107 129.674C366.676 129.559 366.174 129.424 365.958 129.366C365.652 129.361 365.345 129.356 365.092 129.442C364.493 129.666 364.071 130.092 363.917 130.666L363.244 133.179L352.368 174.053L346.885 194.516L346.193 197.101C346.077 197.532 345.943 198.034 345.885 198.25C345.88 198.556 345.875 198.863 346.032 199.136C346.257 199.735 346.754 200.176 347.329 200.33L349.842 201.003L360.037 203.735L380.5 209.218L390.696 211.95L395.794 213.316C396.656 213.547 397.517 213.778 398.379 214.009C398.81 214.124 399.221 214.311 399.652 214.427C400.064 214.614 400.351 214.691 400.71 214.787C400.925 214.845 401.102 215.046 401.116 215.281C401.111 215.587 401.001 215.712 400.91 215.764Z" fill="#717791"/>
<path fill-rule="evenodd" clip-rule="evenodd" d="M401.028 215.998L401.015 216.003C400.511 216.224 399.838 216.205 399.311 216.142C399.076 216.119 398.848 216.077 398.632 216.038L398.627 216.038C398.405 215.998 398.196 215.96 397.983 215.939L397.972 215.938L397.962 215.936C397.361 215.828 396.766 215.65 396.187 215.478C395.906 215.394 395.628 215.312 395.356 215.239L390.26 213.873L390.258 213.873L380.045 211.213L359.562 205.802L349.347 203.142L349.346 203.141L346.761 202.449C345.532 202.12 344.545 201.199 344.118 200.018C343.857 199.446 343.793 198.774 343.857 198.22C343.865 197.887 343.947 197.579 344.004 197.37L344.871 194.131L350.283 173.649L361.158 132.775L361.851 130.189C362.18 128.96 363.1 127.974 364.281 127.547C364.86 127.282 365.54 127.22 366.169 127.307L366.172 127.308C366.852 127.411 367.222 127.51 367.656 127.627L390.638 133.784C391.607 134.066 392.597 134.321 393.595 134.578C396.015 135.201 398.476 135.835 400.773 136.889L400.782 136.893L400.791 136.898C400.972 136.998 401.106 137.144 401.176 137.326C401.245 137.505 401.243 137.698 401.193 137.884L401.182 137.925L401.159 137.96C400.984 138.225 400.727 138.373 400.41 138.392L400.39 138.393L400.37 138.392C397.759 138.148 395.214 137.462 392.713 136.788C391.81 136.545 390.914 136.303 390.021 136.084L390.016 136.083L365.922 129.627C365.62 129.622 365.374 129.623 365.179 129.688C364.65 129.887 364.298 130.254 364.169 130.734L363.496 133.246L352.621 174.12L346.146 198.285C346.141 198.588 346.147 198.812 346.259 199.005L346.269 199.024L346.277 199.044C346.472 199.565 346.904 199.945 347.396 200.077L398.447 213.756C398.672 213.817 398.891 213.895 399.099 213.97L399.104 213.972C399.316 214.048 399.517 214.12 399.72 214.174L399.741 214.18L399.76 214.189C400.151 214.367 400.42 214.439 400.777 214.535C401.096 214.62 401.356 214.912 401.377 215.265L401.378 215.275L401.378 215.285C401.371 215.662 401.228 215.882 401.041 215.99L401.028 215.998ZM345.885 198.25L352.369 174.053L363.244 133.179L363.917 130.666C364.071 130.092 364.493 129.666 365.092 129.442C365.346 129.356 365.652 129.361 365.959 129.366L390.084 135.83C390.988 136.052 391.893 136.296 392.8 136.54C395.294 137.213 397.807 137.89 400.395 138.132C400.629 138.117 400.811 138.012 400.941 137.816C401.018 137.529 400.932 137.275 400.664 137.126C398.39 136.082 395.965 135.458 393.554 134.838C392.551 134.58 391.551 134.322 390.565 134.035L367.588 127.879C367.157 127.763 366.798 127.667 366.133 127.566C365.539 127.484 364.907 127.545 364.38 127.789C363.274 128.185 362.411 129.108 362.103 130.257L361.41 132.842L350.535 173.716L345.124 194.198L344.258 197.429C344.2 197.644 344.123 197.932 344.118 198.238C344.055 198.76 344.117 199.392 344.36 199.919C344.757 201.026 345.68 201.889 346.828 202.196L349.413 202.889L359.628 205.549L380.111 210.96L390.326 213.621L395.423 214.987C395.711 215.064 395.996 215.148 396.281 215.233C396.851 215.403 397.421 215.573 398.008 215.679C398.233 215.701 398.454 215.741 398.674 215.781C398.894 215.82 399.114 215.86 399.339 215.882C399.861 215.945 400.474 215.955 400.91 215.764C401.001 215.712 401.111 215.587 401.116 215.281C401.102 215.046 400.925 214.845 400.71 214.787C400.351 214.691 400.064 214.614 399.652 214.427C399.437 214.369 399.226 214.293 399.016 214.218C398.805 214.142 398.594 214.066 398.379 214.009L347.329 200.33C346.754 200.176 346.257 199.735 346.032 199.136C345.875 198.863 345.88 198.556 345.885 198.25Z" fill="#717791"/>
<path d="M413.884 141.207L418.982 142.573C420.49 142.977 421.455 144.544 421.032 146.124L404.13 209.778" fill="white"/>
<path d="M413.981 140.848C414.867 140.701 415.565 140.965 416.374 141.105L418.691 141.649L419.266 141.803C419.481 141.861 419.768 141.938 419.965 142.067C420.448 142.274 420.821 142.604 421.103 142.988C421.739 143.774 422.011 144.77 421.885 145.814L419.494 155.024L414.732 173.371L412.36 182.509C411.552 185.525 410.725 188.612 409.917 191.628C409.109 194.643 408.21 197.712 407.33 200.708L406.027 205.284C405.551 206.773 405.147 208.28 404.652 209.841C404.594 210.056 404.321 210.214 404.106 210.156C403.89 210.098 403.804 209.845 403.79 209.61C404.051 208.064 404.455 206.556 404.878 204.976L405.966 200.343C406.702 197.308 407.457 194.201 408.194 191.166C408.93 188.131 409.757 185.044 410.565 182.028L413.009 172.909L417.986 154.62L419.218 150.024L419.833 147.727L420.141 146.578C420.237 146.219 420.353 145.788 420.43 145.501C420.512 144.907 420.359 144.328 419.934 143.906C419.757 143.704 419.508 143.484 419.24 143.335C419.096 143.297 418.972 143.186 418.828 143.148L418.254 142.994L415.976 142.307C415.186 142.095 414.468 141.903 413.774 141.332C413.578 141.202 413.564 140.968 413.693 140.772C413.818 140.882 413.909 140.829 413.981 140.848Z" fill="#717791"/>
<path fill-rule="evenodd" clip-rule="evenodd" d="M413.773 140.824C413.825 140.847 413.87 140.846 413.91 140.844C413.935 140.843 413.959 140.843 413.98 140.848C414.648 140.738 415.209 140.86 415.79 140.987C415.981 141.028 416.175 141.071 416.374 141.105L418.691 141.649L419.266 141.803C419.481 141.861 419.768 141.938 419.964 142.067C420.448 142.274 420.821 142.604 421.103 142.988C421.739 143.774 422.01 144.77 421.885 145.814L412.36 182.509L409.917 191.628C409.109 194.643 408.21 197.712 407.33 200.708L406.027 205.284C405.786 206.037 405.564 206.795 405.339 207.563C405.119 208.312 404.896 209.07 404.652 209.841C404.594 210.056 404.321 210.214 404.106 210.156C403.89 210.098 403.804 209.845 403.79 209.61C404.051 208.064 404.455 206.556 404.878 204.976L405.966 200.343C406.334 198.825 406.707 197.29 407.08 195.754C407.452 194.219 407.825 192.684 408.194 191.166C408.93 188.132 409.757 185.045 410.564 182.03L413.008 172.909L417.986 154.62L420.429 145.501C420.512 144.907 420.359 144.328 419.933 143.906C419.757 143.704 419.508 143.484 419.24 143.335C419.168 143.316 419.101 143.279 419.034 143.242C418.967 143.204 418.9 143.167 418.828 143.148L418.254 142.994L415.976 142.307C415.186 142.095 414.468 141.903 413.774 141.332C413.662 141.258 413.609 141.149 413.609 141.033C413.609 140.946 413.638 140.855 413.693 140.772C413.722 140.797 413.748 140.813 413.773 140.824ZM413.618 141.541C413.464 141.435 413.373 141.28 413.352 141.108C413.332 140.937 413.383 140.768 413.475 140.628L413.641 140.376L413.867 140.576C413.871 140.58 413.874 140.582 413.876 140.584C413.88 140.584 413.884 140.584 413.892 140.583C413.898 140.583 413.905 140.583 413.916 140.583C413.929 140.582 413.952 140.582 413.979 140.584C414.443 140.513 414.857 140.545 415.25 140.612C415.45 140.645 415.647 140.688 415.839 140.73L415.844 140.731C416.036 140.773 416.225 140.814 416.419 140.848L416.426 140.849L418.759 141.397L419.333 141.551C419.339 141.552 419.345 141.554 419.351 141.555C419.549 141.608 419.858 141.691 420.088 141.836C420.609 142.063 421.009 142.421 421.31 142.828C421.99 143.672 422.278 144.738 422.144 145.845L422.142 145.862L412.612 182.577L410.169 191.695C409.36 194.714 408.46 197.785 407.581 200.781C407.581 200.781 407.581 200.78 407.581 200.781L406.276 205.364C406.039 206.104 405.82 206.851 405.597 207.609L405.589 207.637C405.37 208.384 405.147 209.143 404.902 209.915C404.85 210.101 404.714 210.243 404.568 210.327C404.421 210.412 404.228 210.459 404.038 210.409C403.837 210.355 403.711 210.211 403.639 210.067C403.568 209.925 403.538 209.765 403.529 209.626L403.528 209.596L403.533 209.567C403.795 208.007 404.202 206.489 404.624 204.913L405.712 200.281C406.079 198.766 406.452 197.233 406.824 195.699L406.826 195.693C407.199 194.157 407.572 192.622 407.94 191.105C408.676 188.067 409.504 184.978 410.312 181.964L412.756 172.842L417.734 154.552L420.173 145.45C420.241 144.929 420.104 144.442 419.75 144.091L419.743 144.085L419.737 144.078C419.581 143.9 419.364 143.708 419.137 143.577C419.048 143.548 418.97 143.505 418.916 143.475C418.913 143.473 418.91 143.471 418.907 143.47C418.835 143.43 418.796 143.41 418.761 143.4L418.178 143.244L415.904 142.558L415.891 142.554C415.114 142.346 414.352 142.142 413.618 141.541Z" fill="#717791"/>
<path d="M404.637 137.806L404.944 137.811C405.485 137.803 405.911 138.224 405.919 138.765C405.928 139.307 405.506 139.732 404.965 139.741C404.803 139.774 404.587 139.717 404.463 139.606L404.195 139.458C403.803 139.199 403.631 138.691 403.89 138.299C404.039 138.031 404.383 137.892 404.637 137.806Z" fill="#717791"/>
<path d="M361.248 191.747C361.248 191.747 357.587 190.765 357.371 190.708C357.299 190.688 357.228 190.669 357.156 190.65C357.084 190.631 357.103 190.559 357.122 190.487C358.042 186.193 359.752 182.111 360.887 177.875C361.329 176.223 361.628 174.533 361.999 172.863L362.018 172.791C363.382 173.156 364.747 173.522 366.111 173.887C365.608 173.753 361.561 190.291 361.248 191.747Z" fill="#DBE6FC"/>
<path d="M368.697 193.819C368.697 193.819 365.035 192.838 364.819 192.78C364.748 192.761 364.676 192.742 364.604 192.723C364.532 192.703 364.551 192.632 364.551 192.632C364.957 189.97 366.315 187.486 367.007 184.902C367.205 183.877 367.402 182.853 367.6 181.828L367.619 181.756C368.983 182.122 370.348 182.487 371.712 182.853C371.138 182.699 368.784 192.919 368.697 193.819Z" fill="#DBE6FC"/>
<path d="M375.642 195.757C375.642 195.757 371.98 194.776 371.765 194.718C371.693 194.699 371.621 194.68 371.549 194.661C371.478 194.641 371.497 194.57 371.497 194.57C372.166 191.209 373.645 187.988 374.53 184.685C374.876 183.393 375.079 182.062 375.354 180.75L375.373 180.679C376.737 181.044 378.101 181.41 379.465 181.775C378.982 181.569 375.806 194.57 375.642 195.757Z" fill="#DBE6FC"/>
<path d="M382.731 197.734C382.731 197.734 379.069 196.753 378.854 196.695C378.782 196.676 378.71 196.656 378.639 196.637C378.567 196.618 378.586 196.546 378.605 196.474C379.409 192.611 381.004 188.96 382.042 185.082C382.446 183.575 382.688 182.1 383.02 180.573L383.039 180.501C384.403 180.867 385.768 181.232 387.132 181.598C386.61 181.535 382.953 196.331 382.731 197.734Z" fill="#DBE6FC"/>
<path d="M390.107 199.787C390.107 199.787 386.445 198.806 386.23 198.748C386.158 198.729 386.086 198.71 386.014 198.691C385.943 198.671 385.962 198.6 385.962 198.6C386.574 195.454 387.975 192.521 388.803 189.434C389.058 188.194 389.313 186.954 389.549 185.786L389.569 185.714C390.933 186.079 392.297 186.445 393.661 186.811C393.178 186.604 390.252 198.672 390.107 199.787Z" fill="#DBE6FC"/>
<path d="M397.196 201.764C397.196 201.764 393.535 200.783 393.319 200.725C393.247 200.706 393.176 200.686 393.104 200.667C393.032 200.648 393.051 200.576 393.051 200.576C393.303 198.489 394.416 196.632 395.007 194.713C395.147 193.904 395.287 193.095 395.336 192.338C396.7 192.704 398.064 193.069 399.428 193.435C398.945 193.228 397.245 201.007 397.196 201.764Z" fill="#DBE6FC"/>
<path fill-rule="evenodd" clip-rule="evenodd" d="M367.459 167.281C367.501 167.29 367.543 167.304 367.586 167.321C367.97 167.477 368.166 167.904 368.034 168.297C367.991 168.426 367.917 168.536 367.823 168.623C367.772 168.735 367.699 168.917 367.607 169.177C367.409 169.735 367.151 170.561 366.85 171.582C366.249 173.618 365.494 176.382 364.742 179.223C363.235 184.919 361.759 190.859 361.568 191.851C361.527 192.065 361.399 192.252 361.214 192.367C361.03 192.483 360.806 192.516 360.596 192.46L356.718 191.421C356.715 191.42 356.712 191.419 356.708 191.418C356.609 191.392 356.263 191.302 356.046 190.926L356.044 190.922C356.034 190.904 356.014 190.87 355.997 190.836C355.977 190.798 355.936 190.714 355.914 190.603C355.888 190.477 355.895 190.368 355.908 190.288C355.915 190.245 355.926 190.203 355.931 190.182C356.59 187.29 357.442 184.475 358.32 181.701C358.519 181.073 358.718 180.448 358.918 179.825C359.603 177.68 360.283 175.555 360.888 173.406C361.271 171.977 361.596 170.511 361.922 169.038C362.084 168.308 362.246 167.576 362.416 166.845C362.418 166.836 362.42 166.828 362.422 166.82L362.441 166.748C362.553 166.33 362.983 166.082 363.401 166.194L367.459 167.281ZM366.165 168.557L363.779 167.917C363.673 168.384 363.568 168.856 363.462 169.332C363.131 170.827 362.793 172.354 362.401 173.817L362.398 173.826C361.784 176.006 361.093 178.167 360.405 180.318C360.208 180.938 360.01 181.556 359.814 182.173C358.991 184.776 358.203 187.376 357.576 190.028L360.21 190.734C360.693 188.658 361.957 183.623 363.227 178.822C363.98 175.977 364.739 173.196 365.346 171.138C365.649 170.112 365.917 169.253 366.13 168.653C366.142 168.62 366.153 168.588 366.165 168.557ZM357.105 189.902C357.105 189.902 357.107 189.902 357.11 189.903L357.105 189.902ZM367.075 168.801L367.088 168.804C367.117 168.812 367.146 168.818 367.174 168.822C367.142 168.817 367.109 168.81 367.075 168.801Z" fill="#717791"/>
<path fill-rule="evenodd" clip-rule="evenodd" d="M372.242 178.49C372.335 178.505 372.434 178.539 372.536 178.6C372.871 178.801 373.007 179.218 372.855 179.578C372.806 179.693 372.732 179.791 372.642 179.868C372.622 179.912 372.597 179.971 372.567 180.049C372.443 180.364 372.282 180.849 372.094 181.468C371.721 182.699 371.261 184.388 370.807 186.135C369.894 189.652 369.034 193.293 368.95 193.869C368.918 194.091 368.793 194.288 368.606 194.411C368.419 194.534 368.188 194.571 367.972 194.513L363.88 193.417C363.73 193.377 363.577 193.293 363.455 193.155C363.338 193.021 363.284 192.876 363.261 192.764C363.239 192.655 363.242 192.563 363.248 192.504C363.251 192.473 363.255 192.446 363.26 192.423C363.261 192.417 363.262 192.412 363.263 192.406C363.628 190.603 364.194 188.865 364.772 187.172C364.865 186.901 364.958 186.631 365.05 186.363C365.541 184.939 366.021 183.545 366.402 182.123C366.636 181.249 366.797 180.413 366.965 179.538C367.055 179.069 367.148 178.588 367.255 178.084C367.257 178.071 367.261 178.057 367.264 178.044L367.283 177.972C367.395 177.554 367.825 177.306 368.243 177.418L372.242 178.49ZM370.995 179.778L368.638 179.147C368.598 179.349 368.559 179.552 368.52 179.756C368.344 180.669 368.164 181.604 367.916 182.528C367.52 184.009 367.019 185.462 366.528 186.886C366.436 187.151 366.345 187.416 366.255 187.679C365.751 189.153 365.278 190.603 364.938 192.078L367.572 192.783C367.891 191.326 368.586 188.454 369.29 185.741C369.745 183.988 370.212 182.275 370.595 181.013C370.739 180.538 370.874 180.117 370.995 179.778ZM371.886 180.017L371.93 180.029C371.985 180.043 372.04 180.052 372.095 180.055C372.029 180.053 371.959 180.042 371.886 180.017ZM372.688 179.775C372.693 179.767 372.692 179.768 372.687 179.776C372.687 179.776 372.688 179.775 372.688 179.775Z" fill="#717791"/>
<path fill-rule="evenodd" clip-rule="evenodd" d="M375.364 175.674C375.476 175.256 375.906 175.008 376.324 175.12L380.416 176.216C380.81 176.322 381.057 176.712 380.985 177.113C380.957 177.265 380.888 177.398 380.79 177.504C380.75 177.596 380.693 177.744 380.621 177.955C380.466 178.404 380.265 179.062 380.03 179.873C379.562 181.491 378.974 183.675 378.388 185.916C377.215 190.403 376.058 195.08 375.886 195.862C375.84 196.071 375.71 196.253 375.527 196.364C375.345 196.475 375.124 196.507 374.918 196.451L371.04 195.412C371.037 195.411 371.034 195.411 371.03 195.41C370.95 195.389 370.71 195.326 370.506 195.106C370.463 195.068 370.422 195.025 370.384 194.975C370.255 194.804 370.221 194.626 370.214 194.511C370.207 194.4 370.223 194.309 370.232 194.264C370.238 194.23 370.246 194.199 370.252 194.179C370.749 191.889 371.439 189.679 372.147 187.505C372.259 187.161 372.371 186.817 372.484 186.474C373.084 184.64 373.678 182.827 374.175 180.973C374.477 179.844 374.713 178.716 374.954 177.564C375.077 176.976 375.202 176.382 375.337 175.777C375.339 175.767 375.342 175.756 375.345 175.746L375.364 175.674ZM374.543 194.728C374.955 193.018 375.911 189.195 376.872 185.52C377.459 183.275 378.05 181.076 378.524 179.437C378.753 178.647 378.958 177.976 379.122 177.492L376.708 176.845C376.638 177.17 376.57 177.497 376.501 177.827C376.254 179.006 376.002 180.21 375.689 181.379C375.18 183.278 374.571 185.137 373.97 186.971C373.859 187.312 373.747 187.652 373.637 187.99C372.984 189.997 372.363 191.984 371.894 194.018L374.543 194.728ZM371.427 193.893C371.427 193.893 371.429 193.893 371.432 193.894L371.427 193.893Z" fill="#717791"/>
<path fill-rule="evenodd" clip-rule="evenodd" d="M383.256 174.941C383.368 174.523 383.797 174.275 384.215 174.387L388.308 175.484C388.726 175.596 388.974 176.025 388.862 176.443C388.825 176.581 388.754 176.7 388.66 176.794C388.613 176.898 388.548 177.067 388.464 177.306C388.286 177.817 388.053 178.569 387.782 179.496C387.241 181.346 386.561 183.848 385.882 186.416C384.524 191.556 383.184 196.915 382.993 197.77C382.947 197.978 382.817 198.159 382.634 198.269C382.452 198.38 382.232 198.411 382.026 198.356L378.148 197.317C378.145 197.316 378.142 197.315 378.138 197.314C378.039 197.288 377.693 197.197 377.476 196.822L377.474 196.818C377.464 196.8 377.444 196.766 377.427 196.732C377.407 196.694 377.366 196.61 377.344 196.499C377.318 196.373 377.325 196.264 377.338 196.184C377.345 196.142 377.355 196.101 377.361 196.08C377.944 193.471 378.719 190.942 379.523 188.445C379.702 187.888 379.883 187.334 380.063 186.78C380.694 184.84 381.321 182.913 381.876 180.953C382.219 179.669 382.505 178.351 382.792 177.023C382.935 176.364 383.078 175.702 383.229 175.041C383.232 175.032 383.234 175.022 383.236 175.013L383.256 174.941ZM381.653 196.633C382.111 194.755 383.235 190.299 384.367 186.016C385.046 183.445 385.731 180.926 386.278 179.056C386.551 178.123 386.793 177.34 386.985 176.79C386.989 176.778 386.993 176.767 386.997 176.755L384.595 176.112C384.509 176.504 384.422 176.903 384.335 177.304C384.042 178.657 383.742 180.043 383.388 181.364L383.385 181.375C382.821 183.369 382.181 185.335 381.548 187.282C381.369 187.831 381.191 188.379 381.015 188.926C380.267 191.25 379.557 193.562 379.004 195.924L381.653 196.633ZM378.535 195.798C378.535 195.798 378.537 195.798 378.54 195.799L378.535 195.798ZM388.051 177.023C388.004 177.019 387.954 177.012 387.902 176.998C387.952 177.011 388.002 177.019 388.051 177.023Z" fill="#717791"/>
<path fill-rule="evenodd" clip-rule="evenodd" d="M389.555 181.015C389.667 180.597 390.096 180.349 390.515 180.461L394.607 181.558C395.007 181.665 395.255 182.065 395.172 182.47C395.137 182.646 395.045 182.797 394.918 182.907C394.883 182.98 394.834 183.094 394.773 183.255C394.62 183.659 394.425 184.26 394.2 185.01C393.752 186.504 393.205 188.526 392.667 190.606C391.586 194.784 390.564 199.104 390.45 199.798C390.414 200.016 390.288 200.21 390.102 200.33C389.916 200.45 389.688 200.486 389.474 200.428L385.382 199.332C385.233 199.292 385.055 199.202 384.921 199.024C384.792 198.854 384.758 198.676 384.751 198.56C384.744 198.449 384.76 198.358 384.769 198.313C384.775 198.28 384.783 198.25 384.788 198.229C385.238 196.116 385.887 194.065 386.553 192.045C386.657 191.73 386.761 191.415 386.865 191.102C387.434 189.388 387.997 187.692 388.462 185.956C388.741 184.914 388.961 183.84 389.185 182.751C389.296 182.211 389.407 181.667 389.527 181.122C389.53 181.11 389.532 181.099 389.535 181.087L389.555 181.015ZM389.077 198.699C389.441 197.051 390.286 193.552 391.15 190.213C391.689 188.128 392.242 186.082 392.698 184.56C392.906 183.866 393.098 183.268 393.263 182.82L390.902 182.188C390.846 182.457 390.79 182.73 390.733 183.005C390.504 184.121 390.267 185.275 389.976 186.361C389.498 188.146 388.918 189.892 388.35 191.605C388.246 191.916 388.143 192.227 388.041 192.536C387.438 194.365 386.868 196.165 386.446 197.994L389.077 198.699ZM394.957 182.834C394.957 182.834 394.956 182.834 394.955 182.835L394.957 182.834Z" fill="#717791"/>
<path fill-rule="evenodd" clip-rule="evenodd" d="M394.812 188.965C394.924 188.547 395.354 188.299 395.772 188.411L399.865 189.508C400.262 189.614 400.509 190.01 400.431 190.414C400.396 190.597 400.299 190.754 400.165 190.865C400.151 190.896 400.133 190.937 400.111 190.989C400.011 191.231 399.883 191.603 399.736 192.082C399.443 193.034 399.096 194.329 398.756 195.668C398.076 198.35 397.443 201.141 397.359 201.591C397.319 201.805 397.191 201.993 397.006 202.11C396.822 202.226 396.597 202.26 396.386 202.204L392.294 201.107C392.144 201.067 391.991 200.983 391.869 200.845C391.751 200.711 391.698 200.566 391.675 200.454C391.653 200.346 391.656 200.254 391.662 200.195C391.665 200.163 391.669 200.136 391.673 200.114C391.674 200.112 391.674 200.11 391.675 200.108C391.936 198.684 392.401 197.33 392.874 196.032C392.95 195.822 393.027 195.615 393.103 195.408C393.501 194.325 393.885 193.281 394.174 192.209C394.271 191.705 394.373 191.183 394.475 190.663C394.578 190.133 394.682 189.603 394.781 189.092C394.784 189.073 394.788 189.055 394.793 189.037L394.812 188.965ZM395.995 200.476C396.251 199.331 396.734 197.267 397.237 195.282C397.578 193.937 397.933 192.611 398.238 191.621C398.334 191.307 398.428 191.019 398.517 190.77L396.174 190.142C396.121 190.414 396.067 190.688 396.013 190.962C395.91 191.493 395.806 192.023 395.708 192.534C395.704 192.552 395.7 192.57 395.695 192.588C395.385 193.744 394.969 194.874 394.568 195.965C394.493 196.168 394.419 196.369 394.346 196.569C393.953 197.649 393.591 198.7 393.346 199.766L395.995 200.476ZM400.204 190.792C400.205 190.789 400.205 190.79 400.203 190.793L400.204 190.792Z" fill="#717791"/>
<path d="M388.367 154.301C390.023 154.437 391.694 154.808 393.273 155.231L398.065 156.592C399.644 157.015 401.277 157.53 402.856 157.953C404.417 158.448 406.049 158.962 407.609 159.457C407.896 159.534 407.982 159.788 407.905 160.075C407.848 160.291 407.575 160.449 407.359 160.391C405.76 160.039 404.07 159.74 402.471 159.389C400.873 159.038 399.202 158.667 397.622 158.244L392.793 157.026C391.213 156.603 389.561 156.161 388.059 155.45C387.791 155.301 387.652 154.957 387.729 154.669C387.878 154.401 388.132 154.315 388.367 154.301Z" fill="#717791"/>
<path d="M394.832 161.19C396.905 161.207 398.825 161.798 400.763 162.318C402.683 162.909 404.602 163.5 406.464 164.307C406.679 164.364 406.837 164.638 406.688 164.906C406.63 165.121 406.376 165.207 406.233 165.168C404.217 164.936 402.24 164.56 400.282 164.113C398.324 163.665 396.367 163.217 394.563 162.195C394.295 162.046 394.228 161.721 394.358 161.525C394.434 161.237 394.597 161.204 394.832 161.19Z" fill="#717791"/>
<path d="M387.149 159.131C388.055 158.912 388.897 159.215 389.687 159.426C390.477 159.638 391.3 160.013 392.032 160.44C392.3 160.588 392.438 160.933 392.29 161.201C392.16 161.397 391.978 161.502 391.743 161.517C390.896 161.52 390.015 161.361 389.206 161.221C388.416 161.01 387.535 160.851 386.861 160.208C386.612 159.988 386.565 159.59 386.785 159.342C386.896 159.217 387.006 159.093 387.149 159.131Z" fill="#717791"/>
<path d="M402.968 168.449C403.404 168.258 403.802 168.211 404.252 168.254C404.467 168.312 404.63 168.279 404.826 168.408C405.022 168.538 405.147 168.648 405.324 168.849C405.534 169.214 405.399 169.716 405.016 169.998C404.743 170.156 404.58 170.189 404.364 170.132C404.13 170.146 404.005 170.035 403.79 169.978C403.45 169.81 403.13 169.57 402.776 169.167C402.599 168.966 402.676 168.679 402.968 168.449C402.877 168.502 402.949 168.521 402.968 168.449Z" fill="#717791"/>
<path d="M385.86 163.942C387.028 164.178 388.216 164.342 389.384 164.578C390.552 164.814 391.72 165.05 392.869 165.358C394.037 165.594 395.186 165.902 396.334 166.21C397.483 166.518 398.651 166.754 399.704 167.42C400.044 167.588 400.163 168.005 399.923 168.326C399.794 168.522 399.611 168.627 399.377 168.641C398.151 168.62 397.002 168.313 395.853 168.005C394.705 167.697 393.556 167.389 392.426 167.009C391.277 166.702 390.148 166.322 389.018 165.942C387.889 165.563 386.759 165.183 385.63 164.803C385.414 164.746 385.256 164.473 385.386 164.277C385.444 164.061 385.645 163.884 385.86 163.942Z" fill="#717791"/>
<path d="M389.637 149.563C390.806 149.799 391.993 149.963 393.161 150.199C394.329 150.435 395.497 150.671 396.646 150.979C397.814 151.215 398.963 151.523 400.111 151.831C401.26 152.138 402.428 152.374 403.481 153.041C403.821 153.209 403.94 153.626 403.7 153.946C403.571 154.143 403.369 154.32 403.154 154.262C401.928 154.241 400.779 153.933 399.63 153.626C398.482 153.318 397.333 153.01 396.203 152.63C395.054 152.322 393.925 151.943 392.795 151.563C391.666 151.184 390.536 150.804 389.407 150.424C389.191 150.367 389.034 150.093 389.163 149.897C389.221 149.682 389.403 149.577 389.637 149.563Z" fill="#717791"/>
<path d="M405.811 153.82C406.299 153.72 406.821 153.783 407.271 153.826C407.506 153.812 407.721 153.87 408.008 153.947C408.224 154.005 408.439 154.062 408.65 154.426C408.841 154.862 408.706 155.365 408.322 155.647C408.03 155.877 407.815 155.819 407.528 155.742C407.312 155.684 407.116 155.555 406.829 155.478C406.417 155.29 405.953 155.012 405.561 154.753C405.365 154.624 405.298 154.298 405.499 154.121C405.629 153.925 405.72 153.872 405.811 153.82Z" fill="#717791"/>
<path fill-rule="evenodd" clip-rule="evenodd" d="M370.884 147.33C371.872 146.685 373.122 146.327 374.323 146.345C375.525 146.363 376.594 146.754 377.323 147.501C377.727 147.914 378.388 147.922 378.801 147.519C379.214 147.116 379.222 146.455 378.819 146.042C377.617 144.81 375.97 144.28 374.355 144.255C372.742 144.231 371.077 144.705 369.732 145.587L369.72 145.595C366.975 147.453 365.269 150.874 365.603 154.202C365.94 157.568 368.227 160.134 370.917 161.605L370.92 161.606C372.842 162.65 375.542 162.946 377.705 162.189L377.722 162.182C380.161 161.28 381.873 158.99 382.608 156.564C382.751 156.093 382.545 155.587 382.115 155.348C380.266 154.321 378.351 153.496 376.32 152.909L376.368 152.803C376.372 152.794 376.376 152.784 376.38 152.775L377.019 151.253C377.242 150.721 376.992 150.109 376.46 149.885C375.928 149.662 375.315 149.912 375.092 150.444L374.459 151.952L373.904 153.173C373.774 153.457 373.779 153.785 373.917 154.066C374.055 154.346 374.311 154.551 374.615 154.622C376.613 155.093 378.494 155.814 380.319 156.756C379.632 158.378 378.436 159.686 377.006 160.219C375.434 160.766 373.352 160.548 371.918 159.77C369.642 158.525 367.932 156.48 367.682 153.994C367.43 151.473 368.745 148.782 370.884 147.33Z" fill="#717791"/>
<path d="M380.073 149.683C380.238 149.069 380.403 148.454 380.623 147.854C380.788 147.24 381.009 146.64 381.229 146.041C381.375 145.72 381.714 145.572 382.049 145.661L382.105 145.676C382.746 145.968 383.412 146.386 383.978 146.957C384.558 147.472 384.982 148.124 385.265 148.858C385.562 149.537 385.703 150.353 385.676 151.124C385.593 151.881 385.383 152.663 384.827 153.173C384.727 153.325 384.503 153.265 384.406 153.18C384.365 153.109 384.324 153.038 384.339 152.982C384.337 152.323 384.319 151.719 384.301 151.115C384.283 150.512 384.123 149.99 383.908 149.453C383.692 148.916 383.406 148.42 382.993 147.95C382.636 147.495 382.122 147.178 381.593 146.917L382.469 146.552C382.193 147.137 381.876 147.651 381.599 148.236C381.267 148.805 381.005 149.334 380.673 149.904C380.572 150.056 380.446 150.082 380.293 149.982C380.069 149.922 380.043 149.795 380.073 149.683Z" fill="#717791"/>
<path d="M160.034 132.396L165.132 131.03C166.639 130.626 168.259 131.5 168.682 133.08L186.814 200.175C187.218 201.683 186.344 203.303 184.764 203.726L132.297 217.861C130.789 218.265 129.17 217.391 128.747 215.811L110.615 148.716C110.211 147.208 111.085 145.589 112.664 145.166L146.679 135.975" fill="white"/>
<path d="M185.764 203.15C185.444 203.39 185.104 203.558 184.745 203.654L132.278 217.789C130.77 218.193 129.15 217.319 128.727 215.739L110.595 148.644C110.191 147.136 111.066 145.517 112.645 145.094L146.659 135.903" fill="white"/>
<path d="M186.076 203.451C185.794 203.835 185.258 204.132 184.774 204.339C184.363 204.526 183.932 204.641 183.521 204.828C182.678 205.131 181.797 205.29 180.936 205.521L175.838 206.887L165.661 209.691L145.217 215.246L135.041 218.049L132.456 218.742C131.307 219.05 130.076 218.764 129.18 218.004C128.706 217.669 128.336 217.152 128.13 216.669C127.981 216.401 127.904 216.114 127.846 215.899L127.673 215.252L126.981 212.667L121.426 192.223L110.407 151.388L109.714 148.803C109.407 147.655 109.692 146.424 110.453 145.527C110.787 145.053 111.304 144.684 111.859 144.458C112.486 144.213 112.845 144.117 113.276 144.001L115.861 143.309L126.056 140.577L136.252 137.845C139.646 137.012 143.015 135.802 146.544 135.472C146.85 135.467 147.052 135.644 147.129 135.931C147.115 136.165 147.01 136.348 146.813 136.477C143.593 137.956 140.089 138.664 136.733 139.64L126.537 142.372L116.342 145.104L113.757 145.796C113.326 145.912 112.823 146.046 112.608 146.104C112.34 146.253 112.072 146.402 111.895 146.603C111.489 147.097 111.336 147.676 111.49 148.251L112.164 150.764L123.182 191.599L128.665 212.062L129.358 214.647C129.473 215.078 129.608 215.58 129.666 215.796C129.815 216.064 129.963 216.332 130.237 216.489C130.73 216.896 131.382 217.029 131.956 216.875L134.469 216.202L144.665 213.47L165.128 207.987L175.324 205.255L180.421 203.889C181.283 203.658 182.145 203.427 183.006 203.196C183.437 203.081 183.887 203.037 184.318 202.922C184.768 202.878 185.055 202.801 185.414 202.705C185.63 202.647 185.883 202.733 186.013 202.929C186.162 203.197 186.128 203.36 186.076 203.451Z" fill="#717791"/>
<path fill-rule="evenodd" clip-rule="evenodd" d="M186.295 203.594L186.286 203.606C185.96 204.049 185.367 204.369 184.88 204.578C184.665 204.675 184.447 204.753 184.24 204.828L184.236 204.829C184.023 204.906 183.823 204.978 183.629 205.066L183.619 205.071L183.609 205.074C183.034 205.281 182.43 205.425 181.843 205.565C181.557 205.633 181.275 205.7 181.003 205.773L175.907 207.139L175.905 207.139L165.731 209.943L145.287 215.498L135.11 218.301L135.108 218.302L132.524 218.994C131.295 219.324 129.98 219.02 129.02 218.21C128.507 217.846 128.116 217.296 127.895 216.784C127.735 216.491 127.652 216.184 127.596 215.974L126.728 212.736L121.174 192.292L110.155 151.456L109.462 148.871C109.133 147.642 109.436 146.327 110.246 145.367C110.615 144.848 111.173 144.455 111.761 144.216L111.764 144.214C112.404 143.964 112.774 143.865 113.208 143.749L136.19 137.591C137.17 137.351 138.155 137.076 139.148 136.8C141.555 136.129 144.004 135.447 146.52 135.212L146.53 135.211L146.54 135.211C146.746 135.207 146.935 135.266 147.087 135.389C147.236 135.51 147.331 135.678 147.381 135.863L147.392 135.904L147.389 135.946C147.37 136.263 147.222 136.52 146.957 136.695L146.94 136.706L146.922 136.714C144.538 137.809 141.992 138.487 139.489 139.154C138.586 139.395 137.688 139.634 136.806 139.891L136.801 139.892L112.707 146.348C112.443 146.495 112.231 146.619 112.094 146.772C111.735 147.21 111.614 147.703 111.742 148.183L112.416 150.696L123.434 191.531L129.909 215.696C130.057 215.961 130.173 216.151 130.367 216.263L130.386 216.274L130.402 216.288C130.832 216.641 131.396 216.755 131.888 216.623L182.939 202.944C183.164 202.883 183.393 202.842 183.61 202.803L183.616 202.802C183.838 202.762 184.047 202.724 184.25 202.669L184.271 202.664L184.293 202.662C184.72 202.62 184.989 202.548 185.346 202.453C185.665 202.367 186.036 202.491 186.231 202.785L186.236 202.794L186.241 202.803C186.424 203.132 186.41 203.394 186.302 203.582L186.295 203.594ZM129.666 215.796L123.182 191.599L112.163 150.764L111.49 148.251C111.336 147.676 111.489 147.097 111.895 146.603C112.072 146.402 112.34 146.253 112.608 146.104L136.733 139.64C137.628 139.38 138.533 139.138 139.44 138.897C141.937 138.231 144.451 137.561 146.813 136.477C147.009 136.348 147.115 136.165 147.129 135.931C147.052 135.644 146.85 135.467 146.544 135.472C144.052 135.705 141.64 136.377 139.243 137.045C138.245 137.323 137.249 137.6 136.252 137.845L113.276 144.001C112.845 144.117 112.486 144.213 111.859 144.458C111.304 144.684 110.787 145.053 110.453 145.527C109.692 146.424 109.406 147.655 109.714 148.803L110.407 151.388L121.426 192.223L126.981 212.667L127.846 215.898C127.904 216.114 127.981 216.401 128.13 216.669C128.336 217.152 128.706 217.669 129.18 218.004C130.076 218.764 131.307 219.05 132.456 218.742L135.041 218.049L145.217 215.246L165.661 209.691L175.838 206.887L180.936 205.521C181.223 205.444 181.512 205.375 181.801 205.306C182.38 205.168 182.959 205.03 183.52 204.828C183.726 204.735 183.937 204.659 184.147 204.584C184.358 204.508 184.569 204.432 184.774 204.339C185.258 204.132 185.794 203.835 186.076 203.451C186.128 203.36 186.162 203.197 186.013 202.929C185.883 202.733 185.629 202.647 185.414 202.705C185.055 202.801 184.768 202.878 184.318 202.922C184.102 202.98 183.882 203.019 183.662 203.059C183.442 203.099 183.222 203.139 183.006 203.196L131.956 216.875C131.381 217.029 130.73 216.896 130.236 216.489C129.963 216.332 129.815 216.064 129.666 215.796Z" fill="#717791"/>
<path d="M160.033 132.396L165.131 131.03C166.639 130.626 168.258 131.5 168.682 133.08L185.871 196.657" fill="white"/>
<path d="M159.937 132.037C160.631 131.466 161.368 131.346 162.139 131.062L164.417 130.375L164.992 130.221C165.207 130.163 165.494 130.086 165.729 130.1C166.251 130.038 166.739 130.137 167.175 130.328C168.119 130.691 168.852 131.418 169.265 132.385L171.8 141.556L176.849 159.827L179.364 168.926C180.172 171.942 181 175.029 181.808 178.045C182.616 181.061 183.371 184.167 184.107 187.202L185.267 191.817C185.599 193.344 186.003 194.852 186.355 196.45C186.412 196.666 186.255 196.939 186.039 196.997C185.824 197.054 185.623 196.877 185.493 196.681C184.945 195.212 184.541 193.704 184.118 192.125L182.743 187.568C181.863 184.571 180.964 181.503 180.085 178.507C179.205 175.51 178.377 172.423 177.569 169.407L175.126 160.289L170.292 141.96L169.061 137.365L168.445 135.067L168.137 133.919C168.041 133.56 167.926 133.129 167.849 132.842C167.623 132.286 167.201 131.861 166.621 131.708C166.367 131.622 166.042 131.556 165.735 131.561C165.592 131.599 165.429 131.566 165.285 131.604L164.711 131.758L162.394 132.302C161.604 132.514 160.886 132.706 160 132.559C159.766 132.545 159.636 132.349 159.65 132.114C159.813 132.147 159.866 132.056 159.937 132.037Z" fill="#717791"/>
<path fill-rule="evenodd" clip-rule="evenodd" d="M159.746 132.12C159.802 132.114 159.84 132.09 159.874 132.069C159.896 132.055 159.916 132.043 159.937 132.037C160.46 131.607 161.007 131.433 161.574 131.252C161.76 131.192 161.948 131.132 162.139 131.062L164.417 130.375L164.991 130.221C165.207 130.163 165.494 130.086 165.729 130.1C166.251 130.038 166.739 130.137 167.175 130.329C168.119 130.691 168.852 131.418 169.265 132.385L179.364 168.926L181.808 178.045C182.616 181.061 183.371 184.167 184.107 187.202L185.267 191.817C185.435 192.589 185.621 193.357 185.81 194.134C185.994 194.893 186.181 195.661 186.355 196.45C186.412 196.666 186.255 196.939 186.039 196.997C185.824 197.054 185.622 196.878 185.493 196.681C184.945 195.212 184.542 193.705 184.118 192.126L184.118 192.125L182.743 187.568C182.303 186.07 181.858 184.553 181.414 183.037C180.969 181.521 180.524 180.005 180.084 178.507C179.205 175.51 178.377 172.423 177.569 169.407L175.126 160.289L170.292 141.96L167.848 132.842C167.623 132.286 167.201 131.861 166.621 131.708C166.367 131.622 166.042 131.556 165.735 131.561C165.663 131.58 165.587 131.581 165.51 131.583C165.434 131.584 165.357 131.585 165.285 131.604L164.711 131.758L162.394 132.302C161.604 132.514 160.886 132.706 160 132.559C159.866 132.551 159.766 132.483 159.708 132.382C159.664 132.307 159.644 132.214 159.65 132.114C159.687 132.122 159.718 132.123 159.746 132.12ZM159.969 132.819C159.783 132.803 159.626 132.714 159.523 132.576C159.419 132.438 159.379 132.266 159.389 132.098L159.407 131.798L159.702 131.858C159.708 131.859 159.712 131.86 159.714 131.86C159.718 131.858 159.721 131.856 159.728 131.852C159.733 131.849 159.739 131.845 159.749 131.839C159.76 131.832 159.779 131.821 159.804 131.809C160.17 131.515 160.545 131.336 160.918 131.197C161.108 131.126 161.3 131.065 161.488 131.005L161.492 131.004C161.68 130.944 161.864 130.885 162.049 130.817L162.056 130.815L164.349 130.122L164.924 129.969C164.93 129.967 164.935 129.966 164.941 129.964C165.14 129.911 165.448 129.828 165.72 129.838C166.285 129.775 166.811 129.885 167.274 130.087C168.285 130.477 169.067 131.257 169.505 132.282L169.512 132.298L179.617 168.859L182.06 177.977C182.869 180.996 183.625 184.106 184.361 187.14C184.361 187.14 184.361 187.139 184.361 187.14L185.522 191.761C185.688 192.521 185.871 193.277 186.057 194.045L186.064 194.074C186.248 194.83 186.435 195.598 186.609 196.389C186.657 196.577 186.61 196.768 186.525 196.913C186.44 197.061 186.297 197.198 186.107 197.249C185.906 197.303 185.725 197.241 185.59 197.152C185.458 197.065 185.352 196.942 185.275 196.825L185.259 196.8L185.248 196.773C184.696 195.292 184.29 193.774 183.868 192.2L183.867 192.196L182.492 187.641C182.053 186.144 181.608 184.628 181.163 183.112L181.163 183.111C180.718 181.595 180.274 180.079 179.834 178.58C178.953 175.581 178.125 172.49 177.317 169.475L174.874 160.356L170.039 142.028L167.601 132.926C167.399 132.441 167.037 132.088 166.555 131.961L166.546 131.959L166.538 131.956C166.313 131.88 166.029 131.822 165.767 131.822C165.676 131.841 165.587 131.843 165.524 131.844C165.521 131.844 165.518 131.844 165.515 131.844C165.432 131.845 165.388 131.847 165.353 131.857L164.771 132.013L162.458 132.556L162.445 132.559C161.668 132.767 160.906 132.971 159.969 132.819Z" fill="#717791"/>
<path d="M150.325 134.074L150.593 133.925C151.057 133.647 151.637 133.8 151.915 134.264C152.193 134.728 152.041 135.307 151.576 135.586C151.452 135.696 151.237 135.754 151.074 135.72L150.767 135.726C150.298 135.697 149.896 135.343 149.924 134.874C149.919 134.568 150.076 134.295 150.325 134.074Z" fill="#717791"/>
<path d="M129.066 158.701L131.773 159.9L130.48 160.246L133.854 155.033C134.012 154.76 134.371 154.663 134.663 154.893C134.937 155.051 135.033 155.41 134.875 155.683L132.066 161.283L132.086 161.355C131.895 161.791 131.392 161.926 130.956 161.735L130.865 161.682L128.473 159.937C128.2 159.78 128.176 159.402 128.334 159.128C128.505 158.621 128.793 158.544 129.066 158.701Z" fill="#717791"/>
<path d="M138.278 158.619C138.591 160.074 138.349 161.755 137.47 163.068C136.59 164.381 135.236 165.359 133.748 165.835C132.259 166.311 130.564 166.303 129.113 165.769C127.661 165.234 126.309 164.211 125.422 162.91C124.535 161.609 124.092 159.957 124.282 158.367C124.4 156.796 125.059 155.235 126.139 154.099C127.22 152.963 128.613 152.128 130.159 151.867C131.686 151.535 133.386 151.849 134.45 152.949C134.561 153.073 134.527 153.236 134.475 153.327C134.422 153.418 134.35 153.438 134.259 153.385C132.852 153.3 131.75 153.211 130.491 153.394C129.323 153.63 128.27 154.297 127.51 155.193C126.75 156.09 126.282 157.216 126.212 158.389C126.141 159.562 126.468 160.783 127.116 161.763C127.763 162.744 128.731 163.485 129.838 163.881C130.945 164.277 132.19 164.329 133.319 163.949C134.449 163.569 135.41 162.85 136.08 161.901C136.749 160.952 137.38 159.86 137.483 158.524C137.497 158.289 137.746 158.069 137.981 158.083C138.091 158.207 138.221 158.403 138.278 158.619Z" fill="#717791"/>
<path d="M142.197 152.566C143.106 151.938 144.02 151.616 145.025 151.347C146.031 151.077 146.964 150.827 147.969 150.558C148.975 150.289 149.927 150.11 150.932 149.841C151.957 149.643 152.909 149.465 153.934 149.268C154.221 149.191 154.513 149.42 154.59 149.707C154.667 149.995 154.51 150.268 154.222 150.345C153.236 150.686 152.322 151.008 151.336 151.349C150.35 151.69 149.417 151.94 148.431 152.281C147.426 152.55 146.512 152.872 145.506 153.142C144.501 153.411 143.568 153.661 142.447 153.5C142.141 153.505 141.901 153.184 141.987 152.931C141.968 152.859 142.073 152.677 142.197 152.566Z" fill="#717791"/>
<path d="M143.371 156.946C144.586 156.313 145.788 155.914 147.08 155.568C148.372 155.221 149.593 154.894 150.885 154.548C152.178 154.202 153.418 153.946 154.71 153.6C156.003 153.254 157.242 152.998 158.554 152.724C158.913 152.628 159.296 152.91 159.373 153.197C159.47 153.556 159.24 153.848 158.972 153.997C157.699 154.415 156.498 154.814 155.205 155.16C153.913 155.507 152.711 155.905 151.419 156.252C150.127 156.598 148.906 156.925 147.614 157.271C146.321 157.618 145.1 157.945 143.731 158.004C143.425 158.009 143.132 157.78 143.108 157.401C143.069 157.258 143.175 157.076 143.371 156.946Z" fill="#717791"/>
<path d="M156.265 148.489C156.657 148.23 157.14 148.024 157.571 147.908L158.935 147.543C159.869 147.293 160.73 147.062 161.683 146.884C162.114 146.768 162.588 147.103 162.632 147.553C162.747 147.984 162.465 148.367 162.106 148.463C161.192 148.785 160.331 149.016 159.416 149.338L158.052 149.703C157.621 149.819 157.119 149.953 156.63 149.853C156.233 149.806 155.902 149.433 155.93 148.964C155.983 148.873 156.069 148.619 156.265 148.489Z" fill="#717791"/>
<path d="M134.313 177.996L137.019 179.195L135.727 179.541L139.101 174.328C139.259 174.055 139.618 173.958 139.91 174.188C140.183 174.346 140.28 174.705 140.122 174.978L137.313 180.578L137.332 180.65C137.141 181.086 136.639 181.221 136.203 181.03L136.112 180.977L133.72 179.232C133.447 179.075 133.423 178.697 133.58 178.423C133.771 177.987 134.059 177.911 134.313 177.996Z" fill="#717791"/>
<path d="M143.597 177.895C143.91 179.35 143.668 181.031 142.788 182.344C141.909 183.657 140.555 184.635 139.066 185.111C137.578 185.587 135.883 185.579 134.431 185.045C132.98 184.51 131.628 183.487 130.741 182.186C129.853 180.885 129.411 179.233 129.6 177.643C129.718 176.073 130.377 174.511 131.458 173.375C132.539 172.239 133.931 171.404 135.477 171.143C137.005 170.811 138.705 171.125 139.769 172.225C139.879 172.35 139.846 172.512 139.793 172.603C139.741 172.694 139.669 172.714 139.578 172.661C138.17 172.577 137.069 172.487 135.81 172.67C134.642 172.906 133.589 173.573 132.829 174.47C132.069 175.366 131.601 176.492 131.53 177.665C131.46 178.838 131.787 180.059 132.434 181.04C133.082 182.02 134.05 182.761 135.157 183.157C136.263 183.554 137.508 183.605 138.638 183.225C139.767 182.846 140.729 182.126 141.398 181.177C142.067 180.228 142.698 179.136 142.802 177.8C142.816 177.565 143.065 177.345 143.299 177.359C143.357 177.574 143.558 177.751 143.597 177.895Z" fill="#717791"/>
<path d="M147.464 171.933C148.373 171.305 149.287 170.983 150.292 170.714C151.297 170.445 152.231 170.194 153.236 169.925C154.241 169.656 155.194 169.477 156.199 169.208C157.223 169.011 158.176 168.832 159.2 168.635C159.488 168.558 159.78 168.787 159.857 169.074C159.934 169.362 159.776 169.635 159.489 169.712C158.503 170.053 157.589 170.375 156.603 170.716C155.617 171.057 154.684 171.307 153.698 171.648C152.692 171.918 151.778 172.24 150.773 172.509C149.768 172.778 148.834 173.028 147.714 172.867C147.407 172.872 147.167 172.552 147.253 172.298C147.287 172.135 147.339 172.044 147.464 171.933Z" fill="#717791"/>
<path d="M148.618 176.241C149.833 175.608 151.035 175.209 152.327 174.863C153.619 174.516 154.84 174.189 156.133 173.843C157.425 173.497 158.665 173.242 159.957 172.895C161.25 172.549 162.489 172.294 163.801 172.019C164.16 171.923 164.544 172.205 164.62 172.492C164.717 172.851 164.487 173.144 164.219 173.292C162.946 173.71 161.745 174.109 160.452 174.456C159.16 174.802 157.958 175.201 156.666 175.547C155.374 175.893 154.153 176.22 152.861 176.567C151.568 176.913 150.348 177.24 148.978 177.299C148.672 177.304 148.379 177.075 148.355 176.697C148.317 176.553 148.422 176.371 148.618 176.241Z" fill="#717791"/>
<path d="M161.531 167.856C161.924 167.597 162.407 167.39 162.838 167.275L164.202 166.909C165.135 166.659 165.997 166.429 166.95 166.25C167.38 166.135 167.855 166.469 167.899 166.919C168.014 167.35 167.732 167.734 167.373 167.83C166.459 168.152 165.597 168.383 164.683 168.705L163.319 169.07C162.888 169.185 162.385 169.32 161.897 169.22C161.499 169.173 161.169 168.8 161.197 168.33C161.23 168.168 161.335 167.986 161.531 167.856Z" fill="#717791"/>
<path d="M139.579 197.364L142.286 198.562L140.993 198.908L144.368 193.695C144.525 193.422 144.884 193.325 145.177 193.555C145.45 193.713 145.546 194.072 145.388 194.345L142.579 199.946L142.599 200.017C142.408 200.453 141.905 200.588 141.469 200.397L141.378 200.344L138.987 198.6C138.714 198.442 138.689 198.064 138.847 197.791C139.019 197.283 139.378 197.187 139.579 197.364Z" fill="#717791"/>
<path d="M148.863 197.262C149.176 198.717 148.934 200.398 148.055 201.711C147.175 203.024 145.821 204.002 144.333 204.478C142.844 204.954 141.149 204.946 139.698 204.412C138.246 203.877 136.895 202.854 136.007 201.553C135.12 200.251 134.749 198.581 134.867 197.01C134.985 195.439 135.644 193.878 136.725 192.742C137.805 191.605 139.198 190.771 140.744 190.51C142.271 190.178 143.971 190.492 145.036 191.592C145.146 191.716 145.113 191.879 145.06 191.97C145.007 192.061 144.936 192.081 144.845 192.028C143.437 191.943 142.335 191.854 141.076 192.037C139.908 192.273 138.856 192.94 138.095 193.836C137.335 194.733 136.867 195.859 136.797 197.032C136.726 198.205 137.053 199.426 137.701 200.406C138.349 201.387 139.317 202.128 140.423 202.524C141.53 202.92 142.775 202.972 143.904 202.592C145.034 202.212 145.995 201.493 146.665 200.544C147.334 199.595 147.965 198.503 148.068 197.167C148.082 196.932 148.331 196.711 148.566 196.726C148.695 196.922 148.806 197.046 148.863 197.262Z" fill="#717791"/>
<path d="M152.73 191.3C153.639 190.672 154.553 190.35 155.558 190.081C156.563 189.811 157.497 189.561 158.502 189.292C159.507 189.023 160.46 188.844 161.465 188.575C162.489 188.377 163.442 188.199 164.467 188.002C164.754 187.925 165.046 188.154 165.123 188.441C165.2 188.729 165.042 189.002 164.755 189.079C163.769 189.42 162.855 189.742 161.869 190.083C160.883 190.424 159.95 190.674 158.964 191.015C157.958 191.285 157.044 191.606 156.039 191.876C155.034 192.145 154.1 192.395 152.98 192.234C152.673 192.239 152.434 191.918 152.519 191.665C152.553 191.502 152.658 191.32 152.73 191.3Z" fill="#717791"/>
<path d="M153.956 195.589C155.171 194.956 156.372 194.557 157.665 194.21C158.957 193.864 160.178 193.537 161.47 193.191C162.763 192.845 164.003 192.589 165.295 192.243C166.587 191.897 167.827 191.641 169.139 191.367C169.498 191.271 169.881 191.553 169.958 191.84C170.054 192.199 169.825 192.491 169.557 192.64C168.284 193.058 167.082 193.457 165.79 193.803C164.498 194.15 163.296 194.549 162.004 194.895C160.711 195.241 159.491 195.568 158.198 195.914C156.906 196.261 155.685 196.588 154.316 196.647C154.01 196.652 153.717 196.423 153.693 196.044C153.583 195.92 153.759 195.719 153.956 195.589Z" fill="#717791"/>
<path d="M166.797 187.223C167.19 186.964 167.673 186.758 168.104 186.642L169.468 186.277C170.402 186.027 171.263 185.796 172.216 185.618C172.647 185.502 173.121 185.837 173.165 186.287C173.28 186.718 172.998 187.101 172.639 187.197C171.725 187.519 170.863 187.75 169.949 188.072L168.585 188.437C168.154 188.553 167.651 188.687 167.163 188.587C166.765 188.54 166.435 188.167 166.463 187.698C166.496 187.535 166.673 187.334 166.797 187.223Z" fill="#717791"/>
<path d="M362 169H167V49.0004H362V169Z" fill="#EEF4FF"/>
<path d="M353 57.0004H176V161H353V57.0004Z" fill="white"/>
<path d="M207.825 82.5124C207.725 84.5124 206.925 86.7123 205.325 88.1123C203.725 89.5123 201.625 90.4124 199.525 90.5124C197.425 90.7124 195.225 90.1124 193.425 88.9124C191.625 87.7124 190.225 85.9124 189.525 83.9124C188.825 81.9124 188.825 79.6123 189.525 77.6123C190.225 75.5123 191.525 73.8123 193.325 72.6123C195.125 71.4123 197.225 70.9124 199.425 71.0124C201.525 71.1124 203.625 72.1124 204.725 73.9124C204.825 74.1124 204.724 74.3124 204.624 74.4124C204.524 74.5124 204.425 74.5124 204.325 74.4124C202.525 73.8124 201.025 73.3123 199.325 73.2123C197.725 73.2123 196.025 73.6123 194.725 74.6123C193.425 75.6123 192.425 76.9124 191.925 78.4124C191.425 79.9124 191.425 81.6123 191.925 83.1123C192.425 84.6123 193.525 85.9124 194.825 86.8124C196.125 87.7124 197.825 88.1124 199.425 88.0124C201.025 87.9124 202.625 87.3123 203.825 86.2123C205.025 85.2123 206.225 83.9123 206.825 82.2123C206.925 81.9123 207.324 81.7124 207.624 81.8124C207.624 81.9124 207.825 82.2124 207.825 82.5124Z" fill="#717791"/>
<path d="M214.924 75.8127C216.324 75.2127 217.624 75.1126 219.024 75.1126C220.424 75.1126 221.824 75.0126 223.124 75.0126C224.524 75.0126 225.924 75.0126 227.224 75.1126C228.624 75.1126 230.024 75.2127 231.324 75.3127C231.724 75.3127 232.024 75.7126 232.024 76.1126C232.024 76.5126 231.724 76.8127 231.324 76.8127C229.924 77.0127 228.524 77.1126 227.224 77.2126C225.824 77.3126 224.424 77.4126 223.124 77.4126C221.724 77.5126 220.324 77.5126 219.024 77.5126C217.624 77.5126 216.224 77.5126 214.924 77.0126C214.524 76.9126 214.324 76.5126 214.524 76.1126C214.624 76.1126 214.724 75.9127 214.924 75.8127Z" fill="#717791"/>
<path d="M215.024 82.0124C216.824 81.5124 218.624 81.5124 220.324 81.4124C222.124 81.4124 223.924 81.3124 225.624 81.3124C227.424 81.3124 229.224 81.3124 230.924 81.3124C232.724 81.3124 234.524 81.3124 236.224 81.4124C236.724 81.4124 237.124 81.8124 237.124 82.3124C237.124 82.8124 236.724 83.1123 236.324 83.2123C234.524 83.3123 232.724 83.5124 231.024 83.5124C229.224 83.6124 227.424 83.7123 225.724 83.7123C223.924 83.8123 222.124 83.8124 220.424 83.8124C218.624 83.8124 216.824 83.8124 215.024 83.5124C214.624 83.4124 214.324 83.0124 214.424 82.5124C214.524 82.3124 214.724 82.0124 215.024 82.0124Z" fill="#717791"/>
<path d="M234.825 75.1123C235.425 74.8123 236.125 74.8124 236.725 74.8124H238.625C239.925 74.8124 241.125 74.8124 242.425 74.9124C243.025 74.9124 243.525 75.5123 243.525 76.1123C243.525 76.7123 243.025 77.1123 242.525 77.1123C241.225 77.2123 240.025 77.3124 238.725 77.3124H236.825C236.225 77.3124 235.525 77.3123 234.925 77.1123C234.425 76.9123 234.125 76.3124 234.325 75.8124C234.325 75.4124 234.525 75.2123 234.825 75.1123Z" fill="#717791"/>
<path fill-rule="evenodd" clip-rule="evenodd" d="M199.964 78.7806C199.964 78.3637 199.886 77.8774 199.729 77.4604C199.666 77.2951 199.505 77.1735 199.402 77.0955C199.375 77.0752 199.352 77.0578 199.336 77.0434C198.864 76.9045 198.392 77.113 198.235 77.4604C198 77.8773 198 78.3637 198 78.7806V78.7806V79.9999C197.07 80.0005 196.085 80.0118 195.582 80.2403C195.314 80.3618 195.027 80.7199 195.027 80.7999C194.888 81.4398 195.304 81.7598 195.582 81.8398C196.129 81.9978 197.149 81.9999 198.108 81.9999C198.111 82.066 198.114 82.1323 198.118 82.1985C198.157 83.0215 198.196 83.8445 198.236 84.2961C198.236 84.6436 198.55 84.991 199.021 84.991C199.493 85.0605 199.965 84.7131 199.965 84.2961C200.01 83.7791 200.003 82.7754 199.989 81.8421C200.246 81.8461 200.436 81.8544 200.604 81.8617C200.969 81.8777 201.225 81.8889 201.821 81.8398C202.514 81.8398 202.987 81.5922 202.999 80.9599C203.012 80.2975 202.442 80.0799 201.742 80.0799C201.257 80.0399 200.982 80.0399 200.707 80.0399C200.493 80.0399 200.278 80.0399 199.964 80.021V78.7806Z" fill="#717791"/>
<path d="M354.79 136.441L354.999 70.8812V62.6602V60.5789V59.5383V59.018V58.8098C354.999 58.7057 354.999 58.4976 354.999 58.2895C354.895 57.561 354.476 56.9367 353.848 56.5204C353.534 56.3123 353.22 56.1042 352.802 56.1042C352.592 56.1042 352.488 56.0001 352.279 56.0001H351.965H349.872H285.27H252.309H235.776H179.441H177.348H176.825C176.825 56.0001 176.511 56.0001 176.406 56.0001C176.197 56.0001 176.092 56.1042 175.883 56.1042C175.15 56.3123 174.627 56.8327 174.313 57.457C174.104 57.7692 173.999 58.1855 173.999 58.4977V58.7057V58.8098V59.018V60.0586V62.1399L174.104 94.9199L174.209 127.7V144.142V152.363C174.209 155.068 174.313 157.878 175.046 160.584C175.15 160.896 175.36 161 175.674 161C175.883 161 175.987 160.792 176.092 160.584C176.72 157.878 176.825 155.068 176.929 152.363V144.142V127.7L177.034 94.9199L177.138 62.1399V60.0586V59.018V58.6017C177.138 58.6017 177.138 58.6017 177.138 58.7057C177.138 58.7057 177.138 58.8098 177.034 58.8098C177.034 58.8098 176.929 58.8098 177.138 58.8098H177.662H179.754H236.09H252.623H285.584H350.186H352.279C352.383 58.8098 352.488 58.8098 352.488 58.8098C352.488 58.8098 352.488 58.8098 352.383 58.8098L352.279 58.7057V62.5562V70.7771L352.488 136.337C352.488 137.065 353.116 137.586 353.848 137.586C354.267 137.69 354.79 137.066 354.79 136.441Z" fill="#717791"/>
<path d="M354.771 80.8806L354.98 146.71V155.965V158.054V159.099V159.622V159.831C354.98 159.935 354.98 160.144 354.98 160.353C354.875 161.085 354.457 161.712 353.83 162.13C353.517 162.338 353.203 162.547 352.785 162.547C352.576 162.547 352.472 162.652 352.263 162.652H351.949H349.86H285.35H252.435H235.926H179.671H177.581H177.059C177.059 162.652 176.745 162.652 176.641 162.652C176.432 162.652 176.327 162.547 176.118 162.547C175.387 162.339 174.865 161.816 174.551 161.189C174.342 160.876 174.238 160.458 174.238 160.144V159.935V159.831V159.622V158.577V156.487L174.342 122.572L174.447 89.6578V73.1484V64.8936C174.447 62.1768 174.551 59.3556 175.282 56.6388C175.387 56.3253 175.596 56.2208 175.91 56.2208C176.118 56.2208 176.223 56.4298 176.327 56.6388C176.954 59.3556 177.059 62.1768 177.163 64.8936V73.1484V89.6578L177.268 122.572L177.372 156.487V158.577V159.622V160.04C177.372 160.04 177.372 160.04 177.372 159.935C177.372 159.935 177.372 159.831 177.268 159.831C177.268 159.831 177.163 159.831 177.372 159.831H177.895H179.985H236.239H252.749H285.663H350.173H352.263C352.367 159.831 352.472 159.831 352.472 159.831C352.472 159.831 352.472 159.831 352.367 159.831L352.263 159.935V156.069V146.814L352.472 80.9852C352.472 80.2538 353.099 79.7312 353.83 79.7312C354.248 79.6267 354.771 80.2537 354.771 80.8806Z" fill="#717791"/>
<path d="M262 198C261.5 191 260.5 174.5 260.5 167C260.5 165.568 262.58 165 264.5 165C266.419 165 267.5 165.568 267.5 167C267.5 167 266.5 187.568 266.5 189C266.5 190.433 266.419 188 264.5 188C262.58 188 265.5 195.5 262 198Z" fill="#EEF4FF"/>
<path d="M165.965 148.377C165.953 146.548 165.942 144.72 166.49 142.891C166.49 142.578 166.699 142.369 167.013 142.16C167.431 141.951 167.953 142.264 168.058 142.682C168.606 144.511 168.595 146.339 168.583 148.168C168.582 148.429 168.58 148.69 168.58 148.951V167.655C168.58 167.76 168.58 167.864 168.685 167.864H259.508C260.058 167.864 260.504 168.309 260.511 168.859C260.519 169.504 260.531 170.11 260.547 170.686H168.894C168.476 170.686 167.953 170.581 167.535 170.372C166.699 169.954 166.072 169.014 165.968 168.073V149.161C165.968 148.899 165.966 148.638 165.965 148.377Z" fill="#717791"/>
<path d="M267.322 170.686H361.159C361.276 170.627 361.394 170.601 361.53 170.571C361.636 170.548 361.753 170.522 361.89 170.477C362.308 170.268 362.726 169.954 362.935 169.536C363.249 169.118 363.353 168.7 363.458 168.178V50.3124C363.458 49.7899 363.249 49.3719 362.935 48.9539C362.622 48.536 362.308 48.2225 361.89 48.0135C361.472 47.8045 360.95 47.7001 360.532 47.7001H168.267C168.114 47.7001 167.961 47.7561 167.767 47.8272C167.696 47.8531 167.619 47.8811 167.535 47.909C166.699 48.327 166.072 49.1629 165.968 50.2078V103.603C165.968 104.125 165.966 104.648 165.965 105.17C165.953 108.827 165.942 112.484 166.49 116.142C166.595 116.559 167.013 116.873 167.431 116.873C167.744 116.768 168.058 116.559 168.162 116.142C168.711 112.484 168.7 108.827 168.688 105.17C168.686 104.648 168.685 104.125 168.685 103.603V50.4168C168.685 50.3646 168.711 50.3385 168.737 50.3123C168.763 50.2862 168.789 50.26 168.789 50.2078H360.637C360.846 50.2078 360.846 50.2079 360.846 50.3123V167.76L360.741 167.864H268.411C267.877 167.864 267.438 168.283 267.412 168.816C267.386 169.349 267.356 169.981 267.322 170.686Z" fill="#717791"/>
<path d="M166.173 129.339C165.964 129.861 165.964 130.384 166.069 130.906C166.173 131.428 166.278 131.951 166.696 132.473C167.009 132.891 167.636 132.891 167.949 132.578L168.054 132.473C168.472 131.951 168.681 131.428 168.681 130.906C168.785 130.384 168.681 129.861 168.576 129.339C168.367 128.712 167.636 128.398 166.905 128.607C166.591 128.712 166.278 129.025 166.173 129.339Z" fill="#717791"/>
<path d="M118.864 252.554C126.597 252.345 134.329 252.24 142.061 252.24C149.793 252.24 157.526 252.136 165.258 252.24C180.723 252.24 196.292 252.345 211.756 252.554C212.279 252.554 212.592 252.972 212.592 253.39C212.592 253.808 212.174 254.225 211.756 254.225C196.292 254.434 180.723 254.539 165.258 254.539C157.526 254.539 149.793 254.539 142.061 254.539C134.329 254.539 126.597 254.33 118.864 254.225C118.446 254.225 118.133 253.912 118.133 253.494C118.133 252.972 118.446 252.658 118.864 252.554Z" fill="#717791"/>
</svg>

