<svg width="33" height="32" viewBox="0 0 33 32" fill="none" xmlns="http://www.w3.org/2000/svg">
<rect x="0.949585" y="0.5" width="31.0436" height="31" rx="1.5" stroke="#BFC7D1"/>
<path d="M22.8461 11.8009C22.6364 11.8937 22.4207 11.9722 22.2004 12.0358C22.4613 11.7412 22.6602 11.3945 22.7816 11.0152C22.8088 10.9302 22.7806 10.8371 22.7106 10.7815C22.6407 10.7258 22.5436 10.7191 22.4666 10.7647C21.9987 11.0418 21.4938 11.241 20.9645 11.3575C20.4312 10.8372 19.707 10.541 18.9582 10.541C17.3778 10.541 16.092 11.825 16.092 13.4032C16.092 13.5275 16.0999 13.6512 16.1155 13.7731C14.1544 13.6011 12.3311 12.6385 11.0791 11.1048C11.0345 11.0501 10.9657 11.0206 10.8954 11.0263C10.8249 11.0318 10.7617 11.0714 10.7261 11.1324C10.4722 11.5675 10.3379 12.0652 10.3379 12.5716C10.3379 13.2613 10.5845 13.9156 11.02 14.4269C10.8876 14.3811 10.7591 14.3239 10.6364 14.2559C10.5706 14.2193 10.4902 14.2199 10.4248 14.2573C10.3593 14.2948 10.3183 14.3637 10.3165 14.439C10.3162 14.4517 10.3162 14.4643 10.3162 14.4772C10.3162 15.5066 10.871 16.4335 11.7193 16.9386C11.6464 16.9314 11.5736 16.9208 11.5012 16.907C11.4266 16.8928 11.3499 16.9189 11.2996 16.9757C11.2492 17.0325 11.2326 17.1116 11.2558 17.1839C11.5698 18.1628 12.3781 18.8829 13.3554 19.1024C12.5448 19.6094 11.618 19.8749 10.6449 19.8749C10.4419 19.8749 10.2377 19.863 10.0379 19.8394C9.93862 19.8276 9.8437 19.8861 9.80987 19.9804C9.77605 20.0748 9.81191 20.1799 9.89635 20.234C11.1463 21.0344 12.5917 21.4574 14.0761 21.4574C16.9942 21.4574 18.8197 20.0832 19.8372 18.9304C21.106 17.4929 21.8337 15.5903 21.8337 13.7104C21.8337 13.6318 21.8325 13.5525 21.8301 13.4735C22.3307 13.0968 22.7616 12.641 23.1123 12.1171C23.1656 12.0375 23.1599 11.9323 23.0981 11.8591C23.0366 11.7858 22.9338 11.7621 22.8461 11.8009Z" fill="#BFC7D1"/>
</svg>
