<svg width="43" height="43" viewBox="0 0 43 43" fill="none" xmlns="http://www.w3.org/2000/svg">
<rect x="0.500065" y="0.499936" width="41" height="41" rx="1.5" transform="matrix(1 -0.00012769 0.000130181 1 0.0116537 0.0288648)" fill="white" stroke="#E1E8EE"/>
<path d="M29.3669 15.5142C29.092 15.6362 28.8093 15.7391 28.5205 15.8227C28.8624 15.436 29.123 14.9809 29.2821 14.483C29.3178 14.3714 29.2808 14.2493 29.189 14.1763C29.0974 14.1032 28.9701 14.0945 28.8692 14.1543C28.2559 14.5182 27.5943 14.7797 26.9004 14.9326C26.2014 14.2498 25.2521 13.8612 24.2707 13.8613C22.1992 13.8616 20.5142 15.5471 20.5144 17.6185C20.5145 17.7816 20.5248 17.9439 20.5453 18.1039C17.9747 17.8785 15.5848 16.6154 13.9435 14.6026C13.885 14.5308 13.7949 14.4922 13.7027 14.4996C13.6104 14.5068 13.5274 14.5589 13.4808 14.6389C13.1481 15.2101 12.9722 15.8633 12.9723 16.5279C12.9724 17.4331 13.2957 18.2919 13.8667 18.9629C13.6931 18.9028 13.5246 18.8277 13.3638 18.7385C13.2775 18.6905 13.1722 18.6912 13.0864 18.7404C13.0006 18.7896 12.9468 18.88 12.9446 18.9788C12.9442 18.9955 12.9442 19.0121 12.9442 19.029C12.9443 20.3802 13.6717 21.5966 14.7836 22.2594C14.6881 22.2499 14.5926 22.2361 14.4978 22.218C14.4 22.1993 14.2995 22.2336 14.2336 22.3082C14.1675 22.3827 14.1457 22.4866 14.1761 22.5814C14.5878 23.8662 15.6475 24.8111 16.9284 25.0991C15.8661 25.7646 14.6513 26.1133 13.3759 26.1135C13.1098 26.1135 12.8422 26.0979 12.5803 26.0669C12.4501 26.0515 12.3257 26.1283 12.2814 26.2521C12.2371 26.3759 12.2841 26.5139 12.3948 26.5848C14.0333 27.6351 15.9278 28.1901 17.8734 28.1899C21.6982 28.1894 24.0907 26.3855 25.4242 24.8722C27.087 22.9854 28.0405 20.488 28.0401 18.0206C28.0401 17.9175 28.0385 17.8134 28.0353 17.7097C28.6914 17.2152 29.2562 16.6169 29.7158 15.9292C29.7856 15.8248 29.7781 15.6867 29.6972 15.5906C29.6164 15.4944 29.4818 15.4633 29.3669 15.5142Z" fill="#BFC7D1"/>
</svg>

