<svg width="33" height="32" viewBox="0 0 33 32" fill="none" xmlns="http://www.w3.org/2000/svg">
<rect x="1.22656" y="0.5" width="31.0436" height="31" rx="1.5" stroke="#BFC7D1"/>
<path d="M22.5265 17.2301C23.0579 17.7483 23.6189 18.2358 24.0955 18.8062C24.3061 19.0597 24.5054 19.3213 24.658 19.6155C24.8741 20.0337 24.6783 20.4939 24.3028 20.5188L21.9687 20.5178C21.3667 20.5677 20.8865 20.3257 20.4827 19.9146C20.1595 19.5859 19.8602 19.236 19.5495 18.8962C19.4221 18.7573 19.2888 18.6267 19.1295 18.5233C18.8109 18.3168 18.5343 18.38 18.3522 18.7119C18.1667 19.0495 18.1247 19.4232 18.1064 19.7994C18.0814 20.3483 17.9153 20.4926 17.3632 20.5177C16.1833 20.5733 15.0636 20.395 14.0233 19.8006C13.1062 19.2766 12.395 18.5368 11.776 17.6994C10.5708 16.0687 9.64785 14.2767 8.81834 12.4346C8.63162 12.0196 8.76818 11.7968 9.22674 11.7889C9.98818 11.7741 10.7495 11.7752 11.5119 11.7878C11.8214 11.7923 12.0262 11.9696 12.1457 12.2616C12.5577 13.2732 13.0618 14.2356 13.6945 15.1277C13.863 15.3652 14.0349 15.6027 14.2795 15.7699C14.5502 15.955 14.7563 15.8936 14.8836 15.5925C14.9644 15.4016 14.9998 15.1959 15.018 14.9914C15.0784 14.2879 15.0863 13.5856 14.9805 12.8845C14.9155 12.447 14.6688 12.1637 14.2316 12.0809C14.0085 12.0387 14.0417 11.9558 14.1497 11.8287C14.3373 11.6093 14.5138 11.4728 14.8655 11.4728H17.5034C17.9187 11.5547 18.0109 11.741 18.0678 12.1582L18.0701 15.0844C18.0655 15.2459 18.1509 15.7253 18.4422 15.8322C18.6754 15.9084 18.8291 15.7221 18.9691 15.5744C19.6006 14.905 20.0514 14.1139 20.4541 13.2947C20.6328 12.9345 20.7865 12.5604 20.9354 12.1866C21.0458 11.9093 21.2189 11.7728 21.5317 11.7788L24.0706 11.7811C24.1458 11.7811 24.222 11.7822 24.2949 11.7947C24.7227 11.8675 24.84 12.0512 24.7078 12.4684C24.4996 13.123 24.0946 13.6684 23.6985 14.2164C23.2751 14.8014 22.8223 15.3665 22.4024 15.955C22.0166 16.4925 22.0473 16.7633 22.5265 17.2301Z" fill="#BFC7D1"/>
</svg>
