<svg width="43" height="43" viewBox="0 0 43 43" fill="none" xmlns="http://www.w3.org/2000/svg">
<rect x="0.500065" y="0.499936" width="41" height="41" rx="1.5" transform="matrix(1 -0.00012769 0.000130181 1 0.00579429 0.0347242)" fill="white" stroke="#E1E8EE"/>
<path d="M28.5825 22.6453C29.2792 23.3254 30.0145 23.9651 30.6394 24.7137C30.9154 25.0464 31.1768 25.3897 31.3767 25.7758C31.66 26.3246 31.4036 26.9286 30.9114 26.9615L27.8521 26.9605C27.063 27.026 26.4335 26.7085 25.9042 26.169C25.4806 25.7376 25.0882 25.2785 24.6809 24.8326C24.5139 24.6503 24.3391 24.4788 24.1303 24.3432C23.7126 24.0722 23.3501 24.1553 23.1115 24.5909C22.8685 25.0339 22.8134 25.5245 22.7896 26.0182C22.7569 26.7386 22.5392 26.9281 21.8156 26.9612C20.2691 27.0343 18.8013 26.8005 17.4378 26.0205C16.2356 25.3329 15.3033 24.3621 14.4918 23.263C12.9119 21.1229 11.7019 18.7712 10.6143 16.3535C10.3695 15.8088 10.5485 15.5164 11.1495 15.506C12.1475 15.4864 13.1454 15.4877 14.1447 15.5042C14.5503 15.5101 14.8189 15.7427 14.9755 16.1259C15.5157 17.4535 16.1766 18.7166 17.0061 19.8874C17.227 20.1991 17.4522 20.5108 17.7729 20.7301C18.1277 20.973 18.3978 20.8925 18.5647 20.4972C18.6706 20.2466 18.7169 19.9767 18.7407 19.7083C18.8197 18.7849 18.83 17.8631 18.6912 16.943C18.606 16.3687 18.2825 15.997 17.7095 15.8884C17.417 15.8331 17.4605 15.7242 17.6021 15.5573C17.848 15.2695 18.0792 15.0902 18.5403 15.0902L21.9978 15.0897C22.5421 15.1971 22.6631 15.4416 22.7376 15.9893L22.7411 19.8298C22.7352 20.0418 22.8471 20.671 23.229 20.8113C23.5347 20.9112 23.7361 20.6666 23.9195 20.4728C24.7472 19.5941 25.3379 18.5557 25.8656 17.4804C26.0998 17.0076 26.3012 16.5166 26.4963 16.026C26.6409 15.662 26.8678 15.4828 27.2778 15.4907L30.6055 15.4932C30.7042 15.4932 30.804 15.4946 30.8996 15.511C31.4603 15.6065 31.614 15.8477 31.4409 16.3953C31.1681 17.2544 30.6373 17.9704 30.1182 18.6896C29.5634 19.4576 28.9699 20.1992 28.4197 20.9717C27.9142 21.6772 27.9544 22.0328 28.5825 22.6453Z" fill="#BFC7D1"/>
</svg>

