<svg width="43" height="43" viewBox="0 0 43 43" fill="none" xmlns="http://www.w3.org/2000/svg">
<rect x="0.500065" y="0.499936" width="41" height="41" rx="1.5" transform="matrix(1 -0.00012769 0.000130181 1 0.017513 0.00933357)" fill="white" stroke="#E1E8EE"/>
<g clip-path="url(#clip0)">
<path d="M23.8182 12.2563L21.3318 12.2567C18.8128 12.257 16.2712 14.1174 16.2718 18.2731C16.2721 20.4257 17.1846 22.1021 18.857 23.0553L15.7969 28.5959C15.6518 28.8579 15.648 29.1549 15.7868 29.3902C15.9223 29.6201 16.17 29.7573 16.4492 29.7573L17.9975 29.7571C18.3493 29.757 18.6235 29.587 18.755 29.2891L21.6242 23.6754L21.8336 23.6753L21.8343 29.0569C21.8344 29.4362 22.1544 29.7565 22.5333 29.7565L23.8859 29.7563C24.3107 29.7563 24.6072 29.4596 24.6072 29.0349L24.6051 13.022C24.6051 12.5711 24.2815 12.2563 23.8182 12.2563ZM21.8333 21.1818L21.4638 21.1818C20.0312 21.182 19.1758 20.0127 19.1755 18.0539C19.1752 15.6183 20.2555 14.7504 21.2667 14.7502L21.8325 14.7502L21.8333 21.1818Z" fill="#BFC7D1"/>
</g>
<defs>
<clipPath id="clip0">
<rect width="17.5" height="17.5" fill="white" transform="translate(11.394 12.258) rotate(-0.00738728)"/>
</clipPath>
</defs>
</svg>
