<svg width="16" height="16" viewBox="0 0 16 16" fill="none" xmlns="http://www.w3.org/2000/svg">
<path d="M13.3241 2.67588C11.902 1.2538 10.0112 0.470588 8 0.470588C5.98882 0.470588 4.09803 1.2538 2.67588 2.67588C1.2538 4.09803 0.470588 5.98882 0.470588 8C0.470588 10.0112 1.2538 11.902 2.67588 13.3241C4.09803 14.7462 5.98882 15.5294 8 15.5294C9.01627 15.5294 10.0024 15.3303 10.9309 14.9375L10.568 14.0796C9.75496 14.4236 8.89092 14.5979 8 14.5979C4.36188 14.5979 1.40206 11.6381 1.40206 8C1.40206 4.36188 4.36188 1.40206 8 1.40206C11.6381 1.40206 14.5979 4.36188 14.5979 8C14.5979 9.59353 13.6188 10.3193 12.7091 10.3193C11.7994 10.3193 10.8203 9.59356 10.8203 8C10.8203 6.44487 9.55513 5.17972 8 5.17972C6.44487 5.17972 5.17972 6.4449 5.17972 8C5.17972 9.5551 6.44487 10.8203 8 10.8203C8.92076 10.8203 9.73981 10.3767 10.2548 9.69211C10.3867 9.95842 10.5527 10.1993 10.7529 10.4098C11.2687 10.9521 11.9634 11.2508 12.7091 11.2508C13.4548 11.2508 14.1495 10.9521 14.6653 10.4098C15.2306 9.81544 15.5294 8.98215 15.5294 8C15.5294 5.98882 14.7462 4.09803 13.3241 2.67588ZM8 9.88881C6.95852 9.88881 6.11119 9.04148 6.11119 8C6.11119 6.95852 6.95852 6.11119 8 6.11119C9.04148 6.11119 9.88881 6.95852 9.88881 8C9.88881 9.04148 9.04148 9.88881 8 9.88881Z"/>
<path fill-rule="evenodd" clip-rule="evenodd" d="M13.6569 2.34313C15.1672 3.85352 16 5.86401 16 8C16 9.07753 15.6708 10.0355 15.0063 10.7341C14.4021 11.3694 13.5843 11.7214 12.7091 11.7214C11.834 11.7214 11.0162 11.3694 10.4119 10.7341C10.3297 10.6477 10.2527 10.5571 10.1807 10.4627C9.60031 10.9772 8.83636 11.2909 8 11.2909C6.18497 11.2909 4.70913 9.81499 4.70913 8C4.70913 6.18501 6.18497 4.70913 8 4.70913C9.81503 4.70913 11.2909 6.18498 11.2909 8C11.2909 8.6976 11.5031 9.1553 11.7661 9.43462C12.0322 9.71714 12.3788 9.84875 12.7091 9.84875C13.0394 9.84875 13.386 9.71713 13.6521 9.4346C13.9152 9.15528 14.1274 8.69758 14.1274 8C14.1274 4.62178 11.3782 1.87265 8 1.87265C4.62178 1.87265 1.87265 4.62178 1.87265 8C1.87265 11.3782 4.62178 14.1274 8 14.1274C8.82854 14.1274 9.63019 13.9654 10.3847 13.6462L10.8181 13.4629L11.5477 15.1876L11.1143 15.3709C10.1272 15.7884 9.07873 16 8 16C5.86401 16 3.85352 15.1672 2.34313 13.6569C0.83281 12.1465 0 10.136 0 8C0 5.86401 0.832796 3.85352 2.34312 2.34313C3.85351 0.83281 5.86401 0 8 0C10.136 0 12.1465 0.83281 13.6569 2.34313ZM9.91943 10.0645C9.41567 10.5332 8.74075 10.8203 8 10.8203C6.44487 10.8203 5.17972 9.5551 5.17972 8C5.17972 6.4449 6.44487 5.17972 8 5.17972C9.55513 5.17972 10.8203 6.44487 10.8203 8C10.8203 9.59356 11.7994 10.3193 12.7091 10.3193C13.6188 10.3193 14.5979 9.59353 14.5979 8C14.5979 4.36188 11.6381 1.40206 8 1.40206C4.36188 1.40206 1.40206 4.36188 1.40206 8C1.40206 11.6381 4.36188 14.5979 8 14.5979C8.89092 14.5979 9.75496 14.4236 10.568 14.0796L10.9309 14.9375C10.7859 14.9989 10.6395 15.0555 10.4918 15.1073C9.69366 15.3876 8.85756 15.5294 8 15.5294C5.98882 15.5294 4.09803 14.7462 2.67588 13.3241C1.2538 11.902 0.470588 10.0112 0.470588 8C0.470588 5.98882 1.2538 4.09803 2.67588 2.67588C4.09803 1.2538 5.98882 0.470588 8 0.470588C10.0112 0.470588 11.902 1.2538 13.3241 2.67588C14.7462 4.09803 15.5294 5.98882 15.5294 8C15.5294 8.98215 15.2306 9.81544 14.6653 10.4098C14.1495 10.9521 13.4548 11.2508 12.7091 11.2508C11.9634 11.2508 11.2687 10.9521 10.7529 10.4098C10.6668 10.3193 10.5871 10.2232 10.5137 10.1219C10.4163 9.98753 10.3301 9.84395 10.2548 9.69211C10.1542 9.82595 10.0418 9.95058 9.91943 10.0645ZM6.58178 8C6.58178 8.78158 7.21842 9.41822 8 9.41822C8.78158 9.41822 9.41822 8.78158 9.41822 8C9.41822 7.21842 8.78158 6.58178 8 6.58178C7.21842 6.58178 6.58178 7.21842 6.58178 8ZM6.11119 8C6.11119 9.04148 6.95852 9.88881 8 9.88881C9.04148 9.88881 9.88881 9.04148 9.88881 8C9.88881 6.95852 9.04148 6.11119 8 6.11119C6.95852 6.11119 6.11119 6.95852 6.11119 8Z"/>
</svg>

