<svg width="18" height="16" viewBox="0 0 18 16" fill="none" xmlns="http://www.w3.org/2000/svg">
<path fill-rule="evenodd" clip-rule="evenodd" d="M7.33342 0.5H10.6667C11.5872 0.5 12.3334 1.24619 12.3334 2.16667V3H15.6667C16.5872 3 17.3334 3.74619 17.3334 4.66667V13.8333C17.3334 14.7538 16.5872 15.5 15.6667 15.5H2.33341C1.41294 15.5 0.666748 14.7538 0.666748 13.8333V4.66667C0.666748 3.74619 1.41294 3 2.33341 3H5.66675V2.16667C5.66675 1.24619 6.41294 0.5 7.33342 0.5ZM2.33341 4.66667H5.66675H12.3334H15.6667V8.83333H9.83342H8.16675H2.33341V4.66667ZM2.33341 13.8333V10.5H8.16675V11.3333H9.83342V10.5H15.6667V13.8333H2.33341ZM10.6667 2.16667V3H7.33341V2.16667H10.6667Z"/>
</svg>
