<svg width="16" height="18" viewBox="0 0 16 18" fill="none" xmlns="http://www.w3.org/2000/svg">
<path fill-rule="evenodd" clip-rule="evenodd" d="M5.74997 0.75H10.25C11.0784 0.75 11.75 1.42157 11.75 2.25V3H14C14.8284 3 15.5 3.67157 15.5 4.5V6C15.5 6.82843 14.8284 7.5 14 7.5H13.9399L13.25 15.75C13.25 16.5785 12.5784 17.25 11.75 17.25H4.24998C3.42155 17.25 2.74998 16.5785 2.75257 15.8123L2.05988 7.5H2C1.17157 7.5 0.5 6.82843 0.5 6V4.5C0.5 3.67157 1.17157 3 2 3H4.24997V2.25C4.24997 1.42157 4.92154 0.75 5.74997 0.75ZM4.24997 4.5V4.49997H1.99997V5.99997H14V4.49997H11.75V4.5H4.24997ZM3.56487 7.5H12.4349L11.7526 15.6877L11.75 15.75H4.25001L3.56487 7.5ZM10.25 2.24997V2.99997H5.75003V2.24997H10.25Z"/>
</svg>
