<svg width="18" height="20" viewBox="0 0 18 20" fill="none" xmlns="http://www.w3.org/2000/svg">
<path fill-rule="evenodd" clip-rule="evenodd" d="M14.8329 8.33296C14.8329 4.9503 12.9676 2.60252 10.554 1.89771C10.4666 1.67161 10.3285 1.46141 10.1408 1.28503C9.49934 0.682333 8.4998 0.682333 7.85833 1.28503C7.67102 1.46103 7.53309 1.67069 7.44567 1.89624C5.02905 2.59799 3.16626 4.94063 3.16626 8.33296C3.16626 10.5279 2.72375 11.7578 1.90456 12.6491C1.7676 12.7981 1.39656 13.1394 1.14519 13.3707L1.14515 13.3707L1.14514 13.3707L1.14502 13.3708L1.14495 13.3709C1.02611 13.4802 0.934073 13.5649 0.90623 13.5929L0.66626 13.8363V16.678H5.73956C5.91111 17.5631 6.39132 18.1552 7.25976 18.6852C8.32805 19.3371 9.67114 19.3371 10.7394 18.6852C11.5058 18.2175 12.0197 17.4987 12.2282 16.678H17.3329V13.8363L17.093 13.5929C17.0677 13.5673 16.9793 13.4858 16.8638 13.3792C16.6132 13.148 16.2348 12.799 16.0957 12.6471C15.276 11.7516 14.8329 10.5202 14.8329 8.33296ZM10.4469 16.678H7.48175C7.59948 16.8971 7.80016 17.0625 8.12794 17.2625C8.66315 17.5891 9.33604 17.5891 9.87125 17.2625C10.1191 17.1112 10.3128 16.9111 10.4469 16.678ZM14.8664 13.7725C15.0417 13.964 15.4176 14.3141 15.6662 14.5429V15.0113H2.33291V14.5433C2.57963 14.3172 2.9566 13.9673 3.13164 13.7769C4.24476 12.5658 4.83291 10.9311 4.83291 8.33294C4.83291 5.18286 6.77688 3.34326 8.99957 3.34326C11.216 3.34326 13.1662 5.19235 13.1662 8.33294C13.1662 10.9228 13.7546 12.5579 14.8664 13.7725Z"/>
</svg>
