<svg width="20" height="20" viewBox="0 0 20 20" fill="none" xmlns="http://www.w3.org/2000/svg">
<path fill-rule="evenodd" clip-rule="evenodd" d="M6.66658 4.99967H4.26166C5.87046 3.15915 7.6326 2.49967 9.99992 2.49967C14.1421 2.49967 17.4999 5.85754 17.4999 9.99967C17.4999 14.1418 14.1421 17.4997 9.99992 17.4997C5.85778 17.4997 2.49992 14.1418 2.49992 9.99967H0.833252C0.833252 15.0623 4.93731 19.1663 9.99992 19.1663C15.0625 19.1663 19.1666 15.0623 19.1666 9.99967C19.1666 4.93706 15.0625 0.833008 9.99992 0.833008C7.32211 0.833008 5.19748 1.59181 3.33325 3.54672V1.65902H1.66659V6.66634H6.66658V4.99967ZM14.1666 9.16634H10.8333V4.99967H9.16659V10.833H14.1666V9.16634Z"/>
</svg>
