<svg width="18" height="18" viewBox="0 0 18 18" fill="none" xmlns="http://www.w3.org/2000/svg">
<path fill-rule="evenodd" clip-rule="evenodd" d="M4.41675 8.16699C2.34568 8.16699 0.666748 6.48806 0.666748 4.41699C0.666748 2.34592 2.34568 0.666992 4.41675 0.666992C6.48782 0.666992 8.16675 2.34592 8.16675 4.41699C8.16675 6.48806 6.48782 8.16699 4.41675 8.16699ZM0.666748 13.5837C0.666748 15.6547 2.34568 17.3337 4.41675 17.3337C6.48782 17.3337 8.16675 15.6547 8.16675 13.5837C8.16675 11.5126 6.48782 9.83366 4.41675 9.83366C2.34568 9.83366 0.666748 11.5126 0.666748 13.5837ZM9.83342 13.5837C9.83342 15.6547 11.5123 17.3337 13.5834 17.3337C15.6545 17.3337 17.3334 15.6547 17.3334 13.5837C17.3334 11.5126 15.6545 9.83366 13.5834 9.83366C11.5123 9.83366 9.83342 11.5126 9.83342 13.5837ZM9.83342 4.41699C9.83342 6.48806 11.5123 8.16699 13.5834 8.16699C15.6545 8.16699 17.3334 6.48806 17.3334 4.41699C17.3334 2.34592 15.6545 0.666992 13.5834 0.666992C11.5123 0.666992 9.83342 2.34592 9.83342 4.41699ZM13.5834 6.50033C14.734 6.50033 15.6667 5.56759 15.6667 4.41699C15.6667 3.2664 14.734 2.33366 13.5834 2.33366C12.4328 2.33366 11.5001 3.2664 11.5001 4.41699C11.5001 5.56759 12.4328 6.50033 13.5834 6.50033ZM6.50008 4.41699C6.50008 5.56759 5.56734 6.50033 4.41675 6.50033C3.26615 6.50033 2.33341 5.56759 2.33341 4.41699C2.33341 3.2664 3.26615 2.33366 4.41675 2.33366C5.56734 2.33366 6.50008 3.2664 6.50008 4.41699ZM13.5834 15.667C14.734 15.667 15.6667 14.7343 15.6667 13.5837C15.6667 12.4331 14.734 11.5003 13.5834 11.5003C12.4328 11.5003 11.5001 12.4331 11.5001 13.5837C11.5001 14.7343 12.4328 15.667 13.5834 15.667ZM6.50008 13.5837C6.50008 14.7343 5.56734 15.667 4.41675 15.667C3.26615 15.667 2.33341 14.7343 2.33341 13.5837C2.33341 12.4331 3.26615 11.5003 4.41675 11.5003C5.56734 11.5003 6.50008 12.4331 6.50008 13.5837Z"/>
</svg>
