<svg width="20" height="18" viewBox="0 0 20 18" fill="none" xmlns="http://www.w3.org/2000/svg">
<path fill-rule="evenodd" clip-rule="evenodd" d="M4.49854 17.1666C2.20864 15.4461 0.833252 12.7534 0.833252 9.83366C0.833252 4.77105 4.93731 0.666992 9.99992 0.666992C15.0625 0.666992 19.1666 4.77105 19.1666 9.83366C19.1666 12.7534 17.7912 15.4461 15.5013 17.1666L15.2789 17.3337H4.72094L4.49854 17.1666ZM14.7145 15.667C16.4608 14.2545 17.4999 12.1312 17.4999 9.83366C17.4999 5.69152 14.1421 2.33366 9.99992 2.33366C5.85778 2.33366 2.49992 5.69152 2.49992 9.83366C2.49992 12.1312 3.53907 14.2545 5.28536 15.667H14.7145ZM14.4326 5.31151L13.0672 4.35574L10.873 7.49035C10.6012 7.38904 10.307 7.33366 9.99992 7.33366C8.61921 7.33366 7.49992 8.45295 7.49992 9.83366C7.49992 11.2144 8.61921 12.3337 9.99992 12.3337C11.3806 12.3337 12.4999 11.2144 12.4999 9.83366C12.4999 9.37078 12.3741 8.93728 12.1548 8.56548L14.4326 5.31151ZM10.8333 9.83366C10.8333 10.2939 10.4602 10.667 9.99992 10.667C9.53968 10.667 9.16659 10.2939 9.16659 9.83366C9.16659 9.37342 9.53968 9.00033 9.99992 9.00033C10.4602 9.00033 10.8333 9.37342 10.8333 9.83366Z"/>
</svg>
