<svg width="16" height="16" viewBox="0 0 16 16" fill="none" xmlns="http://www.w3.org/2000/svg">
<path fill-rule="evenodd" clip-rule="evenodd" d="M12.4368 13.9317L13.9149 12.4536L13.3943 10.5623L13.6211 10.0207L15.3327 9.05488V6.96462L13.626 5.99481L13.403 5.45411L13.9301 3.56189L12.451 2.08488L10.5595 2.60531L10.0191 2.37871L9.05323 0.666992H6.96297L5.99316 2.37369L5.45258 2.59663L3.56067 2.06886L2.08382 3.54572L2.60433 5.43744L2.37773 5.97789L0.666016 6.94375V9.03341L2.37117 10.0054L2.59436 10.5465L2.06733 12.4384L3.54474 13.9159L5.43647 13.3953L5.97697 13.622L6.94286 15.333H9.03258L10.0038 13.6278L10.5449 13.4046L12.4368 13.9317ZM12.5688 9.08393L11.9876 10.472L12.4245 12.0592L12.0456 12.4382L10.4617 11.997L9.07303 12.5697L8.25862 13.9995H7.72233L6.91466 12.5688L5.52809 11.9874L3.94003 12.4244L3.56174 12.0461L4.00296 10.4622L3.43027 9.07362L2.00039 8.25857V7.72222L3.43179 6.91453L4.01319 5.5279L3.57623 3.93984L3.95373 3.56233L5.53756 4.00416L6.92675 3.43123L7.73993 2.0002H8.27567L9.08336 3.43159L10.47 4.01299L12.0584 3.57594L12.4376 3.95463L11.9965 5.53817L12.5694 6.92723L14.0004 7.7404V8.27615L12.5688 9.08393ZM7.99831 10.6671C6.52555 10.6671 5.33164 9.47322 5.33164 8.00046C5.33164 6.5277 6.52555 5.33379 7.99831 5.33379C9.47107 5.33379 10.665 6.5277 10.665 8.00046C10.665 9.47322 9.47107 10.6671 7.99831 10.6671ZM9.33268 8.00032C9.33268 8.7367 8.73573 9.33366 7.99935 9.33366C7.26297 9.33366 6.66602 8.7367 6.66602 8.00032C6.66602 7.26395 7.26297 6.66699 7.99935 6.66699C8.73573 6.66699 9.33268 7.26395 9.33268 8.00032Z" fill="#7F8FA4"/>
</svg>
