<svg width="34" height="34" viewBox="0 0 34 34" fill="none" xmlns="http://www.w3.org/2000/svg">
<path fill-rule="evenodd" clip-rule="evenodd" d="M17 33.5C7.8873 33.5 0.5 26.1127 0.5 17C0.5 7.8873 7.8873 0.5 17 0.5C26.1127 0.5 33.5 7.8873 33.5 17C33.5 26.1127 26.1127 33.5 17 33.5ZM26.3843 26.705C26.9375 26.17 27.4451 25.588 27.9007 24.9656C25.6738 24.7042 24 22.9449 24 19.4444C24 16.9508 25.7765 15 28.5 15C29.2026 15 29.8429 15.1429 30.406 15.3986C29.6141 8.69759 23.914 3.50004 17 3.50004C10.0979 3.50004 4.40553 8.67982 3.59814 15.3642C4.15981 15.1294 4.79849 15 5.5 15C8.21597 15 10 17.1351 10 19.6667C10 23.0136 8.30892 24.7115 6.09977 24.9662C6.5495 25.5805 7.04991 26.1554 7.59485 26.6847C7.56461 26.6173 7.53306 26.5555 7.5 26.5C10 22 15 22 17 22C19 22 23.7707 22 26.5 26.5C26.4636 26.561 26.425 26.6297 26.3843 26.705ZM24.1211 28.4713C21.9863 25 19.4931 25 17 25C14.5 25 12 25 10 28.5L9.98813 28.5385C12.0318 29.7831 14.4322 30.5 17 30.5C19.6137 30.5 22.0539 29.7573 24.1211 28.4713ZM17 8.00004C13.3686 8.00004 11 10.6337 11 14C11 19.1411 13.6413 21.5 17 21.5C20.3271 21.5 23 19.2195 23 14.3C23 10.8824 20.6213 8.00004 17 8.00004ZM14 14C14 17.4038 15.2273 18.5 17 18.5C18.7666 18.5 20 17.4476 20 14.3C20 12.4256 18.8235 11 17 11C15.1006 11 14 12.2237 14 14ZM4 19.6C4 21.4154 4.61366 22 5.5 22C6.38328 22 7 21.4387 7 19.76C7 18.7603 6.41174 18 5.5 18C4.5503 18 4 18.6527 4 19.6ZM28.5 22C27.6137 22 27 21.4154 27 19.6C27 18.6527 27.5503 18 28.5 18C29.4117 18 30 18.7603 30 19.76C30 21.4387 29.3833 22 28.5 22Z" fill="#BFC7D1"/>
</svg>
