<svg width="16" height="16" viewBox="0 0 16 16" fill="none" xmlns="http://www.w3.org/2000/svg">
<path fill-rule="evenodd" clip-rule="evenodd" d="M8.13888 0.666565C12.189 0.666565 15.4722 3.94981 15.4722 7.9999C15.4722 12.05 12.189 15.3332 8.13888 15.3332C4.08879 15.3332 0.805544 12.05 0.805544 7.9999C0.805544 7.89612 0.807699 7.79285 0.811968 7.69013C0.749539 7.58245 0.700879 7.4714 0.666748 7.35714L0.837944 7.306C1.18753 3.58135 4.32281 0.666565 8.13888 0.666565ZM2.18293 7.26875C2.45094 5.06309 3.91576 3.22663 5.90851 2.42823C5.20923 3.77823 4.80554 5.78154 4.80554 7.9999C4.80554 8.07736 4.80604 8.15456 4.80702 8.23148C4.36176 8.14873 3.94952 8.0481 3.57769 7.93133C2.92382 7.726 2.44909 7.48402 2.18293 7.26875ZM2.19444 8.82048C2.49061 10.9864 3.94276 12.7843 5.90868 13.5719C5.3822 12.5557 5.02325 11.1691 4.87795 9.59932C3.81985 9.42668 2.9038 9.16247 2.19444 8.82048ZM6.23934 9.76395C6.52559 12.2316 7.37375 14 8.13881 14C8.90975 14 9.76506 12.2044 10.0448 9.70702C9.37866 9.78862 8.6812 9.83299 7.97219 9.83299C7.37301 9.83299 6.79307 9.80948 6.23934 9.76395ZM10.135 8.3461C10.1375 8.23163 10.1388 8.11625 10.1388 8.00003C10.1388 4.65602 9.07641 2.00003 8.13881 2.00003C7.20121 2.00003 6.13881 4.65602 6.13881 8.00003C6.13881 8.13992 6.14067 8.27861 6.1443 8.41595C6.72266 8.47085 7.33576 8.49966 7.97219 8.49966C8.71998 8.49966 9.4524 8.44211 10.135 8.3461ZM11.472 8.09719C11.4721 8.0648 11.4722 8.03237 11.4722 7.9999C11.4722 5.78158 11.0685 3.7783 10.3693 2.4283C12.2637 3.18738 13.681 4.88468 14.0464 6.94544L14.0142 6.93342C13.8795 7.2947 12.8811 7.76626 11.472 8.09719ZM11.4105 9.47913C11.2727 11.0983 10.909 12.5297 10.3691 13.5718C12.4241 12.7485 13.9177 10.8212 14.1163 8.52345C13.4289 8.91621 12.4906 9.24786 11.4105 9.47913Z"/>
</svg>
