<svg width="18" height="16" viewBox="0 0 18 16" fill="none" xmlns="http://www.w3.org/2000/svg">
<path fill-rule="evenodd" clip-rule="evenodd" d="M17.3327 13.8333C17.3327 14.7538 16.5865 15.5 15.666 15.5H2.33268C1.41221 15.5 0.666016 14.7538 0.666016 13.8333V7.82895L0.733395 7.67173L3.25132 1.79938C3.62687 1.03451 4.10055 0.560839 4.83268 0.5H13.166L13.275 0.507162C13.9024 0.589947 14.3619 1.04946 14.7653 1.8384L17.3327 7.82895V13.8333ZM2.33263 8.83336V13.8333H15.666V8.83336H12.3327C12.3327 9.75383 11.5865 10.5 10.6661 10.5H7.33273C6.41226 10.5 5.66606 9.75383 5.66606 8.83336H2.33263ZM2.76305 7.16669H7.33273V8.83336H10.6661V7.16669H15.236L13.2582 2.5477C13.1649 2.36615 13.0787 2.23874 13.0091 2.16656L4.97923 2.16348C4.91488 2.23283 4.8354 2.35436 4.76525 2.49488L2.76305 7.16669Z"/>
</svg>
