<svg width="73" height="12" viewBox="0 0 73 12" fill="none" xmlns="http://www.w3.org/2000/svg">
<path d="M0 11.8008H3.70098L4.31781 10.3058H8.25218L8.86901 11.8008H12.57L7.73537 0.300781H4.83461L0 11.8008ZM5.25139 7.6115L6.28499 4.98292L7.3186 7.6115H5.25139Z"/>
<path d="M14 11.8008H19.1013C22.6856 11.8008 25.1696 9.53364 25.1696 6.05078C25.1696 2.56792 22.6856 0.300781 19.1013 0.300781H14V11.8008ZM17.5009 8.61364V3.48792H18.6846C20.6851 3.48792 21.602 4.35864 21.602 6.06721C21.602 7.77578 20.6851 8.61364 18.6846 8.61364H17.5009Z"/>
<path d="M27.5 11.8008H33.4682C35.8522 11.8008 37.3693 10.4044 37.3693 8.48221C37.3693 6.85578 36.4357 5.90292 35.3687 5.50864C36.0356 4.98292 36.369 4.24364 36.369 3.30721C36.369 1.56578 34.8686 0.300781 32.5847 0.300781H27.5V11.8008ZM31.0009 4.68721V3.11007H32.0845C32.6847 3.11007 32.9848 3.45507 32.9848 3.89864C32.9848 4.35864 32.6847 4.68721 32.0845 4.68721H31.0009ZM31.0009 8.97507V7.34864H32.8014C33.4849 7.34864 33.8683 7.67721 33.8683 8.15364C33.8683 8.69578 33.5183 8.97507 32.8014 8.97507H31.0009Z"/>
<path d="M39 0.300781V11.8008H47.2689V8.61364H42.5009V7.38149H46.7354V4.72007H42.5009V3.48792H47.2689V0.300781H39Z"/>
<path d="M57.552 7.43078C58.969 6.9215 59.8859 5.7715 59.8859 4.14507C59.8859 1.91078 58.1188 0.300781 55.8849 0.300781H50V11.8008H53.5009V7.06935L56.185 11.8008H60.186L57.552 7.43078ZM53.5009 3.17578H55.1013C55.9516 3.17578 56.3183 3.63578 56.3183 4.22721C56.3183 4.83507 55.9516 5.27864 55.1013 5.27864H53.5009V3.17578Z"/>
<path d="M64.8678 8.46578V11.8008H68.3688V8.46578L72.7699 0.300781H68.7689L66.635 4.7365L64.5011 0.300781H60.5L64.8678 8.46578Z"/>
</svg>
