<svg width="18" height="18" viewBox="0 0 18 18" fill="none" xmlns="http://www.w3.org/2000/svg">
<path fill-rule="evenodd" clip-rule="evenodd" d="M14 2.33268C14 3.25316 14.7462 3.99935 15.6667 3.99935C16.5871 3.99935 17.3333 3.25316 17.3333 2.33268C17.3333 1.41221 16.5871 0.666016 15.6667 0.666016C14.7462 0.666016 14 1.41221 14 2.33268ZM15.6667 10.6654C14.7462 10.6654 14 9.91917 14 8.9987C14 8.07822 14.7462 7.33203 15.6667 7.33203C16.5871 7.33203 17.3333 8.07822 17.3333 8.9987C17.3333 9.91917 16.5871 10.6654 15.6667 10.6654ZM15.6667 17.3333C14.7462 17.3333 14 16.5871 14 15.6667C14 14.7462 14.7462 14 15.6667 14C16.5871 14 17.3333 14.7462 17.3333 15.6667C17.3333 16.5871 16.5871 17.3333 15.6667 17.3333ZM9.0026 17.3333C8.08213 17.3333 7.33594 16.5871 7.33594 15.6667C7.33594 14.7462 8.08213 14 9.0026 14C9.92308 14 10.6693 14.7462 10.6693 15.6667C10.6693 16.5871 9.92308 17.3333 9.0026 17.3333ZM7.33594 8.9987C7.33594 9.91917 8.08213 10.6654 9.0026 10.6654C9.92308 10.6654 10.6693 9.91917 10.6693 8.9987C10.6693 8.07822 9.92308 7.33203 9.0026 7.33203C8.08213 7.33203 7.33594 8.07822 7.33594 8.9987ZM9.0026 3.99935C8.08213 3.99935 7.33594 3.25316 7.33594 2.33268C7.33594 1.41221 8.08213 0.666016 9.0026 0.666016C9.92308 0.666016 10.6693 1.41221 10.6693 2.33268C10.6693 3.25316 9.92308 3.99935 9.0026 3.99935ZM0.667969 15.666C0.667969 16.5865 1.41416 17.3327 2.33464 17.3327C3.25511 17.3327 4.0013 16.5865 4.0013 15.666C4.0013 14.7455 3.25511 13.9993 2.33464 13.9993C1.41416 13.9993 0.667969 14.7455 0.667969 15.666ZM2.33464 10.666C1.41416 10.666 0.667969 9.91982 0.667969 8.99935C0.667969 8.07887 1.41416 7.33268 2.33464 7.33268C3.25511 7.33268 4.0013 8.07887 4.0013 8.99935C4.0013 9.91982 3.25511 10.666 2.33464 10.666ZM0.667969 2.33268C0.667969 3.25316 1.41416 3.99935 2.33464 3.99935C3.25511 3.99935 4.0013 3.25316 4.0013 2.33268C4.0013 1.41221 3.25511 0.666016 2.33464 0.666016C1.41416 0.666016 0.667969 1.41221 0.667969 2.33268Z"/>
</svg>
