<svg width="20" height="20" viewBox="0 0 20 20" fill="none" xmlns="http://www.w3.org/2000/svg">
<path fill-rule="evenodd" clip-rule="evenodd" d="M16.2011 14.4C17.3681 13.1374 17.4999 11.4789 17.4999 9.66239C17.4999 5.70671 14.142 2.5 9.99987 2.5C5.85773 2.5 2.49987 5.70671 2.49987 9.66239C2.49987 9.86351 2.49652 10.0673 2.49316 10.2723C2.46818 11.7936 2.44215 13.3788 3.77535 14.4C5 13.1018 6.71862 12.597 9.99987 12.597C13.2811 12.597 15 13.1018 16.2011 14.4ZM10 5C8.33563 5 7.25 6.25179 7.25 7.85185C7.25 10.2954 8.46059 11.4167 10 11.4167C11.5249 11.4167 12.75 10.3327 12.75 7.99444C12.75 6.37001 11.6598 5 10 5Z"/>
<path fill-rule="evenodd" clip-rule="evenodd" d="M9.99992 19.1663C4.93731 19.1663 0.833252 15.0623 0.833252 9.99967C0.833252 4.93706 4.93731 0.833008 9.99992 0.833008C15.0625 0.833008 19.1666 4.93706 19.1666 9.99967C19.1666 15.0623 15.0625 19.1663 9.99992 19.1663ZM9.99992 17.4997C14.1421 17.4997 17.4999 14.1418 17.4999 9.99967C17.4999 5.85754 14.1421 2.49967 9.99992 2.49967C5.85778 2.49967 2.49992 5.85754 2.49992 9.99967C2.49992 14.1418 5.85778 17.4997 9.99992 17.4997Z"/>
</svg>
