<svg width="16" height="16" viewBox="0 0 16 16" fill="none" xmlns="http://www.w3.org/2000/svg">
<path fill-rule="evenodd" clip-rule="evenodd" d="M2.39999 4.79997C1.07451 4.79997 0 3.72546 0 2.39999C0 1.07451 1.07451 0 2.39999 0C3.72546 0 4.79997 1.07451 4.79997 2.39999C4.79997 3.72546 3.72546 4.79997 2.39999 4.79997ZM7.99764 4.79997C6.67217 4.79997 5.59766 3.72546 5.59766 2.39999C5.59766 1.07451 6.67217 0 7.99764 0C9.32312 0 10.3976 1.07451 10.3976 2.39999C10.3976 3.72546 9.32312 4.79997 7.99764 4.79997ZM11.2001 2.39999C11.2001 3.72546 12.2746 4.79997 13.6 4.79997C14.9255 4.79997 16 3.72546 16 2.39999C16 1.07451 14.9255 0 13.6 0C12.2746 0 11.2001 1.07451 11.2001 2.39999ZM2.39999 10.4C1.07451 10.4 0 9.32549 0 8.00002C0 6.67454 1.07451 5.60003 2.39999 5.60003C3.72546 5.60003 4.79997 6.67454 4.79997 8.00002C4.79997 9.32549 3.72546 10.4 2.39999 10.4ZM5.59766 7.9996C5.59766 9.32507 6.67217 10.3996 7.99764 10.3996C9.32312 10.3996 10.3976 9.32507 10.3976 7.9996C10.3976 6.67412 9.32312 5.59961 7.99764 5.59961C6.67217 5.59961 5.59766 6.67412 5.59766 7.9996ZM13.5957 10.3999C12.2702 10.3999 11.1957 9.32543 11.1957 7.99995C11.1957 6.67447 12.2702 5.59996 13.5957 5.59996C14.9212 5.59996 15.9957 6.67447 15.9957 7.99995C15.9957 9.32543 14.9212 10.3999 13.5957 10.3999ZM7.99807 16C6.67259 16 5.59808 14.9255 5.59808 13.6C5.59808 12.2745 6.67259 11.2 7.99807 11.2C9.32354 11.2 10.3981 12.2745 10.3981 13.6C10.3981 14.9255 9.32354 16 7.99807 16Z"/>
</svg>
