<svg width="16" height="16" viewBox="0 0 16 16" fill="none" xmlns="http://www.w3.org/2000/svg">
<path fill-rule="evenodd" clip-rule="evenodd" d="M8.0013 15.3327C3.95121 15.3327 0.667969 12.0494 0.667969 7.99935C0.667969 3.94926 3.95121 0.666016 8.0013 0.666016C12.0514 0.666016 15.3346 3.94926 15.3346 7.99935C15.3346 12.0494 12.0514 15.3327 8.0013 15.3327ZM8 14C11.3137 14 14 11.3137 14 8C14 4.68629 11.3137 2 8 2C4.68629 2 2 4.68629 2 8C2 11.3137 4.68629 14 8 14ZM7.13812 4.86133L6.19531 5.80414L8.39057 7.9994L6.19531 10.1947L7.13812 11.1375L10.2762 7.9994L7.13812 4.86133Z"/>
</svg>
