<svg width="20" height="20" viewBox="0 0 20 20" fill="none" xmlns="http://www.w3.org/2000/svg">
<path fill-rule="evenodd" clip-rule="evenodd" d="M0.833252 9.99967C0.833252 15.0623 4.93731 19.1663 9.99992 19.1663C15.0625 19.1663 19.1666 15.0623 19.1666 9.99967C19.1666 4.93706 15.0625 0.833008 9.99992 0.833008C4.93731 0.833008 0.833252 4.93706 0.833252 9.99967ZM17.4999 9.99967C17.4999 14.1418 14.1421 17.4997 9.99992 17.4997C5.85778 17.4997 2.49992 14.1418 2.49992 9.99967C2.49992 5.85754 5.85778 2.49967 9.99992 2.49967C14.1421 2.49967 17.4999 5.85754 17.4999 9.99967ZM10.0002 14.1649C10.4606 14.1649 10.8338 13.7918 10.8338 13.3316C10.8338 12.8714 10.4606 12.4983 10.0002 12.4983C9.5398 12.4983 9.16659 12.8714 9.16659 13.3316C9.16659 13.7918 9.5398 14.1649 10.0002 14.1649ZM9.16659 11.6663H10.8333C10.8333 11.001 10.9378 10.8791 11.6226 10.5367C12.8128 9.94161 13.3333 9.33438 13.3333 7.91634C13.3333 6.1002 11.9035 4.99967 9.99992 4.99967C8.15897 4.99967 6.66659 6.49206 6.66659 8.33301H8.33325C8.33325 7.41253 9.07944 6.66634 9.99992 6.66634C11.0642 6.66634 11.6666 7.13001 11.6666 7.91634C11.6666 8.58163 11.5621 8.70357 10.8772 9.04598C9.68707 9.64107 9.16659 10.2483 9.16659 11.6663Z"/>
</svg>
