<svg width="24" height="16" viewBox="0 0 24 16" fill="none" xmlns="http://www.w3.org/2000/svg">
<path d="M10.4789 6.20408C10.4789 7.90204 10.2085 9.36054 9.6676 10.5796C9.12676 11.8422 8.42817 12.8653 7.57183 13.649C6.71549 14.4762 5.74648 15.0639 4.66479 15.4122C3.53803 15.8041 2.4338 16 1.35211 16V13.7143C2.52394 13.7143 3.62817 13.3224 4.66479 12.5388C5.65634 11.7986 6.24225 10.7755 6.42254 9.46939C6.28732 9.51292 6.12958 9.55646 5.9493 9.6C5.81409 9.64354 5.65634 9.68707 5.47606 9.73061C5.25071 9.77415 5.00282 9.79592 4.7324 9.79592C3.38028 9.79592 2.25352 9.29524 1.35211 8.29388C0.450705 7.33605 0 6.20408 0 4.89796C0 3.59184 0.473242 2.4381 1.41972 1.43673C2.32113 0.478911 3.53803 0 5.07042 0C6.7831 0 8.11268 0.609524 9.05915 1.82857C10.0056 3.09116 10.4789 4.54966 10.4789 6.20408ZM24 6.20408C24 7.90204 23.7296 9.36054 23.1887 10.5796C22.6479 11.8422 21.9493 12.8653 21.093 13.649C20.2366 14.4762 19.2676 15.0639 18.1859 15.4122C17.0592 15.8041 15.9549 16 14.8732 16V13.7143C16.0451 13.7143 17.1493 13.3224 18.1859 12.5388C19.1775 11.7986 19.7634 10.7755 19.9437 9.46939C19.8085 9.51292 19.6507 9.55646 19.4704 9.6C19.3352 9.64354 19.1775 9.68707 18.9972 9.73061C18.7718 9.77415 18.5239 9.79592 18.2535 9.79592C16.9014 9.79592 15.7746 9.29524 14.8732 8.29388C13.9718 7.33605 13.5211 6.20408 13.5211 4.89796C13.5211 3.59184 13.9944 2.4381 14.9408 1.43673C15.8423 0.478911 17.0592 0 18.5915 0C20.3042 0 21.6338 0.609524 22.5803 1.82857C23.5268 3.09116 24 4.54966 24 6.20408Z"/>
</svg>
