<svg width="15" height="15" viewBox="0 0 15 15" fill="none" xmlns="http://www.w3.org/2000/svg">
<path fill-rule="evenodd" clip-rule="evenodd" d="M7.91558 2.18597C9.50259 2.35277 10.7885 3.21102 11.5566 4.57968L9.03255 4.31439L8.89318 5.64042L13.5343 6.12822L14.0221 1.48711L12.6961 1.34774L12.4682 3.51603C11.4699 2.01155 9.9142 1.05536 8.05495 0.859942C4.39322 0.475079 1.11281 3.1315 0.727948 6.79323L2.05398 6.9326C2.36187 4.00322 4.9862 1.87808 7.91558 2.18597ZM6.80011 12.7942C5.2131 12.6274 3.92721 11.7692 3.15908 10.4005L5.68314 10.6658L5.82251 9.33976L1.18141 8.85196L0.693607 13.4931L2.01964 13.6324L2.24753 11.4641C3.24581 12.9686 4.80149 13.9248 6.66074 14.1202C10.3225 14.5051 13.6029 11.8487 13.9877 8.18695L12.6617 8.04758C12.3538 10.977 9.72949 13.1021 6.80011 12.7942Z"/>
</svg>
