<svg width="18" height="18" viewBox="0 0 18 18" fill="none" xmlns="http://www.w3.org/2000/svg">
<path fill-rule="evenodd" clip-rule="evenodd" d="M7.33341 14.0003C3.65152 14.0003 0.666748 11.0156 0.666748 7.33366C0.666748 3.65176 3.65152 0.666992 7.33341 0.666992C11.0153 0.666992 14.0001 3.65176 14.0001 7.33366C14.0001 8.87425 13.4775 10.2928 12.6 11.4217L17.0893 15.9111L15.9108 17.0896L11.4215 12.6002C10.2925 13.4778 8.87401 14.0003 7.33341 14.0003ZM12.3334 7.33366C12.3334 10.0951 10.0948 12.3337 7.33341 12.3337C4.57199 12.3337 2.33341 10.0951 2.33341 7.33366C2.33341 4.57224 4.57199 2.33366 7.33341 2.33366C10.0948 2.33366 12.3334 4.57224 12.3334 7.33366Z"/>
</svg>
