<svg width="9" height="14" viewBox="0 0 9 14" fill="none" xmlns="http://www.w3.org/2000/svg">
<path fill-rule="evenodd" clip-rule="evenodd" d="M7.33268 3.00065C6.5963 3.00065 5.99935 2.4037 5.99935 1.66732C5.99935 0.930938 6.5963 0.333984 7.33268 0.333984C8.06906 0.333984 8.66602 0.930938 8.66602 1.66732C8.66602 2.4037 8.06906 3.00065 7.33268 3.00065ZM5.99935 7.00065C5.99935 7.73703 6.5963 8.33398 7.33268 8.33398C8.06906 8.33398 8.66602 7.73703 8.66602 7.00065C8.66602 6.26427 8.06906 5.66732 7.33268 5.66732C6.5963 5.66732 5.99935 6.26427 5.99935 7.00065ZM5.99935 12.334C5.99935 13.0704 6.5963 13.6673 7.33268 13.6673C8.06906 13.6673 8.66602 13.0704 8.66602 12.334C8.66602 11.5976 8.06906 11.0007 7.33268 11.0007C6.5963 11.0007 5.99935 11.5976 5.99935 12.334ZM0.666016 12.334C0.666016 13.0704 1.26297 13.6673 1.99935 13.6673C2.73573 13.6673 3.33268 13.0704 3.33268 12.334C3.33268 11.5976 2.73573 11.0007 1.99935 11.0007C1.26297 11.0007 0.666016 11.5976 0.666016 12.334ZM1.99935 8.33398C1.26297 8.33398 0.666016 7.73703 0.666016 7.00065C0.666016 6.26427 1.26297 5.66732 1.99935 5.66732C2.73573 5.66732 3.33268 6.26427 3.33268 7.00065C3.33268 7.73703 2.73573 8.33398 1.99935 8.33398ZM0.666016 1.66732C0.666016 2.4037 1.26297 3.00065 1.99935 3.00065C2.73573 3.00065 3.33268 2.4037 3.33268 1.66732C3.33268 0.930938 2.73573 0.333984 1.99935 0.333984C1.26297 0.333984 0.666016 0.930938 0.666016 1.66732Z" fill="#BFC7D1"/>
</svg>
