<svg width="12" height="12" viewBox="0 0 12 12" fill="none" xmlns="http://www.w3.org/2000/svg">
<path d="M11.5003 6.86868C11.5451 6.58536 11.5686 6.29552 11.5686 5.99968C11.5686 2.92479 9.07609 0.432295 6.00112 0.432295C5.70606 0.432295 5.41538 0.456595 5.13231 0.500871C4.61956 0.183603 4.01437 0 3.36581 0C1.50776 0 0.00146484 1.5061 0.00146484 3.36434C0.00146484 4.01277 0.18518 4.61745 0.502308 5.13124C0.458423 5.41503 0.434262 5.70395 0.434262 5.99979C0.434262 9.0749 2.92676 11.5666 6.00101 11.5666C6.29632 11.5666 6.58708 11.5439 6.87011 11.4992C7.3834 11.8159 7.98808 12 8.63651 12C10.4951 12 12.0012 10.4935 12.0012 8.6353C12.0013 7.98662 11.8177 7.38207 11.5003 6.86868ZM8.64446 8.53179C8.40894 8.87085 8.06296 9.13581 7.61089 9.32633C7.15789 9.51735 6.62248 9.6124 6.00419 9.6124C5.26313 9.6124 4.64958 9.48273 4.16528 9.22087C3.82198 9.03336 3.54277 8.78182 3.32811 8.46815C3.11301 8.15423 3.00396 7.84682 3.00396 7.54707C3.00396 7.37025 3.07139 7.21647 3.20265 7.09109C3.33528 6.96479 3.50611 6.90149 3.70774 6.90149C3.8729 6.90149 4.01476 6.95123 4.13027 7.0498C4.2449 7.14834 4.34107 7.2916 4.41972 7.48064C4.51399 7.69965 4.61638 7.88272 4.72532 8.0288C4.8336 8.17307 4.98598 8.29351 5.18334 8.38778C5.37852 8.4823 5.63829 8.52956 5.96334 8.52956C6.40819 8.52956 6.7677 8.43334 7.04284 8.24351C7.31937 8.05196 7.4522 7.81889 7.4522 7.53728C7.4522 7.31266 7.38058 7.13428 7.23372 6.9952C7.08552 6.85431 6.89414 6.74701 6.65663 6.67216C6.41821 6.59652 6.09809 6.51631 5.69693 6.43181C5.15826 6.31424 4.70775 6.1774 4.34291 6.02024C3.9776 5.8625 3.68667 5.64687 3.47104 5.37449C3.25496 5.09943 3.14722 4.75756 3.14722 4.35263C3.14722 3.96651 3.26096 3.62121 3.48867 3.32068C3.71627 3.01931 4.04556 2.78864 4.47493 2.62797C4.90279 2.46736 5.40651 2.38701 5.98357 2.38701C6.44505 2.38701 6.84422 2.44041 7.18211 2.54665C7.51907 2.65367 7.79996 2.79489 8.02455 2.97211C8.24771 3.14893 8.41193 3.33544 8.51593 3.53115C8.61986 3.72745 8.6722 3.91917 8.6722 4.10626C8.6722 4.28021 8.60476 4.43798 8.47336 4.57624C8.34198 4.71471 8.17392 4.78529 7.97765 4.78465C7.80071 4.78465 7.66192 4.74383 7.56566 4.65743C7.47192 4.57384 7.37347 4.44077 7.26698 4.25529C7.13237 3.9965 6.97114 3.79488 6.78366 3.65067C6.60111 3.50914 6.29994 3.43545 5.88087 3.43635C5.49313 3.43635 5.18289 3.51558 4.94874 3.67053C4.71313 3.82797 4.6005 4.01062 4.59997 4.22463C4.60036 4.35874 4.63892 4.47182 4.71651 4.56852C4.79529 4.66611 4.90491 4.75067 5.0458 4.82195C5.18675 4.89435 5.33012 4.95034 5.47419 4.99063C5.61996 5.03195 5.86182 5.09168 6.198 5.17077C6.61961 5.26164 7.00202 5.36316 7.34565 5.47381C7.68862 5.58502 7.9813 5.71913 8.2231 5.8789C8.46683 6.03821 8.65732 6.24131 8.7933 6.48663C8.93026 6.73233 8.99847 7.03244 8.99847 7.38559C8.999 7.81083 8.88054 8.19327 8.64446 8.53179Z" fill="#7F8FA4"/>
</svg>
