<svg width="12" height="4" viewBox="0 0 12 4" fill="none" xmlns="http://www.w3.org/2000/svg">
<path fill-rule="evenodd" clip-rule="evenodd" d="M10.6667 0.666992C9.93029 0.666992 9.33333 1.26395 9.33333 2.00033C9.33333 2.7367 9.93029 3.33366 10.6667 3.33366C11.403 3.33366 12 2.73671 12 2.00033C12 1.26395 11.403 0.666992 10.6667 0.666992ZM4.66667 2.00033C4.66667 1.26395 5.26362 0.666992 6 0.666992C6.73638 0.666992 7.33333 1.26395 7.33333 2.00033C7.33333 2.7367 6.73638 3.33366 6 3.33366C5.26362 3.33366 4.66667 2.7367 4.66667 2.00033ZM-5.82818e-08 2.00032C-2.60937e-08 1.26395 0.596953 0.666992 1.33333 0.666992C2.06971 0.666992 2.66667 1.26395 2.66667 2.00033C2.66667 2.7367 2.06971 3.33366 1.33333 3.33366C0.596953 3.33366 -9.047e-08 2.7367 -5.82818e-08 2.00032Z"/>
</svg>
